<?xml version="1.0" encoding="UTF-8"?>
<svg width="182px" height="82px" viewBox="0 0 182 82" version="1.1" xmlns="http://www.w3.org/2000/svg" xmlns:xlink="http://www.w3.org/1999/xlink">
    <!-- Generator: Sketch 40 (33762) - http://www.bohemiancoding.com/sketch -->
    <title>Untitled</title>
    <desc>Created with Sketch.</desc>
    <defs></defs>
    <g id="Page-1" stroke="none" stroke-width="1" fill="none" fill-rule="evenodd">
        <path d="M0.3,38.9 L37.3,38.9 C41.6,38.9 47.1,34.9 47.1,28.3 C47.1,25.7 48.1,23.9 45,20.4 L40.3,14.8 C37.6,12.3 40.6,12.3 42.9,12.3 L58.5,12.3 L58.5,38.9 L70.9,38.9 L70.9,12.2 L87.6,12.2 L87.6,0.9 L33.5,0.9 C26.9,0.9 23.7,7.2 23.9,10.5 C24.1,13.8 24.7,17.9 30.2,22.9 C35.2,27.4 27.7,26.2 27,26.2 L0.3,26.2 L0.3,38.9 Z" id="Shape" fill="#FFFFFF"></path>
        <path d="M115,0.9 L95,0.9 L83.8,38.8 L96.3,38.8 L98.3,33.5 L111.5,33.5 L113.5,38.8 L125.7,38.8 L115,0.9 L115,0.9 L115,0.9 Z M101.1,24.4 L105.4,10.5 L109.4,24.4 L101.1,24.4 L101.1,24.4 L101.1,24.4 Z" id="Shape" fill="#FFFFFF"></path>
        <path d="M165.1,26.2 C160.3,26.2 160.3,24.4 160.3,24.4 C164.4,24.4 168.1,18.4 168.1,12.3 C168.1,6.2 162.1,0.9 157.3,0.9 L130.4,0.9 L130.4,38.8 L144,38.8 L144,26.2 C144,26.2 149.8,33 152.9,35.8 C155.9,38.6 156.2,38.8 160.3,38.8 L181.8,38.8 L181.8,26.2 L165.1,26.2 L165.1,26.2 L165.1,26.2 Z M152.7,17.3 L144,17.3 L144,10.5 L152.7,10.5 C156.7,10.5 157.4,17.3 152.7,17.3 L152.7,17.3 L152.7,17.3 Z" id="Shape" fill="#FFFFFF"></path>
        <polygon id="Shape" fill="#FFFFFF" points="0.3 43.6 14.3 43.6 17.9 56.3 21.1 43.6 35.8 43.6 39.6 56.3 43.4 43.6 55.6 43.6 44.4 81.6 33.3 81.6 28.4 63.6 22.9 81.6 11.5 81.6"></polygon>
        <path d="M84.2,43.8 L64.2,43.8 L53.1,81.8 L65.6,81.8 L67.6,76.5 L80.8,76.5 L82.8,81.8 L95,81.8 L84.2,43.8 L84.2,43.8 L84.2,43.8 Z M70.3,67.4 L74.6,53.5 L78.6,67.4 L70.3,67.4 L70.3,67.4 L70.3,67.4 Z" id="Shape" fill="#FFFFFF"></path>
        <path d="M181.8,55 L181.8,43.6 L156.2,43.6 C149.6,43.6 146.8,50.2 147,53.5 C147.2,56.8 147.8,60.9 153.3,65.9 C158.3,70.4 150.8,69.2 150.1,69.2 L135.4,69.2 C132.4,69.2 130.6,67.4 130.6,67.4 C134.7,67.4 138.4,61.4 138.4,55.3 C138.4,49.2 132.4,43.9 127.6,43.9 L100.7,43.9 L100.7,81.8 L114.4,81.8 L114.4,69.1 C114.4,69.1 120.2,75.9 123.3,78.7 C126.3,81.5 126.6,81.7 130.7,81.7 L160.6,81.5 C164.9,81.5 171.4,77.5 171.4,70.9 C171.4,68.3 171.5,66.8 168.3,63.3 L163.6,57.7 C160.9,55.2 163.4,54.9 165.6,54.9 L165.6,54.9 L181.8,54.9 L181.8,55 Z M122.8,60.3 L114.1,60.3 L114.1,53.5 L122.8,53.5 C126.8,53.4 127.5,60.3 122.8,60.3 L122.8,60.3 Z" id="Shape" fill="#FFFFFF"></path>
    </g>
</svg>