<svg id="Layer_1" data-name="Layer 1" xmlns="http://www.w3.org/2000/svg" viewBox="0 0 369.78 70"><defs><style>.cls-1{fill:#001f5b;}.cls-2{fill:#8b9064;}</style></defs><title>finance-bilingual-landscape</title><path class="cls-1" d="M93.78,19.09H74v1.16h3.39v25.2H74v1.16H85.49V45.52H82.1V33.35h1.11c3.6,0,4.2.63,4.49,5.24v.21h.9V27.18h-.9v.15c-.1,3.43-.63,4.39-2.59,4.76a27.46,27.46,0,0,1-3,.16V20.35h2.33a25.19,25.19,0,0,1,4.34.11,4.56,4.56,0,0,1,2.53,1.48c1,1.11,1.48,2.27,2.06,5v.16h.89Z" transform="translate(-1 -1)"/><polygon class="cls-1" points="99.97 29.29 93.16 29.29 93.16 30.51 95.9 30.51 95.9 44.58 93.16 44.58 93.16 45.74 102.68 45.74 102.68 44.58 99.97 44.58 99.97 29.29"/><path class="cls-1" d="M98.86,24.63a2.55,2.55,0,0,0,2.48-2.48,2.5,2.5,0,0,0-2.47-2.54H98.8A2.39,2.39,0,0,0,96.36,22a1.27,1.27,0,0,0,0,.2,2.39,2.39,0,0,0,2.3,2.48Z" transform="translate(-1 -1)"/><path class="cls-1" d="M121.4,36.69c0-3.13-.22-4.08-1.22-5.13a6.64,6.64,0,0,0-9.31.58V30.4H104.1v1.16h2.8v14h-2.8v1.16h9.25V45.58h-2.44V40.86c0-4.86.21-6.71,1-7.81a3.56,3.56,0,0,1,2.8-1.54,2.5,2.5,0,0,1,1.91.84c.63.79.79,2.17.79,7.08v6.15h-2.54v1.16h9.32V45.58h-2.8Z" transform="translate(-1 -1)"/><path class="cls-1" d="M140.47,45c-.74.63-.8.63-1.05.63-.7,0-.74,0-.74-3.59v-5.5c0-3.54,0-3.86-1-4.87a6.84,6.84,0,0,0-5-1.79c-3.54,0-6.61,2-6.61,4.34A1.9,1.9,0,0,0,128,36.15h0a1.84,1.84,0,0,0,1.91-1.78v-.16a1.93,1.93,0,0,0-.65-1.4c-.15-.21-.15-.21-.15-.31,0-.64,1.48-1.54,2.91-1.54a2.74,2.74,0,0,1,2.06.74c.42.48.53.8.53,3.18v2.66c-6.24.15-9.67,2.11-9.67,5.6,0,2.44,1.79,4.07,4.55,4.07a6.32,6.32,0,0,0,5.22-2.8,3.29,3.29,0,0,0,3.5,2.79,4.3,4.3,0,0,0,3-1.27l.1-.12-.73-.89Zm-5.81-6.4v.63a9.63,9.63,0,0,1-.53,4,3.21,3.21,0,0,1-2.8,1.84A2.18,2.18,0,0,1,129,43a1.93,1.93,0,0,1,0-.48C129,40,130.74,38.8,134.66,38.59Z" transform="translate(-1 -1)"/><path class="cls-1" d="M159.07,36.69c0-3.13-.21-4.08-1.21-5.13a6.57,6.57,0,0,0-9.27.58V30.4h-6.82v1.16h2.8v14h-2.8v1.16H151V45.58h-2.46V40.86c0-4.86.21-6.71,1-7.81a3.54,3.54,0,0,1,2.8-1.54,2.48,2.48,0,0,1,1.9.84c.63.79.8,2.17.8,7.08v6.15h-2.49v1.16h9.25V45.58h-2.7Z" transform="translate(-1 -1)"/><path class="cls-1" d="M176,41.33c-1,3-2.8,4.55-5.29,4.55a3.44,3.44,0,0,1-2.7-1.1c-.63-.8-.84-2-.84-5,0-7.35,1.1-8.51,3.8-8.51,1.32,0,2.65.63,2.65,1.06l-.11.16a3.54,3.54,0,0,0-.84,2,2,2,0,0,0,1.85,2.16h.15a2.11,2.11,0,0,0,2.13-2.1,1.32,1.32,0,0,0,0-.28c0-2.28-2.8-4.34-5.81-4.34a8.63,8.63,0,0,0-8.51,8.72,8.48,8.48,0,0,0,8,8.51c3.28,0,5.45-1.79,7-5.71l.1-.27h-1.4Z" transform="translate(-1 -1)"/><path class="cls-1" d="M191.75,41.12c-.74,3-2.8,4.71-5.28,4.71a3.4,3.4,0,0,1-3.12-1.68c-.48-.86-.53-1.64-.53-5.67V37.4h10.62v-.21c-.32-4.44-3.17-7.29-7.35-7.29s-7.88,4.06-7.88,8.66,3.81,8.64,8,8.64a7,7,0,0,0,7-6V41h-1.4Zm-9-4.91v-.74c0-3.07.86-4.2,3.18-4.2a2.36,2.36,0,0,1,2.48,1.48,8.42,8.42,0,0,1,.32,3.49Z" transform="translate(-1 -1)"/><polygon class="cls-1" points="29.97 52.5 22.47 48.16 22.47 39.38 29.97 35 37.48 39.38 37.48 48.16 29.97 52.5"/><polygon class="cls-1" points="29.97 70 22.47 65.66 22.47 56.88 29.97 52.5 37.48 56.88 37.48 65.66 29.97 70"/><polygon class="cls-1" points="15.01 26.28 7.5 21.88 7.5 13.12 15.01 8.78 22.47 13.12 22.47 21.88 15.01 26.28"/><polygon class="cls-1" points="15.01 43.78 7.5 39.38 7.5 30.66 15.01 26.28 22.47 30.66 22.47 39.38 15.01 43.78"/><polygon class="cls-1" points="15.01 61.28 7.5 56.88 7.5 48.16 15.01 43.78 22.47 48.16 22.47 56.88 15.01 61.28"/><polygon class="cls-1" points="0 35 0 17.5 7.5 21.88 7.5 30.66 0 35"/><polygon class="cls-1" points="0 52.5 0 35 7.5 39.38 7.5 48.16 0 52.5"/><polygon class="cls-2" points="29.97 17.5 22.47 13.12 22.47 4.38 29.97 0 37.48 4.38 37.48 13.12 29.97 17.5"/><polygon class="cls-2" points="29.97 35 22.47 30.66 22.47 21.88 29.97 17.5 37.48 21.88 37.48 30.66 29.97 35"/><polygon class="cls-2" points="45 26.28 37.48 21.88 37.48 13.12 45 8.78 52.5 13.12 52.5 21.88 45 26.28"/><polygon class="cls-2" points="45 43.78 37.48 39.38 37.48 30.66 45 26.28 52.5 30.66 52.5 39.38 45 43.78"/><polygon class="cls-2" points="45 61.28 37.48 56.88 37.48 48.16 45 43.78 52.5 48.16 52.5 56.88 45 61.28"/><polygon class="cls-2" points="60 35 52.5 30.66 52.5 21.88 60 17.5 60 35"/><polygon class="cls-2" points="60 52.5 52.5 48.16 52.5 39.38 60 35 60 52.5"/><path class="cls-1" d="M79.82,2H76.6v9.41h3.54a3.42,3.42,0,0,0,2.8-1.4A5.09,5.09,0,0,0,84,6.68a5.14,5.14,0,0,0-1.11-3.3A3.73,3.73,0,0,0,79.82,2ZM78,3.11h1.85a2.63,2.63,0,0,1,2.27,1.07,4.38,4.38,0,0,1,.67,2.42,4.6,4.6,0,0,1-.74,2.7,2.66,2.66,0,0,1-2.23,1H78Z" transform="translate(-1 -1)"/><path class="cls-1" d="M91.15,8a4.2,4.2,0,0,0-.86-2.8,2.86,2.86,0,0,0-2.21-1,3.29,3.29,0,0,0-2.34,1A3.74,3.74,0,0,0,84.85,8a4,4,0,0,0,.89,2.65,2.94,2.94,0,0,0,2.34,1,3.29,3.29,0,0,0,1.9-.57A2.75,2.75,0,0,0,91,9.6h0l-1.1-.21h0a1.87,1.87,0,0,1-1.81,1.32,2.1,2.1,0,0,1-1.4-.54,2.51,2.51,0,0,1-.6-2h5Zm-5-.84a2.33,2.33,0,0,1,.57-1.4,1.82,1.82,0,0,1,1.4-.59,1.74,1.74,0,0,1,1,.32,1.88,1.88,0,0,1,.59.75,5,5,0,0,1,.21,1Z" transform="translate(-1 -1)"/><path class="cls-1" d="M95.58,4.22a2.34,2.34,0,0,0-2.11,1.4V4.43H92.41v9.31h1.16V10.52a2.27,2.27,0,0,0,2,1.11,2.43,2.43,0,0,0,2-1A4.15,4.15,0,0,0,98.38,8a4.35,4.35,0,0,0-.78-2.66A2.43,2.43,0,0,0,95.58,4.22Zm-.21,1.06A1.4,1.4,0,0,1,96.63,6a3.37,3.37,0,0,1,.48,2,3,3,0,0,1-.52,2.06,1.55,1.55,0,0,1-2.34.11,1.94,1.94,0,0,1-.63-1.27v-2a2.53,2.53,0,0,1,.63-1.17A1.84,1.84,0,0,1,95.37,5.28Z" transform="translate(-1 -1)"/><path class="cls-1" d="M105,10V7.13a3.11,3.11,0,0,0-.63-2.22,2.78,2.78,0,0,0-2.07-.63c-1.79,0-2.8.63-3.07,2h0l1.12.21h0c.16-.8.79-1.22,1.85-1.22a2.11,2.11,0,0,1,1,.21,1.23,1.23,0,0,1,.53.53,4.55,4.55,0,0,1,.12,1.11H103a5.11,5.11,0,0,0-3.06.68,2.22,2.22,0,0,0-.9,1.75,2.12,2.12,0,0,0,.63,1.54,2.51,2.51,0,0,0,1.81.63,2.45,2.45,0,0,0,2.38-1.4,3.17,3.17,0,0,0,.09,1.07h1.17A6.43,6.43,0,0,1,105,10Zm-3.27.63a1.51,1.51,0,0,1-1.07-.32,1,1,0,0,1-.36-.84A1.2,1.2,0,0,1,101,8.35a4,4,0,0,1,2-.42,7.69,7.69,0,0,1,1,0v.43A2.34,2.34,0,0,1,103.2,10,1.9,1.9,0,0,1,101.72,10.67Z" transform="translate(-1 -1)"/><path class="cls-1" d="M109.85,4.22a1.69,1.69,0,0,0-1,.38,2.85,2.85,0,0,0-.9,1.26V4.46h-1.06v7H108V7.72A2.52,2.52,0,0,1,108.65,6a1.79,1.79,0,0,1,1.4-.65h.25V4.28h0A1.17,1.17,0,0,0,109.85,4.22Z" transform="translate(-1 -1)"/><path class="cls-1" d="M114,10.67c-.69,0-1.07-.32-1.07-1V5.38h1.54v-1H113V2.58l-1.11.11V4.43h-1.21v1h1.21v4a1.85,1.85,0,0,0,1.52,2.11,1.63,1.63,0,0,0,.54,0,8.51,8.51,0,0,0,1,0h0v-.93h0A7.16,7.16,0,0,1,114,10.67Z" transform="translate(-1 -1)"/><path class="cls-1" d="M124.2,4.65a2.23,2.23,0,0,0-1.27-.43,2.35,2.35,0,0,0-2.17,1.54,2.1,2.1,0,0,0-.63-1.06,2,2,0,0,0-1.4-.48,2.37,2.37,0,0,0-2.06,1.4V4.43h-.87v7h1.12V7.23a2,2,0,0,1,.48-1.4,1.37,1.37,0,0,1,2.1-.25,1.6,1.6,0,0,1,.42,1.2v4.64h1.16V7.51a2.57,2.57,0,0,1,.53-1.69,1.57,1.57,0,0,1,1.16-.54,1.24,1.24,0,0,1,.74.27,1.09,1.09,0,0,1,.42.57,4,4,0,0,1,.12,1v4.34h1.16V7.08a5.89,5.89,0,0,0-.16-1.4A2.65,2.65,0,0,0,124.2,4.65Z" transform="translate(-1 -1)"/><path class="cls-1" d="M132.6,8a4.21,4.21,0,0,0-.84-2.8,2.79,2.79,0,0,0-2.23-1,3.26,3.26,0,0,0-2.32,1A3.77,3.77,0,0,0,126.36,8a3.94,3.94,0,0,0,.89,2.65,2.91,2.91,0,0,0,2.33,1,3.29,3.29,0,0,0,1.9-.57,2.78,2.78,0,0,0,1.12-1.51h0l-1.12-.21v0a1.82,1.82,0,0,1-1.79,1.32,2.06,2.06,0,0,1-1.4-.54,2.48,2.48,0,0,1-.65-2h5Zm-4.91-.84a2.33,2.33,0,0,1,.57-1.4,1.78,1.78,0,0,1,2.34-.27,1.83,1.83,0,0,1,.57.75,3.75,3.75,0,0,1,.21,1Z" transform="translate(-1 -1)"/><path class="cls-1" d="M138.51,4.65a2.29,2.29,0,0,0-1.32-.43,2.41,2.41,0,0,0-2.11,1.4V4.5H134v7h1.16V7.61a2.55,2.55,0,0,1,.52-1.7A1.71,1.71,0,0,1,137,5.28a1.3,1.3,0,0,1,1,.37A1.75,1.75,0,0,1,138.38,7v4.49h1.11v-4a4.57,4.57,0,0,0-.21-1.8A1.68,1.68,0,0,0,138.51,4.65Z" transform="translate(-1 -1)"/><path class="cls-1" d="M143.65,10.67c-.69,0-1.07-.32-1.07-1V5.38h1.54v-1h-1.54V2.58l-1.1.11V4.43h-1.22v1h1.22v4A1.83,1.83,0,0,0,143,11.51a1.63,1.63,0,0,0,.54,0,8.51,8.51,0,0,0,1,0h0v-.93h0A6.54,6.54,0,0,1,143.65,10.67Z" transform="translate(-1 -1)"/><path class="cls-1" d="M151.3,4.22a2.9,2.9,0,0,0-2.26,1,3.86,3.86,0,0,0-.9,2.64,4.37,4.37,0,0,0,.78,2.65,2.82,2.82,0,0,0,2.29,1.05,2.94,2.94,0,0,0,2.39-1.05,4.11,4.11,0,0,0,.9-2.65,3.93,3.93,0,0,0-.84-2.59A2.84,2.84,0,0,0,151.3,4.22Zm0,6.4A1.67,1.67,0,0,1,150,10a3.21,3.21,0,0,1-.59-2.12,3.12,3.12,0,0,1,.53-2,1.69,1.69,0,0,1,1.32-.63,1.79,1.79,0,0,1,1.4.63,3.17,3.17,0,0,1,.5,2.14,3.13,3.13,0,0,1-.52,2.06,1.83,1.83,0,0,1-1.38.56Z" transform="translate(-1 -1)"/><path class="cls-1" d="M159,1.9a6.78,6.78,0,0,0-1-.1,2.5,2.5,0,0,0-1.54.47c-.42.31-.63,1-.63,2.12h-1.16v1h1.16v6H157v-6h1.63v-1H157V4.22a1.4,1.4,0,0,1,.32-1.11,1.32,1.32,0,0,1,1-.32,2.85,2.85,0,0,1,.65.11h0v-1Z" transform="translate(-1 -1)"/><path class="cls-1" d="M221.68,2.25h-1.4l-3,9.35h1.12l.84-2.7h3.39l1,2.75h1.32l-3.22-9.4ZM222.2,8h-2.8l1.4-4.2Z" transform="translate(-1 -1)"/><path class="cls-1" d="M230.14,4.89a2.34,2.34,0,0,0-1.33-.43,2.44,2.44,0,0,0-2.12,1.33V4.67h-1.16v7h1.16V7.85a2.55,2.55,0,0,1,.54-1.7,1.7,1.7,0,0,1,1.33-.63,1.3,1.3,0,0,1,.95.37,1.86,1.86,0,0,1,.42,1.4v4.42H231V7.64a4.57,4.57,0,0,0-.21-1.8A1.71,1.71,0,0,0,230.14,4.89Z" transform="translate(-1 -1)"/><path class="cls-1" d="M242.56,6.36A2.87,2.87,0,0,0,243,5a2.72,2.72,0,0,0-.74-1.79A3,3,0,0,0,240,2.33h-3.7v9.38h1.22V7.64h2.59l1.72,4h1.32l-1.85-4.34A2.07,2.07,0,0,0,242.56,6.36Zm-5.07-2.95H240a1.85,1.85,0,0,1,1.22.42,1.41,1.41,0,0,1,.48,1.1,1.67,1.67,0,0,1-.48,1.22,1.85,1.85,0,0,1-1.4.48h-2.38Z" transform="translate(-1 -1)"/><path class="cls-1" d="M247,4.51a3,3,0,0,0-2.28,1,4,4,0,0,0-.9,2.65,4.29,4.29,0,0,0,.83,2.63,2.71,2.71,0,0,0,2.27,1,2.89,2.89,0,0,0,2.29-1,4,4,0,0,0,.91-2.65,3.75,3.75,0,0,0-.85-2.59A2.7,2.7,0,0,0,247,4.51Zm0,6.35a1.66,1.66,0,0,1-1.31-.63,3.13,3.13,0,0,1-.54-2.12,3.05,3.05,0,0,1,.54-2A1.6,1.6,0,0,1,247,5.47a1.71,1.71,0,0,1,1.32.63,3.1,3.1,0,0,1,.53,2.07,3,3,0,0,1-.53,2.06,1.77,1.77,0,0,1-1.37.57Z" transform="translate(-1 -1)"/><rect class="cls-1" x="250.33" y="3.67" width="1.16" height="6.97"/><rect class="cls-1" x="250.29" y="1.25" width="1.27" height="1.32"/><path class="cls-1" d="M258.89,4.89a2.21,2.21,0,0,0-1.31-.43,2.42,2.42,0,0,0-2.12,1.33V4.67H254.4v7h1.18V7.85a2.54,2.54,0,0,1,.51-1.7,1.73,1.73,0,0,1,1.4-.63,1.32,1.32,0,0,1,1,.37,1.81,1.81,0,0,1,.42,1.4v4.42H260V7.64a5,5,0,0,0-.21-1.8A1.66,1.66,0,0,0,258.89,4.89Z" transform="translate(-1 -1)"/><path class="cls-1" d="M267,5.84a2.24,2.24,0,0,0-2.06-1.33,2.38,2.38,0,0,0-2.11,1.4V4.79h-1.12v7h1.09V7.9a2.57,2.57,0,0,1,.53-1.69,1.69,1.69,0,0,1,1.4-.63,1.24,1.24,0,0,1,.95.36,1.76,1.76,0,0,1,.42,1.4v4.43h1.11V7.64A5,5,0,0,0,267,5.84Z" transform="translate(-1 -1)"/><path class="cls-1" d="M243,24.93a2.55,2.55,0,0,0,2.49-2.5,2.48,2.48,0,0,0-2.44-2.53H243a2.52,2.52,0,0,0,0,5Z" transform="translate(-1 -1)"/><path class="cls-1" d="M245.1,30.53h-6.83v1.16h2.8V45.8h-5.23L227,19.27h-1.4L216.28,45.8h-2V47h7V45.8h-3.49l2.53-7.62h8l2.5,7.62h-3.48V47h20.51V45.8h-2.8ZM227.8,37h-7l3.58-10.59Z" transform="translate(-1 -1)"/><path class="cls-1" d="M259.43,30.16c-1.8,0-3.18,1.16-4.29,3.54V30.53h-6.82v1.16h2.8V45.8h-2.8V47h9.52V45.8h-2.7V42.16c0-4.76.42-7,1.58-9.1.38-.63.8-1,1-1s.16,0,.22.43c.1,1.58.73,2.38,2,2.38a2.16,2.16,0,0,0,2.23-2.08v-.2a2.51,2.51,0,0,0-2.53-2.49Z" transform="translate(-1 -1)"/><path class="cls-1" d="M276.13,32s.17,0,.26.53a1.4,1.4,0,0,0,1.4,1.41h.14a1.67,1.67,0,0,0,1.68-1.66,1,1,0,0,0,0-.17,2,2,0,0,0-2-2h-.2a4,4,0,0,0-2.8,1.58A7,7,0,0,0,270,30.11c-3.81,0-6.66,2.53-6.66,6a5.6,5.6,0,0,0,2.42,4.6c-2.32,1.59-3.49,3.27-3.49,5.13A3.71,3.71,0,0,0,265,49.4a3.93,3.93,0,0,0-2.8,3.65c0,2.8,3.43,5.07,7.65,5.07,5,0,8.74-3.28,8.74-7.77,0-3.33-1.4-4.59-5-4.59l-6.83.1c-2,0-2.38-.48-2.38-1.32s.91-2.06,2.6-3.12a6.56,6.56,0,0,0,3.11.63c3.81,0,6.72-2.42,6.72-5.7a6.33,6.33,0,0,0-1.22-3.77C275.82,32.07,275.92,32,276.13,32ZM270,40.73c-1.9,0-2.38-.8-2.38-3.65,0-5.34.37-5.76,2.48-5.76,1.85,0,2.38.37,2.38,4,0,3-.11,3.86-.42,4.43A2.35,2.35,0,0,1,270,40.73Zm-.15,16c-2.91,0-4.86-1.64-4.86-4.12a4.23,4.23,0,0,1,1.26-3h.17a13.87,13.87,0,0,0,2.32.11h2.12a12.18,12.18,0,0,0,1.48,0h2.38c1.79,0,2.12.52,2.12,1.53C276.8,54.27,273.71,56.75,269.8,56.75Z" transform="translate(-1 -1)"/><path class="cls-1" d="M294.58,37.61V37.4c-.31-4.44-3.16-7.29-7.35-7.29s-7.87,4.07-7.87,8.66,3.81,8.63,8,8.63a7,7,0,0,0,7-6v-.21h-1.4v.15c-.74,3-2.8,4.71-5.28,4.71a3.4,3.4,0,0,1-3.12-1.68c-.47-.86-.53-1.66-.53-5.6v-1h10.57Zm-7.45-6.19a2.35,2.35,0,0,1,2.48,1.49,8,8,0,0,1,.32,3.48h-6v-.74c0-3.07.86-4.23,3.18-4.23Z" transform="translate(-1 -1)"/><path class="cls-1" d="M311.3,45.23c-.75.63-.8.63-1.07.63-.68,0-.74,0-.74-3.59v-5.5c0-3.54,0-3.86-1-4.87a6.86,6.86,0,0,0-5-1.79c-3.55,0-6.61,2-6.61,4.34a1.89,1.89,0,0,0,1.83,1.94h.06a1.83,1.83,0,0,0,1.9-1.76.54.54,0,0,0,0-.18,2,2,0,0,0-.63-1.4c-.15-.21-.15-.21-.15-.31,0-.65,1.48-1.54,2.9-1.54a2.7,2.7,0,0,1,2.07.74c.42.48.53.8.53,3.18v2.64c-6.24.16-9.69,2.12-9.69,5.6,0,2.44,1.81,4.08,4.55,4.08a6.4,6.4,0,0,0,5.24-2.8,3.27,3.27,0,0,0,3.48,2.8,4.31,4.31,0,0,0,3-1.28l.1-.11-.75-.89Zm-5.87-6.43v.63a9.47,9.47,0,0,1-.53,4,3.23,3.23,0,0,1-2.8,1.84,2.19,2.19,0,0,1-2.35-2,1.77,1.77,0,0,1,0-.46C299.76,40.2,301.51,39,305.43,38.8Z" transform="translate(-1 -1)"/><path class="cls-1" d="M328.6,19.33h-6.82v1.16h2.8v12.6a5.25,5.25,0,0,0-4.7-2.8c-3.75,0-7,3.9-7,8.55s3.23,8.74,7.14,8.74a5.2,5.2,0,0,0,4.55-2.8v2.48h6.76V46.09H328.6V19.33Zm-8.4,26.79a2.51,2.51,0,0,1-2.17-1.4c-.42-.84-.53-1.69-.53-5.39,0-4.2.17-5.77.59-6.61a2.6,2.6,0,0,1,2.05-1.27c2.44,0,4.2,3.07,4.2,7.35S322.61,46.12,320.2,46.12Z" transform="translate(-1 -1)"/><path class="cls-1" d="M347.56,45.23c-.75.63-.79.63-1.05.63-.69,0-.75,0-.75-3.59v-5.5c0-3.54,0-3.86-1-4.87a6.88,6.88,0,0,0-5-1.79c-3.54,0-6.61,2-6.61,4.34a1.9,1.9,0,0,0,1.86,1.94h.05A1.84,1.84,0,0,0,337,34.6v-.15a2,2,0,0,0-.63-1.4c-.17-.21-.17-.21-.17-.31,0-.65,1.49-1.54,2.91-1.54a2.74,2.74,0,0,1,2.06.74c.44.48.53.8.53,3.18v2.64c-6.23.16-9.67,2.12-9.67,5.6,0,2.44,1.79,4.08,4.55,4.08a6.4,6.4,0,0,0,5.24-2.8,3.26,3.26,0,0,0,3.48,2.8,4.17,4.17,0,0,0,3-1.28l.11-.11-.74-.89Zm-5.87-6.43v.63a9.44,9.44,0,0,1-.53,4,3.2,3.2,0,0,1-2.8,1.84,2.18,2.18,0,0,1-2.34-2,2.57,2.57,0,0,1,0-.48C336,40.2,337.78,39,341.69,38.8Z" transform="translate(-1 -1)"/><path class="cls-1" d="M353.53,24.93a2.57,2.57,0,0,0,2.5-2.5,2.52,2.52,0,0,0-2.48-2.53h-.07A2.37,2.37,0,0,0,351,22.17a1.13,1.13,0,0,0,0,.26,2.49,2.49,0,0,0,2.46,2.5Z" transform="translate(-1 -1)"/><polygon class="cls-1" points="354.65 29.53 347.89 29.53 347.89 30.74 350.57 30.74 350.57 44.81 347.89 44.81 347.89 46.02 357.35 46.02 357.35 44.81 354.65 44.81 354.65 29.53"/><path class="cls-1" d="M365.11,36.24c-3.27-.59-3.86-1.07-3.86-2.17a3.05,3.05,0,0,1,3.39-2.65,4.45,4.45,0,0,1,4.43,3.92v.16h1l-.16-5.18H369l-.59,1.27a6,6,0,0,0-3.85-1.4,5,5,0,0,0-5.14,4.88v.33c0,3.27,1.48,4.65,5.71,5.39,3.12.47,3.7,1.22,3.7,2.42a3.22,3.22,0,0,1-3.45,3h-.09c-2.59,0-4.08-1.58-5.07-5.45v-.15h-.9l.1,6.49h.74l.9-1.21a6.16,6.16,0,0,0,4.28,1.63A5.45,5.45,0,0,0,370.78,42c0-.11,0-.23,0-.35C370.77,38.51,369.2,36.92,365.11,36.24Z" transform="translate(-1 -1)"/><rect class="cls-1" x="202.16" width="1.4" height="56.67"/></svg>