<?xml version="1.0" encoding="utf-8"?>
<!-- Generator: Adobe Illustrator 22.0.1, SVG Export Plug-In . SVG Version: 6.00 Build 0)  -->
<svg version="1.1" id="Layer_1" xmlns="http://www.w3.org/2000/svg" xmlns:xlink="http://www.w3.org/1999/xlink" x="0px" y="0px"
	 viewBox="0 0 230.2 45" style="enable-background:new 0 0 230.2 45;" xml:space="preserve">
<style type="text/css">
	.st0{fill:#FFFFFF;}
</style>
<g>
	<g>
		<path class="st0" d="M62.3,20.1c-4.4,0-6.3-3.6-6.3-8.1c0-4.4,2-8.1,6.3-8.1s6.3,3.7,6.3,8.1C68.5,16.5,66.6,20.1,62.3,20.1z
			 M62.3,5.3c-3.2,0-4.4,3.5-4.4,6.7c0,3.2,1,6.7,4.4,6.7c3.3,0,4.3-3.5,4.3-6.7C66.6,8.8,65.5,5.3,62.3,5.3z"/>
		<path class="st0" d="M74,8.7v11.1h-1.8V8.7h-1.8V7.6h1.8V5.9c0-2.2,1.3-3.8,3.9-3.8c0.2,0,0.4,0,0.4,0v1.1h-0.2
			C75.1,3.2,74,4,74,5.7v2h2.5v1.1H74z"/>
		<path class="st0" d="M81.3,8.7v11.1h-1.8V8.7h-1.8V7.6h1.8V5.9c0-2.2,1.3-3.8,3.9-3.8c0.2,0,0.4,0,0.4,0v1.1h-0.2
			c-1.2,0-2.3,0.8-2.3,2.5v2h2.5v1.1H81.3z"/>
		<path class="st0" d="M86.7,5.3c-0.6,0-1.1-0.5-1.1-1.1c0-0.6,0.5-1.1,1.1-1.1c0.6,0,1.1,0.5,1.1,1.1C87.8,4.9,87.3,5.3,86.7,5.3z
			 M85.8,19.8V7.6h1.8v12.2H85.8z"/>
		<path class="st0" d="M95.2,20.1c-2.9,0-5.1-2.5-5.1-6.4c0-4,2.2-6.4,5.2-6.4c1.5,0,2.4,0.4,3,0.8l-0.5,1.1
			c-0.4-0.3-1.1-0.7-2.1-0.7c-2.5,0-3.7,2.1-3.7,5c0,3,1.5,5.1,3.7,5.1c0.9,0,1.7-0.3,2.2-0.7l0.5,1.2
			C97.7,19.7,96.6,20.1,95.2,20.1z"/>
		<path class="st0" d="M101.1,14.5c0.2,2.9,1.8,4.3,4.3,4.3c1.5,0,2.6-0.4,3.3-0.7l0.5,1.2c-0.8,0.4-2.2,0.8-3.9,0.8
			c-3.4,0-5.9-2-5.9-6.4c0-4.2,2.2-6.3,5.3-6.3c3.1,0,5,1.9,5,6L101.1,14.5z M104.6,8.5c-2,0-3.6,1.5-3.6,4.9l6.9-0.9
			C107.9,9.7,106.6,8.5,104.6,8.5z"/>
		<path class="st0" d="M120.9,8.7v11.1h-1.8V8.7h-1.8V7.6h1.8V5.9c0-2.2,1.3-3.8,3.9-3.8c0.2,0,0.4,0,0.4,0v1.1h-0.2
			c-1.2,0-2.3,0.8-2.3,2.5v2h2.5v1.1H120.9z"/>
		<path class="st0" d="M129.9,20.1c-3.6,0-5.2-2.8-5.2-6.4c0-3.6,1.6-6.4,5.2-6.4c3.6,0,5.2,2.8,5.2,6.4
			C135.1,17.3,133.5,20.1,129.9,20.1z M129.9,8.6c-2.7,0-3.4,2.7-3.4,5.2c0,2.5,0.8,5.1,3.4,5.1c2.7,0,3.4-2.6,3.4-5.1
			C133.4,11.2,132.6,8.6,129.9,8.6z"/>
		<path class="st0" d="M142.8,8.8c-1.1-0.3-2.8-0.2-3.5,0.2v10.8h-1.8V8.2c1.3-0.5,2.6-0.8,4.9-0.8c0.3,0,0.7,0,0.9,0L142.8,8.8z"/>
		<path class="st0" d="M66.3,44.4l-6.9-10.6c-0.5-0.8-0.9-1.6-0.9-1.6h0c0,0,0.1,0.9,0.1,1.8v10.4h-2.3V28.9h2.6l6.5,10
			c0.6,0.9,0.9,1.6,0.9,1.6h0c0,0-0.1-0.9-0.1-1.8v-9.8h2.3v15.5H66.3z"/>
		<path class="st0" d="M75.9,44.7c-3.6,0-5.2-1.4-5.2-3.7c0-3.3,3.4-4.2,7.5-4.5v-0.7c0-1.7-1.1-2.2-2.8-2.2c-1.2,0-2.5,0.3-3.3,0.7
			l-0.6-1.5c0.9-0.4,2.4-0.9,4.4-0.9c2.7,0,4.8,1.1,4.8,4.2v7.7C79.6,44.4,77.9,44.7,75.9,44.7z M78.2,37.7c-3,0.3-5,0.9-5,3.2
			c0,1.6,1.2,2.3,3,2.3c0.9,0,1.6-0.2,2-0.4V37.7z"/>
		<path class="st0" d="M87.7,44.7c-2.6,0-3.5-1.6-3.5-3.3v-7.6h-1.7v-1.6h1.7v-2.7l2.6-0.7v3.5h2.4v1.6h-2.4v7.4
			c0,0.9,0.6,1.7,1.7,1.7c0.2,0,0.5,0,0.7-0.1v1.6C88.8,44.5,88.3,44.7,87.7,44.7z"/>
		<path class="st0" d="M92.4,30.2c-0.8,0-1.5-0.6-1.5-1.4c0-0.7,0.7-1.4,1.5-1.4c0.8,0,1.5,0.6,1.5,1.4
			C93.9,29.5,93.3,30.2,92.4,30.2z M91.1,44.4V32.3h2.6v12.2H91.1z"/>
		<path class="st0" d="M101.5,44.7c-3.7,0-5.6-2.8-5.6-6.4s1.8-6.4,5.6-6.4c3.7,0,5.5,2.8,5.5,6.4S105.3,44.7,101.5,44.7z
			 M101.5,33.6c-2.2,0-2.9,2.3-2.9,4.7c0,2.4,0.7,4.6,2.9,4.6c2.2,0,2.9-2.3,2.9-4.6C104.4,36,103.8,33.6,101.5,33.6z"/>
		<path class="st0" d="M116.7,44.4v-8.7c0-1.6-1.3-2.1-2.8-2.1c-0.8,0-1.6,0.2-2.1,0.4v10.5h-2.6V32.8c1.1-0.5,2.9-0.9,4.8-0.9
			c3.2,0,5.3,1.1,5.3,3.7v8.7H116.7z"/>
		<path class="st0" d="M126.6,44.7c-3.6,0-5.2-1.4-5.2-3.7c0-3.3,3.4-4.2,7.5-4.5v-0.7c0-1.7-1.1-2.2-2.8-2.2
			c-1.2,0-2.5,0.3-3.3,0.7l-0.6-1.5c0.8-0.4,2.4-0.9,4.4-0.9c2.7,0,4.8,1.1,4.8,4.2v7.7C130.3,44.4,128.7,44.7,126.6,44.7z
			 M128.9,37.7c-3,0.3-5,0.9-5,3.2c0,1.6,1.2,2.3,3,2.3c0.8,0,1.6-0.2,2-0.4V37.7z"/>
		<path class="st0" d="M134,44.4V26.7h2.6v5.6v12.1H134z"/>
		<path class="st0" d="M149,44.7c-1.9,0-3.4-0.4-4.2-0.9l0.7-1.9c0.6,0.4,1.8,0.7,3,0.7c1.8,0,3.1-1.1,3.1-2.6
			c0-3.4-6.5-2.1-6.5-6.9c0-2.5,2-4.6,5.1-4.6c1.7,0,3,0.5,3.7,0.9l-0.7,1.7c-0.6-0.3-1.6-0.7-2.7-0.7c-1.7,0-2.8,1-2.8,2.5
			c0,3.3,6.6,1.9,6.6,7C154.4,42.7,152.1,44.7,149,44.7z"/>
		<path class="st0" d="M161,44.7c-2.6,0-3.5-1.6-3.5-3.3v-7.6h-1.7v-1.6h1.7v-2.7l2.6-0.7v3.5h2.4v1.6H160v7.4
			c0,0.9,0.6,1.7,1.7,1.7c0.2,0,0.5,0,0.7-0.1v1.6C162.2,44.5,161.6,44.7,161,44.7z"/>
		<path class="st0" d="M169.1,44.7c-3.6,0-5.2-1.4-5.2-3.7c0-3.3,3.4-4.2,7.5-4.5v-0.7c0-1.7-1.1-2.2-2.8-2.2
			c-1.2,0-2.5,0.3-3.3,0.7l-0.6-1.5c0.9-0.4,2.4-0.9,4.4-0.9c2.7,0,4.8,1.1,4.8,4.2v7.7C172.7,44.4,171.1,44.7,169.1,44.7z
			 M171.3,37.7c-3,0.3-5,0.9-5,3.2c0,1.6,1.2,2.3,3,2.3c0.9,0,1.6-0.2,2-0.4V37.7z"/>
		<path class="st0" d="M180.8,44.7c-2.6,0-3.5-1.6-3.5-3.3v-7.6h-1.7v-1.6h1.7v-2.7l2.6-0.7v3.5h2.4v1.6h-2.4v7.4
			c0,0.9,0.6,1.7,1.7,1.7c0.2,0,0.5,0,0.7-0.1v1.6C182,44.5,181.5,44.7,180.8,44.7z"/>
		<path class="st0" d="M185.6,30.2c-0.8,0-1.5-0.6-1.5-1.4c0-0.7,0.7-1.4,1.5-1.4c0.8,0,1.5,0.6,1.5,1.4
			C187.1,29.5,186.4,30.2,185.6,30.2z M184.3,44.4V32.3h2.6v12.2H184.3z"/>
		<path class="st0" d="M192.6,44.7c-1.5,0-2.9-0.4-3.7-0.9l0.7-1.7c0.5,0.4,1.6,0.7,2.7,0.7c1.3,0,2.4-0.9,2.4-1.9
			c0-2.9-5.3-1.5-5.3-5.5c0-1.8,1.6-3.6,4.3-3.6c1.5,0,2.6,0.4,3.4,0.9l-0.7,1.5c-0.4-0.3-1.2-0.7-2.2-0.7c-1.3,0-2.2,0.8-2.2,1.7
			c0,2.7,5.4,1.5,5.4,5.6C197.3,42.9,195.5,44.7,192.6,44.7z"/>
		<path class="st0" d="M203.9,44.7c-2.6,0-3.5-1.6-3.5-3.3v-7.6h-1.7v-1.6h1.7v-2.7l2.6-0.7v3.5h2.4v1.6H203v7.4
			c0,0.9,0.6,1.7,1.7,1.7c0.2,0,0.5,0,0.7-0.1v1.6C205.1,44.5,204.6,44.7,203.9,44.7z"/>
		<path class="st0" d="M208.7,30.2c-0.8,0-1.5-0.6-1.5-1.4c0-0.7,0.7-1.4,1.5-1.4c0.8,0,1.5,0.6,1.5,1.4
			C210.2,29.5,209.5,30.2,208.7,30.2z M207.4,44.4V32.3h2.6v12.2H207.4z"/>
		<path class="st0" d="M217.5,44.7c-3,0-5.3-2.4-5.3-6.4c0-4,2.3-6.4,5.3-6.4c1.5,0,2.5,0.4,3.1,0.9l-0.6,1.5
			c-0.4-0.3-1-0.6-1.9-0.6c-2.1,0-3.2,1.8-3.2,4.6c0,2.8,1.3,4.6,3.2,4.6c0.8,0,1.5-0.3,1.9-0.6l0.6,1.6
			C220.1,44.3,219.1,44.7,217.5,44.7z"/>
		<path class="st0" d="M225.5,44.7c-1.5,0-2.9-0.4-3.7-0.9l0.7-1.7c0.5,0.4,1.6,0.7,2.7,0.7c1.3,0,2.4-0.9,2.4-1.9
			c0-2.9-5.3-1.5-5.3-5.5c0-1.8,1.6-3.6,4.3-3.6c1.5,0,2.6,0.4,3.4,0.9l-0.7,1.5c-0.4-0.3-1.2-0.7-2.2-0.7c-1.3,0-2.2,0.8-2.2,1.7
			c0,2.7,5.4,1.5,5.4,5.6C230.2,42.9,228.4,44.7,225.5,44.7z"/>
	</g>
	<g>
		<path class="st0" d="M0,27.3c0.7-1.4,1.4-2.8,2.2-4.1C1.3,21,0.6,18.8,0,16.5C0,20.2,0,24.2,0,27.3z M4.2,0C4.2,0,0,0,0,5.2
			C0,5.5,0,6.6,0,8c0.4,4.8,1.4,9.4,3.1,13.7c2.4-3.7,5.2-7.1,8.6-10c6.8-5.8,16-9.9,28.4-11.7H4.2z"/>
		<path class="st0" d="M44.8,2.8c-14.2,1.4-24,5.4-30.9,11.4c-3.7,3.2-6.7,7-9.1,11.2C10.2,36.1,20.6,43.9,38,45l1.7,0
			c0,0,5.3,0.2,5.3-5.8V2.8C45,2.8,44.9,2.8,44.8,2.8z M8.2,33.1c-1.6-1.9-3-4-4.2-6.2c-1.5,2.9-2.8,6-4,9.3c0,5.1,0,8.8,0,8.8
			L28.5,45C19.6,42.8,12.9,38.6,8.2,33.1z"/>
	</g>
</g>
</svg>
