<?xml version="1.0" encoding="utf-8"?>
<!-- Generator: Adobe Illustrator 19.2.1, SVG Export Plug-In . SVG Version: 6.00 Build 0)  -->
<svg version="1.1" id="Layer_1" xmlns="http://www.w3.org/2000/svg" xmlns:xlink="http://www.w3.org/1999/xlink" x="0px" y="0px"
	 viewBox="0 0 189.3 90" style="enable-background:new 0 0 189.3 90;" xml:space="preserve">
<g>
	<path d="M3.3,29.2v12.7c0,0,32.7,0,37,0s9.8-4,9.8-10.6c0-2.6,1-4.4-2.1-7.9l-4.7-5.6c-2.7-2.5,0.3-2.5,2.6-2.5
		c1.3,0,15.6,0,15.6,0v26.6h12.4V15.2h16.7V3.9H36.5c-6.6,0-9.8,6.3-9.6,9.6c0.2,3.3,0.8,7.4,6.3,12.4c5,4.5-2.5,3.3-3.2,3.3
		C26.2,29.2,3.3,29.2,3.3,29.2L3.3,29.2z"/>
	<path d="M118,3.9H98L86.8,41.8h12.5l2-5.3h13.2l2,5.3h12.2L118,3.9L118,3.9z M104.1,27.4l4.3-13.9l4,13.9L104.1,27.4L104.1,27.4z"
		/>
	<path d="M168.1,29.2c-4.8,0-4.8-1.8-4.8-1.8c4.1,0,7.8-6,7.8-12.1c0-6.1-6-11.4-10.8-11.4c-4.8,0-26.9,0-26.9,0v37.9H147V29.2
		c0,0,5.8,6.8,8.9,9.6c3,2.8,3.3,3,7.4,3c4.1,0,21.5,0,21.5,0V29.2C184.8,29.2,172.9,29.2,168.1,29.2L168.1,29.2z M155.7,20.3
		c-3.5,0-8.7,0-8.7,0v-6.8c0,0,5.9,0,8.7,0C159.7,13.5,160.4,20.3,155.7,20.3L155.7,20.3z"/>
	<polygon points="3.3,46.6 17.3,46.6 20.9,59.3 24.1,46.6 38.8,46.6 42.6,59.3 46.4,46.6 58.6,46.6 47.4,84.6 36.3,84.6 31.4,66.6 
		25.9,84.6 14.5,84.6 	"/>
	<path d="M87.2,46.8h-20L56.1,84.8h12.5l2-5.3h13.2l2,5.3h12.2L87.2,46.8L87.2,46.8z M73.3,70.4l4.3-13.9l4,13.9H73.3L73.3,70.4z"/>
	<g>
		<path d="M184.8,58V46.6h-25.6c-6.6,0-9.4,6.6-9.2,9.9c0.2,3.3,0.8,7.4,6.3,12.4c5,4.5-2.5,3.3-3.2,3.3c0,0-11.7,0-14.7,0
			c-3,0-4.8-1.8-4.8-1.8c4.1,0,7.8-6,7.8-12.1c0-6.1-6-11.4-10.8-11.4c-4.8,0-26.9,0-26.9,0v37.9h13.7V72.1c0,0,5.8,6.8,8.9,9.6
			c3,2.8,3.3,3,7.4,3l29.9-0.2c4.3,0,10.8-4,10.8-10.6c0-2.6,0.1-4.1-3.1-7.6l-4.7-5.6c-2.7-2.5-0.2-2.8,2-2.8v0H184.8z M125.8,63.3
			c-3.5,0-8.7,0-8.7,0v-6.8c0,0,5.9,0,8.7,0C129.8,56.4,130.5,63.3,125.8,63.3z"/>
	</g>
</g>
</svg>
