<svg width="237" height="47" viewBox="0 0 237 47" xmlns="http://www.w3.org/2000/svg" xmlns:xlink="http://www.w3.org/1999/xlink"><title>logo</title><defs><path id="a" d="M0 .737h236.997V47H0V.737z"/><path id="c" d="M0 .737h236.997V47H0"/><path id="e" d="M0 .737h236.997V47H0V.737z"/></defs><g fill="none" fill-rule="evenodd"><path d="M.014 28.77c3.253-6.73 2.34-1.604.004-11.09-.002 3.826-.004 7.9-.004 11.09" fill="#A8BD39"/><mask id="b" fill="#fff"><use xlink:href="#a"/></mask><path d="M4.353.736C-2.921.717.54 16.296 3.165 23.04c2.426-3.824 5.329-7.298 8.872-10.324 7.014-6 16.46-10.155 29.276-11.98H4.353z" fill="#A8BD39" mask="url(#b)"/><path d="M8.465 34.722a37.378 37.378 0 0 1-4.363-6.358c-1.57 2.97-2.905 6.161-4.077 9.538v9.022l29.3.053c-9.139-2.191-15.986-6.549-20.86-12.255" fill="#033E58"/><mask id="d" fill="#fff"><use xlink:href="#c"/></mask><path d="M46.15 3.663C31.487 5.059 21.475 9.239 14.303 15.361c-3.848 3.288-6.9 7.167-9.4 11.548 7.122 13.806 21.388 20.067 35.976 20.09 0 0 5.499.185 5.499-5.922V3.617c-.073.018-.149.038-.228.046" fill="#033E58" mask="url(#d)"/><path d="M64.103 19.94c-3.417 0-4.485-3.594-4.485-6.864 0-3.316 1.174-6.935 4.485-6.935 3.308 0 4.462 3.619 4.462 6.935 0 3.27-1.024 6.865-4.462 6.865m0-15.1c-4.485 0-6.492 3.758-6.492 8.28 0 4.569 2.007 8.281 6.492 8.281 4.483 0 6.469-3.712 6.469-8.28 0-4.523-1.986-8.281-6.47-8.281M74.334 21.1h1.814V9.712h2.606V8.599h-2.606c0-2.084-.363-4.546 2.606-4.546v-1.16c-4.998-.5-4.42 4.43-4.42 5.706h-1.857v1.113h1.857V21.1zM86.251 8.6h-2.606c0-2.525-.193-4.547 2.606-4.547v-1.16c-5-.503-4.42 4.422-4.42 5.706h-1.858v1.113h1.858v11.389h1.814V9.712h2.606V8.6zM89.243 6.21c1.548 0 1.505-2.248 0-2.248-1.507 0-1.546 2.248 0 2.248" fill="#08446A"/><mask id="f" fill="#fff"><use xlink:href="#e"/></mask><path d="M88.325 21.1h1.836V8.6h-1.836v12.5zM100.604 19.336a3.974 3.974 0 0 1-2.22.674c-4.972 0-5.216-10.414.064-10.414 1.003 0 1.77.372 2.177.673l.47-1.113c-.534-.442-1.538-.858-3.054-.858-7.19 0-7.027 13.104-.062 13.104 1.514 0 2.582-.418 3.116-.859l-.49-1.207zM107.695 9.48c2.008 0 3.396 1.206 3.396 4.106l-7.112.974c-.02-3.504 1.687-5.08 3.716-5.08m-3.63 6.123l8.819-1.182c0-4.175-1.943-6.123-5.125-6.123-3.139 0-5.445 2.227-5.445 6.516 0 8.18 7.954 6.912 10.08 5.73l-.535-1.276c-2.343 1.272-7.375 1.62-7.794-3.665M127.11 8.6h-2.605c0-2.6-.164-4.547 2.605-4.547v-1.16c-4.995-.5-4.42 4.414-4.42 5.706h-1.859v1.113h1.858v11.389h1.816V9.712h2.605V8.6zM133.751 20.08c-2.668 0-3.524-2.645-3.524-5.22 0-2.573.791-5.334 3.524-5.334 2.734 0 3.523 2.761 3.523 5.335s-.789 5.218-3.523 5.218m0-11.781c-3.695 0-5.38 2.875-5.38 6.563 0 3.688 1.685 6.54 5.38 6.54s5.361-2.852 5.361-6.54-1.666-6.563-5.36-6.563M141.526 9.156V21.1h1.837V9.99c.79-.487 2.477-.533 3.63-.23l.47-1.44c-.905-.104-3.723-.095-5.937.836M68.245 42.362h-.043c-.442-.961-.507-.987-7.666-11.922H57.91v15.956h2.327c0-11.242.02-11.31-.064-12.546h.043c.485 1.024.376.786 8.007 12.546h2.285V30.44H68.16c0 10.656-.028 10.734.085 11.922M80.462 44.797c-1.248.615-5.168.988-5.168-1.995 0-2.413 2.072-2.992 5.168-3.317v5.312zm-6.897-10.322l.62 1.532c.79-.372 2.178-.72 3.394-.72 3.1 0 2.883 1.748 2.883 2.947-4.186.37-7.708 1.275-7.708 4.636 0 2.39 1.73 3.852 5.402 3.852 2.073 0 3.758-.37 4.826-.906v-7.908c0-5.499-6.459-4.68-9.417-3.433zM89.282 30.348l-2.669.742v2.806h-1.752v1.623h1.752v7.769c0 1.694 1.003 3.386 3.63 3.386.684 0 1.217-.139 1.474-.255v-1.646c-1.515.41-2.435-.382-2.435-1.624v-7.63h2.435v-1.623h-2.435v-3.548zM93.811 46.396h2.69v-12.5h-2.69v12.5zM95.156 28.956c-2.06 0-2.058 2.784 0 2.784s2.062-2.784 0-2.784M104.531 44.888c-2.264 0-2.99-2.32-2.99-4.754 0-2.435.685-4.848 2.99-4.848 2.306 0 2.988 2.413 2.988 4.848s-.682 4.754-2.988 4.754m0-11.317c-3.823 0-5.722 2.854-5.722 6.586 0 3.734 1.899 6.565 5.722 6.565 3.824 0 5.702-2.83 5.702-6.565 0-3.732-1.878-6.586-5.702-6.586M112.436 34.475v11.922h2.668V35.634c1.515-.616 5.062-.753 5.062 1.833v8.93h2.69V37.42c0-5.093-7.83-4.07-10.42-2.945M132.68 44.797c-1.256.62-5.168.983-5.168-1.995 0-2.413 2.072-2.992 5.168-3.317v5.312zm-6.896-10.322l.619 1.532c1.457-.686 6.277-1.748 6.277 1.507v.72c-4.186.37-7.708 1.275-7.708 4.636 0 2.39 1.73 3.852 5.403 3.852 2.07 0 3.759-.37 4.827-.906v-7.908c0-5.501-6.468-4.679-9.418-3.433zM137.958 46.396h2.67V28.19h-2.67v18.207zM152.14 34.544c0-2.722 3.418-3.13 5.658-1.785l.683-1.74c-3.551-2.094-9.141-.638-9.141 3.826 0 4.965 6.644 3.62 6.644 7.122 0 1.577-1.324 2.667-3.182 2.667-1.24 0-2.434-.394-3.075-.766l-.747 1.948c.875.487 2.434.906 4.354.906 3.268 0 5.594-2.111 5.594-4.942 0-5.288-6.788-3.802-6.788-7.236M164.742 30.348l-2.67.742v2.806h-1.75v1.623h1.75v7.769c0 1.694 1.004 3.386 3.63 3.386.683 0 1.218-.139 1.473-.255v-1.646c-.255.07-.469.115-.726.115-1.13 0-1.707-.764-1.707-1.739v-7.63h2.433v-1.623h-2.433v-3.548zM176.337 44.797c-.467.232-1.217.418-2.092.418-1.878 0-3.074-.721-3.074-2.413 0-2.413 2.07-2.992 5.166-3.317v5.312zm-2.391-11.226c-1.985 0-3.63.535-4.507.904l.62 1.532c.79-.372 2.178-.72 3.395-.72 3.1 0 2.883 1.75 2.883 2.947-4.184.37-7.708 1.275-7.708 4.636 0 2.39 1.729 3.852 5.402 3.852 2.072 0 3.757-.37 4.827-.906v-7.908c0-3.201-2.136-4.337-4.912-4.337zM185.158 30.348l-2.67.742v2.806h-1.75v1.623h1.75v7.769c0 1.694 1.005 3.386 3.631 3.386.684 0 1.218-.139 1.472-.255v-1.646c-1.505.411-2.433-.378-2.433-1.624v-7.63h2.433v-1.623h-2.433v-3.548zM191.03 28.956c-2.056 0-2.06 2.784 0 2.784 2.063 0 2.062-2.784 0-2.784M189.686 46.396h2.692v-12.5h-2.692v12.5zM197.502 37.095c0-1.727 2.523-2.432 4.528-1.067l.704-1.553c-3.197-1.911-7.9-.712-7.9 2.761 0 4.081 5.489 2.69 5.489 5.659 0 2.162-3.423 2.437-5.19 1.204l-.706 1.717c.747.464 2.223.905 3.78.905 2.99 0 4.891-1.901 4.891-3.897 0-4.174-5.596-2.945-5.596-5.73M208.932 30.348l-2.67.742v2.806h-1.75v1.623h1.75v7.769c0 1.694 1.006 3.386 3.63 3.386.683 0 1.218-.139 1.473-.255v-1.646c-1.507.41-2.433-.378-2.433-1.624v-7.63h2.433v-1.623h-2.433v-3.548zM214.806 28.956c-2.059 0-2.062 2.784 0 2.784 2.06 0 2.064-2.784 0-2.784M213.461 46.396h2.69v-12.5h-2.69v12.5zM224.501 44.797c-4.318 0-4.513-9.417.042-9.417.897 0 1.58.324 1.965.602l.598-1.507c-.598-.462-1.644-.904-3.203-.904-7.305 0-7.27 13.15-.02 13.15 1.6 0 2.689-.441 3.244-.905l-.662-1.646a3.378 3.378 0 0 1-1.964.627M231.4 37.095c0-1.735 2.536-2.427 4.527-1.067l.706-1.553c-.855-.51-1.986-.905-3.523-.905-2.714 0-4.378 1.81-4.378 3.666 0 4.081 5.487 2.69 5.487 5.659 0 2.162-3.42 2.436-5.189 1.204l-.705 1.717c.747.464 2.221.905 3.78.905 2.99 0 4.891-1.901 4.891-3.897 0-4.174-5.596-2.945-5.596-5.73" fill="#08446A" mask="url(#f)"/></g></svg>