<svg width="221" height="51" viewBox="0 0 221 51" xmlns="http://www.w3.org/2000/svg"><title>logo-english</title><desc>Created with Sketch.</desc><defs><linearGradient x1=".006%" y1="49.995%" x2="100.031%" y2="49.995%" id="a"><stop stop-color="#783D8F" offset="0%"></stop><stop stop-color="#682782" offset="100%"></stop></linearGradient><linearGradient x1="38.301%" y1="-29.909%" x2="51.468%" y2="58.898%" id="b"><stop stop-color="#fff" offset="0%"></stop><stop stop-color="#fff" stop-opacity=".8" offset="100%"></stop></linearGradient><linearGradient x1="34.287%" y1="7.026%" x2="68.227%" y2="63.417%" id="c"><stop stop-color="#fff" offset="0%"></stop><stop stop-color="#fff" stop-opacity=".8" offset="100%"></stop></linearGradient><linearGradient x1="63.636%" y1="68.75%" x2="35.364%" y2="29.593%" id="d"><stop stop-color="#fff" offset="0%"></stop><stop stop-color="#fff" stop-opacity=".8" offset="100%"></stop></linearGradient><linearGradient x1="82.829%" y1="49.905%" x2="1.319%" y2="49.905%" id="e"><stop stop-color="#fff" offset="0%"></stop><stop stop-color="#fff" stop-opacity=".5" offset="100%"></stop></linearGradient><linearGradient x1="50.059%" y1="1.862%" x2="50.059%" y2="97.165%" id="f"><stop stop-color="#1E1E1C" offset="0%"></stop><stop stop-color="#1E1E1C" stop-opacity="0" offset="100%"></stop></linearGradient><linearGradient x1="-.889%" y1="49.88%" x2="99.653%" y2="49.88%" id="g"><stop stop-color="#fff" offset="0%"></stop><stop stop-color="#fff" stop-opacity=".8" offset="100%"></stop></linearGradient><linearGradient x1="2.944%" y1="49.922%" x2="97.95%" y2="49.922%" id="h"><stop stop-color="#1E1E1C" offset="0%"></stop><stop stop-color="#1E1E1C" stop-opacity="0" offset="100%"></stop></linearGradient></defs><g fill="none"><path d="M67.968 31.968c.128 0 .256.024.384.072.128.048.251.131.368.248l2.144 2.256c-.939 1.227-2.115 2.152-3.528 2.776-1.413.624-3.085.936-5.016.936-1.771 0-3.357-.301-4.76-.904-1.403-.603-2.592-1.435-3.568-2.496s-1.725-2.32-2.248-3.776c-.523-1.456-.784-3.037-.784-4.744 0-1.739.283-3.336.848-4.792s1.36-2.712 2.384-3.768c1.024-1.056 2.251-1.877 3.68-2.464 1.429-.587 3.003-.88 4.72-.88.875 0 1.699.077 2.472.232.773.155 1.496.368 2.168.64.672.272 1.291.6 1.856.984.565.384 1.067.8 1.504 1.248l-1.824 2.448c-.117.149-.256.285-.416.408-.16.123-.384.184-.672.184-.192 0-.373-.043-.544-.128-.171-.085-.352-.189-.544-.312l-.632-.4c-.229-.144-.501-.277-.816-.4-.315-.123-.683-.227-1.104-.312-.421-.085-.915-.128-1.48-.128-.896 0-1.715.165-2.456.496-.741.331-1.381.813-1.92 1.448-.539.635-.955 1.413-1.248 2.336-.293.923-.44 1.976-.44 3.16 0 1.195.163 2.256.488 3.184.325.928.768 1.709 1.328 2.344.56.635 1.213 1.117 1.96 1.448.747.331 1.547.496 2.4.496.491 0 .939-.024 1.344-.072.405-.048.784-.128 1.136-.24.352-.112.683-.261.992-.448.309-.187.624-.424.944-.712.128-.107.267-.195.416-.264.149-.069.304-.104.464-.104zm14.886-4.256c0-.395-.051-.779-.152-1.152-.101-.373-.267-.707-.496-1-.229-.293-.531-.531-.904-.712-.373-.181-.827-.272-1.36-.272-.939 0-1.675.269-2.208.808-.533.539-.885 1.315-1.056 2.328h6.176zm-6.24 2.88c.16 1.387.581 2.392 1.264 3.016.683.624 1.563.936 2.64.936.576 0 1.072-.069 1.488-.208.416-.139.787-.293 1.112-.464l.896-.464c.272-.139.557-.208.856-.208.395 0 .693.144.896.432l1.44 1.776c-.512.587-1.064 1.064-1.656 1.432-.592.368-1.2.656-1.824.864-.624.208-1.248.352-1.872.432-.624.08-1.219.12-1.784.12-1.163 0-2.253-.189-3.272-.568-1.019-.379-1.909-.941-2.672-1.688-.763-.747-1.365-1.675-1.808-2.784-.443-1.109-.664-2.4-.664-3.872 0-1.109.189-2.16.568-3.152.379-.992.923-1.861 1.632-2.608.709-.747 1.568-1.339 2.576-1.776 1.008-.437 2.147-.656 3.416-.656 1.099 0 2.104.171 3.016.512.912.341 1.696.837 2.352 1.488.656.651 1.168 1.448 1.536 2.392.368.944.552 2.013.552 3.208 0 .373-.016.677-.048.912s-.091.421-.176.56c-.085.139-.2.235-.344.288-.144.053-.328.08-.552.08h-9.568zm17.974-7.392c.32-.299.651-.576.992-.832.341-.256.707-.472 1.096-.648.389-.176.811-.315 1.264-.416.453-.101.947-.152 1.48-.152.907 0 1.709.157 2.408.472.699.315 1.288.752 1.768 1.312s.843 1.227 1.088 2c.245.773.368 1.613.368 2.52v10.544h-4.96v-10.544c0-.811-.187-1.443-.56-1.896-.373-.453-.923-.68-1.648-.68-.544 0-1.053.115-1.528.344-.475.229-.936.541-1.384.936v11.84h-4.96v-16.592h3.072c.619 0 1.024.277 1.216.832l.288.96zm24.438 1.84c-.128.203-.264.347-.408.432-.144.085-.328.128-.552.128-.235 0-.469-.051-.704-.152l-.76-.328c-.272-.117-.579-.227-.92-.328-.341-.101-.731-.152-1.168-.152-.629 0-1.112.12-1.448.36-.336.24-.504.573-.504 1 0 .309.109.565.328.768.219.203.509.381.872.536.363.155.773.301 1.232.44.459.139.928.293 1.408.464.48.171.949.371 1.408.6.459.229.869.512 1.232.848.363.336.653.744.872 1.224.219.48.328 1.056.328 1.728 0 .821-.149 1.579-.448 2.272-.299.693-.744 1.291-1.336 1.792-.592.501-1.323.891-2.192 1.168-.869.277-1.869.416-3 .416-.565 0-1.131-.053-1.696-.16-.565-.107-1.112-.251-1.64-.432-.528-.181-1.016-.397-1.464-.648-.448-.251-.832-.52-1.152-.808l1.152-1.824c.128-.213.291-.381.488-.504s.451-.184.76-.184c.288 0 .547.064.776.192l.744.416c.267.149.579.288.936.416.357.128.808.192 1.352.192.384 0 .709-.04.976-.12.267-.08.48-.189.64-.328.16-.139.277-.293.352-.464.075-.171.112-.347.112-.528 0-.331-.112-.603-.336-.816-.224-.213-.517-.397-.88-.552-.363-.155-.776-.299-1.24-.432-.464-.133-.936-.285-1.416-.456-.48-.171-.952-.376-1.416-.616-.464-.24-.877-.544-1.24-.912s-.656-.819-.88-1.352c-.224-.533-.336-1.179-.336-1.936 0-.704.136-1.373.408-2.008.272-.635.68-1.192 1.224-1.672.544-.48 1.227-.861 2.048-1.144.821-.283 1.781-.424 2.88-.424.597 0 1.176.053 1.736.16.56.107 1.085.256 1.576.448.491.192.939.419 1.344.68.405.261.763.547 1.072.856l-1.12 1.744zm18.822-3.632v16.592h-3.072c-.619 0-1.024-.277-1.216-.832l-.288-.96c-.32.309-.651.589-.992.84-.341.251-.707.464-1.096.64-.389.176-.811.315-1.264.416-.453.101-.947.152-1.48.152-.907 0-1.709-.157-2.408-.472-.699-.315-1.288-.755-1.768-1.32-.48-.565-.843-1.232-1.088-2-.245-.768-.368-1.611-.368-2.528v-10.528h4.96v10.528c0 .821.187 1.456.56 1.904.373.448.923.672 1.648.672.544 0 1.053-.115 1.528-.344.475-.229.936-.541 1.384-.936v-11.824h4.96zm14.134 3.632c-.128.203-.264.347-.408.432-.144.085-.328.128-.552.128-.235 0-.469-.051-.704-.152l-.76-.328c-.272-.117-.579-.227-.92-.328-.341-.101-.731-.152-1.168-.152-.629 0-1.112.12-1.448.36-.336.24-.504.573-.504 1 0 .309.109.565.328.768.219.203.509.381.872.536.363.155.773.301 1.232.44.459.139.928.293 1.408.464.48.171.949.371 1.408.6.459.229.869.512 1.232.848.363.336.653.744.872 1.224.219.48.328 1.056.328 1.728 0 .821-.149 1.579-.448 2.272-.299.693-.744 1.291-1.336 1.792-.592.501-1.323.891-2.192 1.168-.869.277-1.869.416-3 .416-.565 0-1.131-.053-1.696-.16-.565-.107-1.112-.251-1.64-.432-.528-.181-1.016-.397-1.464-.648-.448-.251-.832-.52-1.152-.808l1.152-1.824c.128-.213.291-.381.488-.504s.451-.184.76-.184c.288 0 .547.064.776.192l.744.416c.267.149.579.288.936.416.357.128.808.192 1.352.192.384 0 .709-.04.976-.12.267-.08.48-.189.64-.328.16-.139.277-.293.352-.464.075-.171.112-.347.112-.528 0-.331-.112-.603-.336-.816-.224-.213-.517-.397-.88-.552-.363-.155-.776-.299-1.24-.432-.464-.133-.936-.285-1.416-.456-.48-.171-.952-.376-1.416-.616-.464-.24-.877-.544-1.24-.912s-.656-.819-.88-1.352c-.224-.533-.336-1.179-.336-1.936 0-.704.136-1.373.408-2.008.272-.635.68-1.192 1.224-1.672.544-.48 1.227-.861 2.048-1.144.821-.283 1.781-.424 2.88-.424.597 0 1.176.053 1.736.16.56.107 1.085.256 1.576.448.491.192.939.419 1.344.68.405.261.763.547 1.072.856l-1.12 1.744zm27.916-6.064h-6.56v19.024h-5.408v-19.024h-6.56v-4.288h18.528v4.288zm8.918 8.736c0-.395-.051-.779-.152-1.152-.101-.373-.267-.707-.496-1-.229-.293-.531-.531-.904-.712-.373-.181-.827-.272-1.36-.272-.939 0-1.675.269-2.208.808-.533.539-.885 1.315-1.056 2.328h6.176zm-6.24 2.88c.16 1.387.581 2.392 1.264 3.016.683.624 1.563.936 2.64.936.576 0 1.072-.069 1.488-.208.416-.139.787-.293 1.112-.464l.896-.464c.272-.139.557-.208.856-.208.395 0 .693.144.896.432l1.44 1.776c-.512.587-1.064 1.064-1.656 1.432-.592.368-1.2.656-1.824.864-.624.208-1.248.352-1.872.432-.624.08-1.219.12-1.784.12-1.163 0-2.253-.189-3.272-.568-1.019-.379-1.909-.941-2.672-1.688-.763-.747-1.365-1.675-1.808-2.784-.443-1.109-.664-2.4-.664-3.872 0-1.109.189-2.16.568-3.152.379-.992.923-1.861 1.632-2.608.709-.747 1.568-1.339 2.576-1.776 1.008-.437 2.147-.656 3.416-.656 1.099 0 2.104.171 3.016.512.912.341 1.696.837 2.352 1.488.656.651 1.168 1.448 1.536 2.392.368.944.552 2.013.552 3.208 0 .373-.016.677-.048.912s-.091.421-.176.56c-.085.139-.2.235-.344.288-.144.053-.328.08-.552.08h-9.568zm23.942-5.552c-.128.203-.264.347-.408.432-.144.085-.328.128-.552.128-.235 0-.469-.051-.704-.152l-.76-.328c-.272-.117-.579-.227-.92-.328-.341-.101-.731-.152-1.168-.152-.629 0-1.112.12-1.448.36-.336.24-.504.573-.504 1 0 .309.109.565.328.768.219.203.509.381.872.536.363.155.773.301 1.232.44.459.139.928.293 1.408.464.48.171.949.371 1.408.6.459.229.869.512 1.232.848.363.336.653.744.872 1.224.219.48.328 1.056.328 1.728 0 .821-.149 1.579-.448 2.272-.299.693-.744 1.291-1.336 1.792-.592.501-1.323.891-2.192 1.168-.869.277-1.869.416-3 .416-.565 0-1.131-.053-1.696-.16-.565-.107-1.112-.251-1.64-.432-.528-.181-1.016-.397-1.464-.648-.448-.251-.832-.52-1.152-.808l1.152-1.824c.128-.213.291-.381.488-.504s.451-.184.76-.184c.288 0 .547.064.776.192l.744.416c.267.149.579.288.936.416.357.128.808.192 1.352.192.384 0 .709-.04.976-.12.267-.08.48-.189.64-.328.16-.139.277-.293.352-.464.075-.171.112-.347.112-.528 0-.331-.112-.603-.336-.816-.224-.213-.517-.397-.88-.552-.363-.155-.776-.299-1.24-.432-.464-.133-.936-.285-1.416-.456-.48-.171-.952-.376-1.416-.616-.464-.24-.877-.544-1.24-.912s-.656-.819-.88-1.352c-.224-.533-.336-1.179-.336-1.936 0-.704.136-1.373.408-2.008.272-.635.68-1.192 1.224-1.672.544-.48 1.227-.861 2.048-1.144.821-.283 1.781-.424 2.88-.424.597 0 1.176.053 1.736.16.56.107 1.085.256 1.576.448.491.192.939.419 1.344.68.405.261.763.547 1.072.856l-1.12 1.744zm9.878 13.216c-.789 0-1.485-.115-2.088-.344-.603-.229-1.109-.555-1.52-.976-.411-.421-.723-.931-.936-1.528-.213-.597-.32-1.264-.32-2v-8.576h-1.408c-.256 0-.475-.083-.656-.248-.181-.165-.272-.408-.272-.728v-1.936l2.64-.512.976-4.048c.128-.512.491-.768 1.088-.768h2.592v4.848h4.112v3.392h-4.112v8.24c0 .384.093.701.28.952.187.251.456.376.808.376.181 0 .333-.019.456-.056.123-.037.229-.08.32-.128l.256-.128c.08-.037.173-.056.28-.056.149 0 .269.035.36.104.091.069.184.179.28.328l1.504 2.352c-.64.48-1.36.84-2.16 1.08-.8.24-1.627.36-2.48.36z" fill="#fff"></path><g><g><path d="M25.197 32.744v5.1h-12.16v-25.094h12.102v5.1h12.628v-5.158l-12.628-12.46h-12.16c-.935.927-12.102 12.055-12.569 12.518v25.21l12.628 12.46v-.058h12.102l12.628-12.518h.058v-5.1h-12.628z" opacity=".61" id="Shape" fill="url(#a)"></path><path id="Shape" fill="url(#b)" d="M25.255 32.686h12.628v5.1h-12.628z"></path><path id="Shape" fill="url(#c)" d="M.468 37.844l12.628 12.518v-37.67h-12.628z"></path><path id="Shape" fill="url(#d)" d="M37.825 37.786l-12.628 12.518h-12.102v-12.518z"></path><path id="Shape" fill="url(#e)" d="M25.197 17.792h12.628v-5.216l-12.628-12.402z"></path><path d="M25.197 12.692h-24.788c6.138 2.26 18.006 2.55 24.788 0z" opacity=".47" id="Shape" fill="url(#f)"></path><path id="Shape" fill="url(#g)" d="M25.197.174h-12.16l-12.569 12.518h24.788z"></path><path d="M14.44 32.223c-.234-5.448-.643-11.069-1.345-15.416v33.556c.877-6.549 1.578-13.156 1.345-18.14z" opacity=".47" fill="url(#h)"></path></g><path d="M5.482 36.77c-.457-.484-.8-1.038-.8-1.453 0-.346.194-.646.629-.646.503 0 .8.254 1.326.715l2.675 2.387h1.154v-5.373h-1.543v2.675l-1.589-1.43c-.754-.68-1.395-1.015-2.24-1.015-1.28 0-2.138.807-2.138 2.387 0 1.049.514 2.064 1.257 2.813l1.269-1.061zm-2.526-7.593c0 1.695 1.143 2.848 3.795 2.848 2.64 0 3.818-.911 3.818-2.779 0-1.81-1.109-2.837-3.852-2.837-2.64 0-3.761 1.038-3.761 2.767zm6.104.046c0 .519-.549.865-2.195.865-1.829 0-2.355-.334-2.355-.888 0-.519.492-.865 2.229-.865 1.84 0 2.32.369 2.32.888zm-.034-4.077h1.44v-4.393h-1.44v1.199h-4.515l-1.406-.115v1.603l1.44 2.375 1.257-.715-.606-1.211h3.829v1.257zm-4.355-4.918v-2.767c1.772 1.695 3.681 1.868 4.984 1.868h.812v-2.029h-.72c-.994 0-3.532-.035-5.384-2.329h-1.257v5.258h1.566z" fill="#752590"></path></g></g></svg>
