
<?xml version="1.0" encoding="UTF-8" standalone="no"?>
<svg width="237px" height="47px" viewBox="0 0 237 47" version="1.1" xmlns="http://www.w3.org/2000/svg" xmlns:xlink="http://www.w3.org/1999/xlink" xmlns:sketch="http://www.bohemiancoding.com/sketch/ns">
    <!-- Generator: Sketch 3.5.1 (25234) - http://www.bohemiancoding.com/sketch -->
    <title>logo</title>
    <desc>Created with Sketch.</desc>
    <defs>
        <path id="path-1" d="M0,0.736634615 L236.996587,0.736634615 L236.996587,47 L0,47 L0,0.736634615 Z"></path>
        <path id="path-3" d="M0,0.736634615 L236.996587,0.736634615 L236.996587,47 L0,47"></path>
        <path id="path-5" d="M0,0.736634615 L236.996587,0.736634615 L236.996587,47 L0,47 L0,0.736634615 Z"></path>
    </defs>
    <g id="Welcome" stroke="none" stroke-width="1" fill="none" fill-rule="evenodd" sketch:type="MSPage">
        <g id="Home" sketch:type="MSArtboardGroup" transform="translate(-305.000000, -155.000000)">
            <g id="logo" sketch:type="MSLayerGroup" transform="translate(305.000000, 155.000000)">
                <path d="M0.0139357591,28.7704173 C3.26712109,22.0403788 2.35315247,27.1660904 0.0184603562,17.6793212 C0.015745598,21.5062058 0.0139357591,25.5798404 0.0139357591,28.7704173" id="Fill-1" fill="#A8BD39" sketch:type="MSShapeGroup"></path>
                <g id="Group-5">
                    <mask id="mask-2" sketch:name="Clip 4" fill="white">
                        <use xlink:href="#path-1"></use>
                    </mask>
                    <g id="Clip-4"></g>
                    <path d="M4.35266243,0.736453846 C-2.9210799,0.717473077 0.540236896,16.2952615 3.16540814,23.0397615 C5.5905922,19.2155885 8.49357371,15.7421077 12.0372382,12.7160308 C19.0512686,6.7163 28.4968176,2.56131923 41.3131913,0.736453846 L4.35266243,0.736453846 Z" id="Fill-3" fill="#A8BD39" sketch:type="MSShapeGroup" mask="url(#mask-2)"></path>
                </g>
                <path d="M8.46479727,34.7221538 C6.77893238,32.7508654 5.3355859,30.6159808 4.10218073,28.3645 C2.53214553,31.3345385 1.19738938,34.5251154 0.0246138083,37.9018846 L0.0246138083,46.9240769 L29.3240949,46.9774038 C20.1862186,44.7855769 13.3386933,40.4281346 8.46479727,34.7221538" id="Fill-6" fill="#033E58" sketch:type="MSShapeGroup"></path>
                <g id="Group-10">
                    <mask id="mask-4" sketch:name="Clip 9" fill="white">
                        <use xlink:href="#path-3"></use>
                    </mask>
                    <g id="Clip-9"></g>
                    <path d="M46.1496237,3.66301731 C31.4872143,5.05855577 21.4751858,9.23884423 14.3027944,15.3614981 C10.455077,18.6487865 7.40368875,22.5280942 4.90339639,26.9090365 C12.0251122,40.7152865 26.291167,46.9762288 40.879373,46.9997288 C40.879373,46.9997288 46.3776634,47.1841135 46.3776634,41.076825 L46.3776634,3.61692115 C46.3052698,3.63499808 46.2292566,3.65488269 46.1496237,3.66301731" id="Fill-8" fill="#033E58" sketch:type="MSShapeGroup" mask="url(#mask-4)"></path>
                </g>
                <path d="M64.1027726,19.9405635 C60.6857969,19.9405635 59.6179919,16.3459673 59.6179919,13.0758519 C59.6179919,9.75964038 60.7916724,6.14064038 64.1027726,6.14064038 C67.411158,6.14064038 68.5649303,9.75964038 68.5649303,13.0758519 C68.5649303,16.3459673 67.5405615,19.9405635 64.1027726,19.9405635 M64.1027726,4.84090962 C59.6179919,4.84090962 57.6108807,8.59910192 57.6108807,13.1219481 C57.6108807,17.6899865 59.6179919,21.4020827 64.1027726,21.4020827 C68.5857434,21.4020827 70.5720416,17.6899865 70.5720416,13.1219481 C70.5720416,8.59910192 68.5857434,4.84090962 64.1027726,4.84090962" id="Fill-11" fill="#08446A" sketch:type="MSShapeGroup"></path>
                <path d="M74.3336106,21.1002885 L76.1479741,21.1002885 L76.1479741,9.71182692 L78.754142,9.71182692 L78.754142,8.59919231 L76.1479741,8.59919231 C76.1479741,6.51492308 75.7851014,4.05284615 78.754142,4.05284615 L78.754142,2.89321154 C73.756272,2.39338462 74.3336106,7.32205769 74.3336106,8.59919231 L72.476716,8.59919231 L72.476716,9.71182692 L74.3336106,9.71182692 L74.3336106,21.1002885 Z" id="Fill-13" fill="#08446A" sketch:type="MSShapeGroup"></path>
                <path d="M86.2513994,8.59946346 L83.6452315,8.59946346 C83.6452315,6.07502115 83.4524836,4.05311731 86.2513994,4.05311731 L86.2513994,2.89348269 C81.2508147,2.39004038 81.830868,7.31509808 81.830868,8.59946346 L79.9730685,8.59946346 L79.9730685,9.71209808 L81.830868,9.71209808 L81.830868,21.1005596 L83.6452315,21.1005596 L83.6452315,9.71209808 L86.2513994,9.71209808 L86.2513994,8.59946346 Z" id="Fill-15" fill="#08446A" sketch:type="MSShapeGroup"></path>
                <path d="M89.2427011,6.21041731 C90.7910182,6.21041731 90.7475821,3.96164808 89.2427011,3.96164808 C87.7360102,3.96164808 87.6970987,6.21041731 89.2427011,6.21041731" id="Fill-17" fill="#08446A" sketch:type="MSShapeGroup"></path>
                <mask id="mask-6" sketch:name="Clip 20" fill="white">
                    <use xlink:href="#path-5"></use>
                </mask>
                <g id="Clip-20"></g>
                <path d="M88.3246603,21.1002885 L90.1607418,21.1002885 L90.1607418,8.59919231 L88.3246603,8.59919231 L88.3246603,21.1002885 Z" id="Fill-19" fill="#08446A" sketch:type="MSShapeGroup" mask="url(#mask-6)"></path>
                <path d="M100.604145,19.3363423 C100.091056,19.6852269 99.3218746,20.0097077 98.3834731,20.0097077 C93.4118458,20.0097077 93.1675176,9.59649615 98.4477224,9.59649615 C99.4512781,9.59649615 100.21865,9.96797692 100.624959,10.2689577 L101.094612,9.15632308 C100.560709,8.71434231 99.5571536,8.29766923 98.0414136,8.29766923 C90.8509239,8.29766923 91.0138094,21.4016308 97.9789742,21.4016308 C99.4929044,21.4016308 100.560709,20.9840538 101.094612,20.5429769 L100.604145,19.3363423 Z" id="Fill-21" fill="#08446A" sketch:type="MSShapeGroup" mask="url(#mask-6)"></path>
                <path d="M107.695004,9.48008077 C109.70302,9.48008077 111.091166,10.6858115 111.091166,13.5862538 L103.979404,14.5596962 C103.958591,11.0563885 105.666174,9.48008077 107.695004,9.48008077 M104.065372,15.6027346 L112.883811,14.4205038 C112.883811,10.2456385 110.940949,8.29785 107.759253,8.29785 C104.620087,8.29785 102.314353,10.5249269 102.314353,14.8136769 C102.314353,22.9934846 110.267689,21.7262923 112.39425,20.5431577 L111.858538,19.2678308 C109.515701,20.5404462 104.484349,20.8884269 104.065372,15.6027346" id="Fill-22" fill="#08446A" sketch:type="MSShapeGroup" mask="url(#mask-6)"></path>
                <path d="M127.109597,8.59946346 L124.505239,8.59946346 C124.505239,5.99909808 124.341449,4.05311731 127.109597,4.05311731 L127.109597,2.89348269 C122.115347,2.39365577 122.689066,7.30696346 122.689066,8.59946346 L120.831266,8.59946346 L120.831266,9.71209808 L122.689066,9.71209808 L122.689066,21.1005596 L124.505239,21.1005596 L124.505239,9.71209808 L127.109597,9.71209808 L127.109597,8.59946346 Z" id="Fill-23" fill="#08446A" sketch:type="MSShapeGroup" mask="url(#mask-6)"></path>
                <path d="M133.751253,20.0794846 C131.082646,20.0794846 130.227497,17.4348308 130.227497,14.8606769 C130.227497,12.2874269 131.018397,9.52617692 133.751253,9.52617692 C136.485015,9.52617692 137.274105,12.2874269 137.274105,14.8606769 C137.274105,17.4348308 136.485015,20.0794846 133.751253,20.0794846 M133.751253,8.29785 C130.056467,8.29785 128.370602,11.1729846 128.370602,14.8606769 C128.370602,18.5492731 130.056467,21.4018115 133.751253,21.4018115 C137.446039,21.4018115 139.111996,18.5492731 139.111996,14.8606769 C139.111996,11.1729846 137.446039,8.29785 133.751253,8.29785" id="Fill-24" fill="#08446A" sketch:type="MSShapeGroup" mask="url(#mask-6)"></path>
                <path d="M141.526321,9.15641346 L141.526321,21.0998365 L143.363307,21.0998365 L143.363307,9.98975962 C144.153302,9.50349038 145.840072,9.45739423 146.993844,9.75927885 L147.462592,8.32035577 C146.557673,8.21550962 143.739754,8.22454808 141.526321,9.15641346" id="Fill-25" fill="#08446A" sketch:type="MSShapeGroup" mask="url(#mask-6)"></path>
                <path d="M68.2454937,42.3615519 L68.2020576,42.3615519 C67.759552,41.4007635 67.6953027,41.3745519 60.5355802,30.4398212 L57.910409,30.4398212 L57.910409,46.3963212 L60.2369568,46.3963212 C60.2369568,35.1542827 60.25777,35.0864942 60.1727075,33.8500327 L60.2161437,33.8500327 C60.7011805,34.8740904 60.5916852,34.6363788 68.2228707,46.3963212 L70.5077923,46.3963212 L70.5077923,30.4398212 L68.1595264,30.4398212 C68.1595264,41.0961673 68.1323788,41.1738981 68.2454937,42.3615519" id="Fill-26" fill="#08446A" sketch:type="MSShapeGroup" mask="url(#mask-6)"></path>
                <path d="M80.4621774,44.7965135 C79.2142935,45.4120327 75.2941826,45.7853212 75.2941826,42.801725 C75.2941826,40.3893596 77.3664481,39.8099942 80.4621774,39.4846096 L80.4621774,44.7965135 Z M73.5648816,34.4745904 L74.1847514,36.0066096 C74.974746,35.6351288 76.3628924,35.2862442 77.5791041,35.2862442 C80.6793581,35.2862442 80.4621774,37.0351865 80.4621774,38.2336865 C76.2760202,38.6033596 72.7540738,39.5090135 72.7540738,42.8695135 C72.7540738,45.2601865 74.4842797,46.7217058 78.1564427,46.7217058 C80.2287082,46.7217058 81.9136682,46.3511288 82.982378,45.8160519 L82.982378,37.9083019 C82.982378,32.4093019 76.5230632,33.2272827 73.5648816,34.4745904 L73.5648816,34.4745904 Z" id="Fill-27" fill="#08446A" sketch:type="MSShapeGroup" mask="url(#mask-6)"></path>
                <path d="M89.2816126,30.3482615 L86.6130052,31.0903192 L86.6130052,33.8958577 L84.8610812,33.8958577 L84.8610812,35.5191654 L86.6130052,35.5191654 L86.6130052,43.2877231 C86.6130052,44.9815308 87.6156559,46.6744346 90.242637,46.6744346 C90.9267561,46.6744346 91.4597536,46.5352423 91.7167508,46.4186462 L91.7167508,44.7727423 C90.2019156,45.1821846 89.2816126,44.3913192 89.2816126,43.1494346 L89.2816126,35.5191654 L91.7167508,35.5191654 L91.7167508,33.8958577 L89.2816126,33.8958577 L89.2816126,30.3482615 Z" id="Fill-28" fill="#08446A" sketch:type="MSShapeGroup" mask="url(#mask-6)"></path>
                <path d="M93.8111868,46.3962308 L96.5006073,46.3962308 L96.5006073,33.8951346 L93.8111868,33.8951346 L93.8111868,46.3962308 Z" id="Fill-29" fill="#08446A" sketch:type="MSShapeGroup" mask="url(#mask-6)"></path>
                <path d="M95.1556256,28.9564288 C93.0960289,28.9564288 93.0978388,31.740275 95.1556256,31.740275 C97.2143172,31.740275 97.2179369,28.9564288 95.1556256,28.9564288" id="Fill-30" fill="#08446A" sketch:type="MSShapeGroup" mask="url(#mask-6)"></path>
                <path d="M104.531315,44.8880731 C102.267206,44.8880731 101.541461,42.5688038 101.541461,40.1338423 C101.541461,37.6988808 102.22558,35.2856115 104.531315,35.2856115 C106.837049,35.2856115 107.519359,37.6988808 107.519359,40.1338423 C107.519359,42.5688038 106.837049,44.8880731 104.531315,44.8880731 M104.531315,33.5710154 C100.70803,33.5710154 98.8086043,36.4253615 98.8086043,40.1573423 C98.8086043,43.8911308 100.70803,46.7219769 104.531315,46.7219769 C108.354599,46.7219769 110.233212,43.8911308 110.233212,40.1573423 C110.233212,36.4253615 108.354599,33.5710154 104.531315,33.5710154" id="Fill-31" fill="#08446A" sketch:type="MSShapeGroup" mask="url(#mask-6)"></path>
                <path d="M112.435605,34.4748615 L112.435605,46.3965923 L115.104212,46.3965923 L115.104212,35.6344962 C116.619047,35.0180731 120.166332,34.8806885 120.166332,37.4665923 L120.166332,46.3965923 L122.856657,46.3965923 L122.856657,37.4195923 C122.856657,32.3273231 115.025484,33.3495731 112.435605,34.4748615" id="Fill-32" fill="#08446A" sketch:type="MSShapeGroup" mask="url(#mask-6)"></path>
                <path d="M132.680462,44.7965135 C131.424434,45.4165519 127.512467,45.7798981 127.512467,42.801725 C127.512467,40.3893596 129.583828,39.8099942 132.680462,39.4846096 L132.680462,44.7965135 Z M125.784071,34.4745904 L126.403036,36.0066096 C127.859956,35.3205904 132.680462,34.259475 132.680462,37.514225 L132.680462,38.2336865 C128.494305,38.6033596 124.972359,39.5090135 124.972359,42.8695135 C124.972359,45.2601865 126.702565,46.7217058 130.374728,46.7217058 C132.445183,46.7217058 134.133763,46.3511288 135.201568,45.8160519 L135.201568,37.9083019 C135.201568,32.4065904 128.734109,33.2290904 125.784071,34.4745904 L125.784071,34.4745904 Z" id="Fill-33" fill="#08446A" sketch:type="MSShapeGroup" mask="url(#mask-6)"></path>
                <path d="M137.957681,46.3962308 L140.628098,46.3962308 L140.628098,28.1891538 L137.957681,28.1891538 L137.957681,46.3962308 Z" id="Fill-34" fill="#08446A" sketch:type="MSShapeGroup" mask="url(#mask-6)"></path>
                <path d="M152.139669,34.5443673 C152.139669,31.8219827 155.557549,31.4143481 157.79813,32.7592712 L158.481344,31.0193673 C154.929535,28.9251558 149.339848,30.3812519 149.339848,34.8453481 C149.339848,39.810175 155.983766,38.4643481 155.983766,41.9667519 C155.983766,43.5439635 154.659869,44.6340019 152.80207,44.6340019 C151.56233,44.6340019 150.367836,44.239925 149.727153,43.8684442 L148.97969,45.8162327 C149.854747,46.3025019 151.413923,46.7218865 153.334162,46.7218865 C156.601826,46.7218865 158.928374,44.6105019 158.928374,41.7796558 C158.928374,36.4921558 152.139669,37.9780788 152.139669,34.5443673" id="Fill-35" fill="#08446A" sketch:type="MSShapeGroup" mask="url(#mask-6)"></path>
                <path d="M164.741576,30.3482615 L162.071159,31.0903192 L162.071159,33.8958577 L160.32195,33.8958577 L160.32195,35.5191654 L162.071159,35.5191654 L162.071159,43.2877231 C162.071159,44.9815308 163.07562,46.6744346 165.702601,46.6744346 C166.38491,46.6744346 166.919717,46.5352423 167.174905,46.4186462 L167.174905,44.7727423 C166.919717,44.8423385 166.706156,44.8884346 166.449159,44.8884346 C165.318915,44.8884346 164.741576,44.1237808 164.741576,43.1494346 L164.741576,35.5191654 L167.174905,35.5191654 L167.174905,33.8958577 L164.741576,33.8958577 L164.741576,30.3482615 Z" id="Fill-36" fill="#08446A" sketch:type="MSShapeGroup" mask="url(#mask-6)"></path>
                <path d="M176.336761,44.7965135 C175.869823,45.0288019 175.119645,45.2149942 174.245493,45.2149942 C172.36688,45.2149942 171.170576,44.493725 171.170576,42.801725 C171.170576,40.3893596 173.241032,39.8099942 176.336761,39.4846096 L176.336761,44.7965135 Z M173.945964,33.5707442 C171.960571,33.5707442 170.316333,34.1058212 169.439466,34.4745904 L170.059335,36.0066096 C170.84933,35.6351288 172.237476,35.2862442 173.453688,35.2862442 C176.553942,35.2862442 176.336761,37.0360904 176.336761,38.2336865 C172.153319,38.6033596 168.628658,39.5090135 168.628658,42.8695135 C168.628658,45.2601865 170.357959,46.7217058 174.031027,46.7217058 C176.103292,46.7217058 177.788252,46.3511288 178.857867,45.8160519 L178.857867,37.9083019 C178.857867,34.7068788 176.722257,33.5707442 173.945964,33.5707442 L173.945964,33.5707442 Z" id="Fill-37" fill="#08446A" sketch:type="MSShapeGroup" mask="url(#mask-6)"></path>
                <path d="M185.157554,30.3482615 L182.487137,31.0903192 L182.487137,33.8958577 L180.737928,33.8958577 L180.737928,35.5191654 L182.487137,35.5191654 L182.487137,43.2877231 C182.487137,44.9815308 183.492502,46.6744346 186.119483,46.6744346 C186.802698,46.6744346 187.3366,46.5352423 187.590882,46.4186462 L187.590882,44.7727423 C186.086001,45.1839923 185.157554,44.3949346 185.157554,43.1494346 L185.157554,35.5191654 L187.590882,35.5191654 L187.590882,33.8958577 L185.157554,33.8958577 L185.157554,30.3482615 Z" id="Fill-38" fill="#08446A" sketch:type="MSShapeGroup" mask="url(#mask-6)"></path>
                <path d="M191.03021,28.9564288 C188.974233,28.9564288 188.970613,31.740275 191.03021,31.740275 C193.093426,31.740275 193.091616,28.9564288 191.03021,28.9564288" id="Fill-39" fill="#08446A" sketch:type="MSShapeGroup" mask="url(#mask-6)"></path>
                <path d="M189.68559,46.3962308 L192.377725,46.3962308 L192.377725,33.8951346 L189.68559,33.8951346 L189.68559,46.3962308 Z" id="Fill-40" fill="#08446A" sketch:type="MSShapeGroup" mask="url(#mask-6)"></path>
                <path d="M197.502193,37.0945692 C197.502193,35.3682231 200.025109,34.6632231 202.03041,36.0280308 L202.733532,34.4752231 C199.537357,32.5635885 194.833586,33.7629923 194.833586,37.2364731 C194.833586,41.3173385 200.322827,39.9254154 200.322827,42.89455 C200.322827,45.0574538 196.900422,45.3322231 195.132209,44.0993769 L194.427277,45.8157808 C195.173836,46.2803577 196.649759,46.7214346 198.207126,46.7214346 C201.196979,46.7214346 203.098215,44.8197423 203.098215,42.82405 C203.098215,38.6500885 197.502193,39.8793192 197.502193,37.0945692" id="Fill-41" fill="#08446A" sketch:type="MSShapeGroup" mask="url(#mask-6)"></path>
                <path d="M208.931778,30.3482615 L206.261361,31.0903192 L206.261361,33.8958577 L204.511247,33.8958577 L204.511247,35.5191654 L206.261361,35.5191654 L206.261361,43.2877231 C206.261361,44.9815308 207.267631,46.6744346 209.892803,46.6744346 C210.575112,46.6744346 211.109919,46.5352423 211.365106,46.4186462 L211.365106,44.7727423 C209.857511,45.1821846 208.931778,44.3949346 208.931778,43.1494346 L208.931778,35.5191654 L211.365106,35.5191654 L211.365106,33.8958577 L208.931778,33.8958577 L208.931778,30.3482615 Z" id="Fill-42" fill="#08446A" sketch:type="MSShapeGroup" mask="url(#mask-6)"></path>
                <path d="M214.805882,28.9564288 C212.74719,28.9564288 212.744475,31.740275 214.805882,31.740275 C216.866383,31.740275 216.870003,28.9564288 214.805882,28.9564288" id="Fill-43" fill="#08446A" sketch:type="MSShapeGroup" mask="url(#mask-6)"></path>
                <path d="M213.461443,46.3962308 L216.150863,46.3962308 L216.150863,33.8951346 L213.461443,33.8951346 L213.461443,46.3962308 Z" id="Fill-44" fill="#08446A" sketch:type="MSShapeGroup" mask="url(#mask-6)"></path>
                <path d="M224.501369,44.7965135 C220.183094,44.7965135 219.987631,35.3802442 224.542996,35.3802442 C225.439771,35.3802442 226.12389,35.7038212 226.508481,35.9822058 L227.105727,34.4745904 C226.508481,34.012725 225.462394,33.5707442 223.903217,33.5707442 C216.597803,33.5707442 216.63219,46.7217058 223.882404,46.7217058 C225.483207,46.7217058 226.571825,46.279725 227.12654,45.8160519 L226.465044,44.1701481 C225.996296,44.493725 225.355613,44.7965135 224.501369,44.7965135" id="Fill-45" fill="#08446A" sketch:type="MSShapeGroup" mask="url(#mask-6)"></path>
                <path d="M231.400294,37.0945692 C231.400294,35.3600885 233.935878,34.6677423 235.926701,36.0280308 L236.633443,34.4752231 C235.778294,33.9654538 234.647145,33.5704731 233.109687,33.5704731 C230.395833,33.5704731 228.731687,35.3808769 228.731687,37.2364731 C228.731687,41.3173385 234.219118,39.9254154 234.219118,42.89455 C234.219118,45.0574538 230.798523,45.3313192 229.03031,44.0993769 L228.325378,45.8157808 C229.071936,46.2803577 230.54605,46.7214346 232.105226,46.7214346 C235.09508,46.7214346 236.996316,44.8197423 236.996316,42.82405 C236.996316,38.6500885 231.400294,39.8793192 231.400294,37.0945692" id="Fill-46" fill="#08446A" sketch:type="MSShapeGroup" mask="url(#mask-6)"></path>
            </g>
        </g>
    </g>
</svg>
