<svg width="34" height="24" viewBox="0 0 34 24" xmlns="http://www.w3.org/2000/svg" xmlns:sketch="http://www.bohemiancoding.com/sketch/ns"><title>audio</title><desc>Created with Sketch.</desc><path d="M5.197.033c-2.951 2.951-4.754 7.008-4.754 11.516s1.762 8.689 4.754 11.639l2.951-2.951c-2.213-2.213-3.607-5.287-3.607-8.73 0-3.402 1.352-6.352 3.607-8.566l-2.951-2.951v.041zm23.32 0l-2.951 2.951c2.213 2.213 3.607 5.164 3.607 8.566 0 3.402-1.352 6.475-3.607 8.73l2.951 2.951c2.951-2.951 4.754-7.131 4.754-11.639 0-4.508-1.762-8.566-4.754-11.516v-.041zm-17.418 5.779c-1.475 1.475-2.418 3.525-2.418 5.779s.943 4.426 2.418 5.902l2.828-2.951c-.738-.738-1.148-1.803-1.148-2.951 0-1.148.41-2.049 1.148-2.828l-2.828-2.951zm11.516 0l-2.828 2.951c.738.738 1.148 1.68 1.148 2.828s-.41 2.213-1.148 2.951l2.828 2.951c1.475-1.475 2.418-3.648 2.418-5.902s-.943-4.303-2.418-5.779z" sketch:type="MSShapeGroup" fill="#000"/></svg>