<svg width="34" height="34" viewBox="0 0 34 34" xmlns="http://www.w3.org/2000/svg" xmlns:sketch="http://www.bohemiancoding.com/sketch/ns"><title>bold</title><desc>Created with Sketch.</desc><path d="M.279.934v4.098c2.254 0 4.098 1.844 4.098 4.098v16.393c0 2.254-1.844 4.098-4.098 4.098v4.098h22.541c5.656 0 10.246-4.59 10.246-10.246 0-4.098-2.418-7.582-5.902-9.221 1.107-1.393 1.803-3.197 1.803-5.123 0-4.508-3.648-8.197-8.197-8.197h-20.492zm12.295 4.098h4.098c2.254 0 4.098 1.844 4.098 4.098 0 2.254-1.844 4.098-4.098 4.098h-4.098v-8.197zm0 12.295h6.148c3.402 0 6.148 2.746 6.148 6.148 0 3.402-2.746 6.148-6.148 6.148h-6.148v-12.295z" sketch:type="MSShapeGroup" fill="#000"/></svg>