<svg width="29" height="34" viewBox="0 0 29 34" xmlns="http://www.w3.org/2000/svg" xmlns:sketch="http://www.bohemiancoding.com/sketch/ns"><title>book</title><desc>Created with Sketch.</desc><path d="M4.098.869c-.287 0-.533.041-.779.123-1.598.328-2.869 1.598-3.197 3.197-.123.246-.123.492-.123.779v22.541c0 3.402 2.746 6.148 6.148 6.148h22.541v-4.098h-22.541c-1.148 0-2.049-.902-2.049-2.049 0-1.148.902-2.049 2.049-2.049h22.541v-22.541c0-1.148-.902-2.049-2.049-2.049h-2.049v12.295l-4.098-4.098-4.098 4.098v-12.295h-12.295z" sketch:type="MSShapeGroup" fill="#000"/></svg>