<svg width="34" height="34" viewBox="0 0 34 34" xmlns="http://www.w3.org/2000/svg" xmlns:sketch="http://www.bohemiancoding.com/sketch/ns"><title>briefcase</title><desc>Created with Sketch.</desc><path d="M13.098.869c-2.254 0-4.098 1.844-4.098 4.098v4.098h-7.828c-.246 0-.369.164-.369.369v9.877c0 1.148.902 2.049 2.049 2.049h28.689c1.148 0 2.049-.902 2.049-2.049v-9.877c0-.246-.164-.369-.369-.369h-7.828v-4.098c0-2.254-1.844-4.098-4.098-4.098h-8.197zm0 4.098h8.197v4.098h-8.197v-4.098zm-12.295 20.123v8.197c0 .205.164.369.369.369h32.008c.205 0 .369-.164.369-.369v-8.197c-.656.246-1.311.369-2.049.369h-28.689c-.738 0-1.393-.164-2.049-.369h.041z" sketch:type="MSShapeGroup" fill="#000"/></svg>