<svg width="26" height="34" viewBox="0 0 26 34" xmlns="http://www.w3.org/2000/svg" xmlns:sketch="http://www.bohemiancoding.com/sketch/ns"><title>british-pound</title><desc>Created with Sketch.</desc><path d="M13.131.77c-2.541 0-4.754 1.066-6.148 2.828-1.393 1.762-2.049 4.057-2.049 6.393 0 2.828.656 5.123 1.025 7.172h-5.123v4.098h5c-.451 1.844-1.516 3.934-4.344 6.803l-.656.533v5h24.59v-4.098h-20.123c2.623-2.992 4.016-5.738 4.631-8.197h7.295v-4.098h-7.049c-.328-2.787-1.148-5.082-1.148-7.172 0-1.598.451-2.992 1.148-3.852.697-.861 1.516-1.27 2.951-1.27 1.598 0 2.5.451 3.074 1.025.574.574 1.025 1.475 1.025 3.074h4.098c0-2.377-.697-4.508-2.172-6.025-1.516-1.516-3.648-2.172-6.025-2.172v-.041z" sketch:type="MSShapeGroup" fill="#000"/></svg>