<svg width="34" height="34" viewBox="0 0 34 34" xmlns="http://www.w3.org/2000/svg" xmlns:sketch="http://www.bohemiancoding.com/sketch/ns"><title>browser</title><desc>Created with Sketch.</desc><path d="M2.066.869c-.872.293-1.441 1.131-1.393 2.049v28.689c0 1.132.917 2.049 2.049 2.049h28.689c1.132 0 2.049-.917 2.049-2.049v-28.689c0-1.132-.917-2.049-2.049-2.049h-28.689c-.123-.011-.246-.011-.369 0h-.287zm4.754 4.098c1.148 0 2.049.902 2.049 2.049 0 1.148-.902 2.049-2.049 2.049-1.148 0-2.049-.902-2.049-2.049 0-1.148.902-2.049 2.049-2.049zm8.197 0h12.295c1.148 0 2.049.902 2.049 2.049 0 1.148-.902 2.049-2.049 2.049h-12.295c-1.148 0-2.049-.902-2.049-2.049 0-1.148.902-2.049 2.049-2.049zm-10.246 8.197h24.59v16.393h-24.59v-16.393z" sketch:type="MSShapeGroup" fill="#000"/></svg>