<svg width="34" height="33" viewBox="0 0 34 33" xmlns="http://www.w3.org/2000/svg" xmlns:sketch="http://www.bohemiancoding.com/sketch/ns"><title>brush</title><desc>Created with Sketch.</desc><path d="M31.098-.008c-.123 0-.164.082-.246.123l-15.369 10.902c-.164.123-.41.451-.533.656l-.533 1.025c2.951.943 5.205 3.197 6.148 6.148l1.025-.533c.205-.123.492-.328.656-.533l10.902-15.369c.123-.205.164-.369 0-.533l-1.803-1.803c-.082-.082-.164-.123-.246-.123v.041zm-19.59 16.27c-3.033 0-5.369 2.5-5.369 5.492 0 4.057-2.254 7.582-5.492 9.467 1.598.902 3.525 1.393 5.492 1.393 6.025 0 10.902-4.836 10.902-10.902 0-3.033-2.5-5.492-5.492-5.492l-.041.041z" sketch:type="MSShapeGroup" fill="#000"/></svg>