<svg width="30" height="34" viewBox="0 0 30 34" xmlns="http://www.w3.org/2000/svg" xmlns:sketch="http://www.bohemiancoding.com/sketch/ns"><title>calculator</title><desc>Created with Sketch.</desc><path d="M.91.869c-.246 0-.369.164-.369.369v32.008c0 .205.164.369.369.369h27.91c.205 0 .369-.164.369-.369v-32.008c0-.246-.164-.369-.369-.369h-27.91zm3.73 4.098h20.492v8.197h-20.492v-8.197zm0 12.295h4.098v4.098h-4.098v-4.098zm8.197 0h4.098v4.098h-4.098v-4.098zm8.197 0h4.098v12.295h-4.098v-12.295zm-16.393 8.197h4.098v4.098h-4.098v-4.098zm8.197 0h4.098v4.098h-4.098v-4.098z" sketch:type="MSShapeGroup" fill="#000"/></svg>