<svg width="34" height="34" viewBox="0 0 34 34" xmlns="http://www.w3.org/2000/svg" xmlns:sketch="http://www.bohemiancoding.com/sketch/ns"><title>camera-slr</title><desc>Created with Sketch.</desc><path d="M17.238.869c-.205 0-.41.164-.533.369l-3.852 7.418c-.082.205-.287.369-.533.369h-5.779c-3.402 0-6.148 2.746-6.148 6.148v18.074c0 .205.164.369.369.369h32.008c.205 0 .369-.164.369-.369v-23.811c0-.246-.164-.369-.369-.369h-3.32c-.205 0-.41-.164-.533-.369l-3.852-7.418c-.123-.205-.287-.369-.533-.369h-7.418l.123-.041zm-10.615 12.295c1.148 0 2.049.902 2.049 2.049 0 1.148-.902 2.049-2.049 2.049-1.148 0-2.049-.902-2.049-2.049 0-1.148.902-2.049 2.049-2.049zm14.344 0c4.508 0 8.197 3.689 8.197 8.197 0 4.508-3.689 8.197-8.197 8.197-4.508 0-8.197-3.689-8.197-8.197 0-4.508 3.689-8.197 8.197-8.197zm0 4.098c-2.254 0-4.098 1.844-4.098 4.098 0 2.254 1.844 4.098 4.098 4.098 2.254 0 4.098-1.844 4.098-4.098 0-2.254-1.844-4.098-4.098-4.098z" sketch:type="MSShapeGroup" fill="#000"/></svg>