<svg width="30" height="34" viewBox="0 0 30 34" xmlns="http://www.w3.org/2000/svg" xmlns:sketch="http://www.bohemiancoding.com/sketch/ns"><title>clipboard</title><desc>Created with Sketch.</desc><path d="M14.82.803c-1.148 0-2.049.902-2.049 2.049v2.049h-3.074c-.574 0-1.025.451-1.025 1.025v3.074h12.295v-3.074c0-.574-.451-1.025-1.025-1.025h-3.074v-2.049c0-1.148-.902-2.049-2.049-2.049zm-13.32 4.098c-.574 0-1.025.451-1.025 1.025v26.639c0 .574.451 1.025 1.025 1.025h26.639c.574 0 1.025-.451 1.025-1.025v-26.639c0-.574-.451-1.025-1.025-1.025h-3.074v8.197h-20.492v-8.197h-3.074z" sketch:type="MSShapeGroup" fill="#000"/></svg>