<svg width="34" height="34" viewBox="0 0 34 34" xmlns="http://www.w3.org/2000/svg" xmlns:sketch="http://www.bohemiancoding.com/sketch/ns"><title>clock</title><desc>Created with Sketch.</desc><path d="M16.803.803c-9.016 0-16.393 7.377-16.393 16.393 0 9.016 7.377 16.393 16.393 16.393 9.016 0 16.393-7.377 16.393-16.393 0-9.016-7.377-16.393-16.393-16.393zm0 4.098c6.803 0 12.295 5.492 12.295 12.295s-5.492 12.295-12.295 12.295-12.295-5.492-12.295-12.295 5.492-12.295 12.295-12.295zm-2.049 4.098v9.098l.656.533 2.049 2.049 1.393 1.557 2.951-2.951-1.557-1.393-1.393-1.393v-7.418h-4.098v-.082z" sketch:type="MSShapeGroup" fill="#000"/></svg>