<svg width="34" height="34" viewBox="0 0 34 34" xmlns="http://www.w3.org/2000/svg" xmlns:sketch="http://www.bohemiancoding.com/sketch/ns"><title>cog</title><desc>Created with Sketch.</desc><path d="M14.623.705l-2.049 4.877c-.41.123-.779.328-1.148.533l-4.877-2.049-2.951 2.951 2.049 4.877c-.205.41-.369.738-.533 1.148l-4.877 2.049v4.098l4.877 2.049c.164.41.328.738.533 1.148l-2.049 4.877 2.951 2.951 4.877-2.049c.369.164.738.369 1.148.533l2.049 4.877h4.098l2.049-4.877c.369-.164.779-.328 1.148-.533l4.877 2.049 2.951-2.951-2.049-4.877.533-1.148 4.877-2.049v-4.098l-4.877-2.049c-.123-.369-.328-.779-.533-1.148l2.049-4.877-2.951-2.951-4.877 2.049-1.148-.533-2.049-4.877h-4.098zm2.049 10.246c3.402 0 6.148 2.746 6.148 6.148 0 3.402-2.746 6.148-6.148 6.148-3.402 0-6.148-2.746-6.148-6.148 0-3.402 2.746-6.148 6.148-6.148z" sketch:type="MSShapeGroup" fill="#000"/></svg>