<svg width="34" height="34" viewBox="0 0 34 34" xmlns="http://www.w3.org/2000/svg" xmlns:sketch="http://www.bohemiancoding.com/sketch/ns"><title>compass</title><desc>Created with Sketch.</desc><path d="M17.131.738c-9.016 0-16.393 7.377-16.393 16.393 0 9.016 7.377 16.393 16.393 16.393 9.016 0 16.393-7.377 16.393-16.393 0-9.016-7.377-16.393-16.393-16.393zm0 4.098c6.803 0 12.295 5.492 12.295 12.295s-5.492 12.295-12.295 12.295-12.295-5.492-12.295-12.295 5.492-12.295 12.295-12.295zm8.197 4.098l-12.295 4.098-4.098 12.295 12.295-4.098 4.098-12.295zm-8.197 6.148c1.148 0 2.049.902 2.049 2.049 0 1.148-.902 2.049-2.049 2.049-1.148 0-2.049-.902-2.049-2.049 0-1.148.902-2.049 2.049-2.049z" sketch:type="MSShapeGroup" fill="#000"/></svg>