<svg width="34" height="34" viewBox="0 0 34 34" xmlns="http://www.w3.org/2000/svg" xmlns:sketch="http://www.bohemiancoding.com/sketch/ns"><title>dashboard</title><desc>Created with Sketch.</desc><path d="M16.803.738c-9.016 0-16.393 7.377-16.393 16.393 0 9.016 7.377 16.393 16.393 16.393 9.016 0 16.393-7.377 16.393-16.393 0-9.016-7.377-16.393-16.393-16.393zm0 4.098c6.803 0 12.295 5.492 12.295 12.295s-5.492 12.295-12.295 12.295-12.295-5.492-12.295-12.295 5.492-12.295 12.295-12.295zm0 4.098c-1.148 0-2.049.902-2.049 2.049 0 1.148.902 2.049 2.049 2.049 1.148 0 2.049-.902 2.049-2.049 0-1.148-.902-2.049-2.049-2.049zm-6.803 4.098c-.69.222-1.212.792-1.372 1.499-.16.707.066 1.446.594 1.944l3.73 3.73c-.082.328-.246.656-.246 1.025 0 2.254 1.844 4.098 4.098 4.098 2.254 0 4.098-1.844 4.098-4.098 0-2.254-1.844-4.098-4.098-4.098-.369 0-.697.164-1.025.246l-3.73-3.73c-.455-.504-1.131-.749-1.803-.656h-.246v.041zm12.951 0c-1.148 0-2.049.902-2.049 2.049 0 1.148.902 2.049 2.049 2.049 1.148 0 2.049-.902 2.049-2.049 0-1.148-.902-2.049-2.049-2.049z" sketch:type="MSShapeGroup" fill="#000"/></svg>