<svg width="26" height="35" viewBox="0 0 26 35" xmlns="http://www.w3.org/2000/svg" xmlns:sketch="http://www.bohemiancoding.com/sketch/ns"><title>droplet</title><desc>Created with Sketch.</desc><path d="M13 .574l-1.393 1.393c-.451.451-10.902 11.025-10.902 20 0 6.762 5.533 12.295 12.295 12.295s12.295-5.533 12.295-12.295c0-8.934-10.451-19.549-10.902-20l-1.393-1.393zm-6.148 19.344c1.148 0 2.049.902 2.049 2.049 0 2.254 1.844 4.098 4.098 4.098 1.148 0 2.049.902 2.049 2.049 0 1.148-.902 2.049-2.049 2.049-4.508 0-8.197-3.689-8.197-8.197 0-1.148.902-2.049 2.049-2.049z" sketch:type="MSShapeGroup" fill="#000"/></svg>