<svg width="33" height="34" viewBox="0 0 33 34" xmlns="http://www.w3.org/2000/svg" xmlns:sketch="http://www.bohemiancoding.com/sketch/ns"><title>euro</title><desc>Created with Sketch.</desc><path d="M24.705.672c-7.623 0-13.934 5.246-15.738 12.295h-7.828l-1.025 4.098h8.238c0 1.434.287 2.787.656 4.098h-8.074l-.779 4.098h10.492c2.869 4.877 8.074 8.197 14.098 8.197 2.992 0 5.779-.861 8.197-2.295v-5c-2.172 1.967-5 3.197-8.197 3.197-3.648 0-6.844-1.598-9.098-4.098h9.098l.656-4.098h-12.172c-.451-1.311-.779-2.623-.779-4.098h13.689l.656-4.098h-13.566c1.68-4.754 6.189-8.197 11.516-8.197 2.705 0 5.164.861 7.172 2.295l.656-4.344c-2.336-1.27-4.959-2.049-7.828-2.049h-.041z" sketch:type="MSShapeGroup" fill="#000"/></svg>