<svg width="34" height="26" viewBox="0 0 34 26" xmlns="http://www.w3.org/2000/svg" xmlns:sketch="http://www.bohemiancoding.com/sketch/ns"><title>eye</title><desc>Created with Sketch.</desc><path d="M17.451.705c-10.369 0-16.516 12.295-16.516 12.295s6.148 12.295 16.516 12.295c10.123 0 16.27-12.295 16.27-12.295s-6.148-12.295-16.27-12.295zm-.123 4.098c4.549 0 8.197 3.689 8.197 8.197 0 4.549-3.648 8.197-8.197 8.197-4.508 0-8.197-3.648-8.197-8.197 0-4.508 3.689-8.197 8.197-8.197zm0 4.098c-2.254 0-4.098 1.844-4.098 4.098 0 2.254 1.844 4.098 4.098 4.098 2.254 0 4.098-1.844 4.098-4.098 0-.41-.164-.779-.246-1.148-.328.656-.984 1.148-1.803 1.148-1.148 0-2.049-.902-2.049-2.049 0-.82.492-1.475 1.148-1.803-.369-.123-.738-.246-1.148-.246z" sketch:type="MSShapeGroup" fill="#000"/></svg>