<svg width="30" height="34" viewBox="0 0 30 34" xmlns="http://www.w3.org/2000/svg" xmlns:sketch="http://www.bohemiancoding.com/sketch/ns"><title>fork</title><desc>Created with Sketch.</desc><path d="M6.754.508c-3.402 0-6.148 2.746-6.148 6.148 0 2.705 1.68 4.918 4.098 5.779v8.975c-2.418.82-4.098 3.074-4.098 5.779 0 3.402 2.746 6.148 6.148 6.148 3.402 0 6.148-2.746 6.148-6.148 0-2.459-1.393-4.508-3.443-5.492.369-.369.861-.656 1.393-.656h8.197c3.361 0 6.148-2.787 6.148-6.148v-2.418c2.418-.82 4.098-3.074 4.098-5.779 0-3.402-2.746-6.148-6.148-6.148-3.402 0-6.148 2.746-6.148 6.148 0 2.705 1.68 4.918 4.098 5.779v2.418c0 1.148-.902 2.049-2.049 2.049h-8.197c-.697 0-1.434.164-2.049.369v-4.877c2.418-.82 4.098-3.074 4.098-5.779 0-3.402-2.746-6.148-6.148-6.148z" sketch:type="MSShapeGroup" fill="#000"/></svg>