<svg width="30" height="30" viewBox="0 0 30 30" xmlns="http://www.w3.org/2000/svg" xmlns:sketch="http://www.bohemiancoding.com/sketch/ns"><title>grid-four-up</title><desc>Created with Sketch.</desc><path d="M.41.607v4.098h4.098v-4.098h-4.098zm8.197 0v4.098h4.098v-4.098h-4.098zm8.197 0v4.098h4.098v-4.098h-4.098zm8.197 0v4.098h4.098v-4.098h-4.098zm-24.59 8.197v4.098h4.098v-4.098h-4.098zm8.197 0v4.098h4.098v-4.098h-4.098zm8.197 0v4.098h4.098v-4.098h-4.098zm8.197 0v4.098h4.098v-4.098h-4.098zm-24.59 8.197v4.098h4.098v-4.098h-4.098zm8.197 0v4.098h4.098v-4.098h-4.098zm8.197 0v4.098h4.098v-4.098h-4.098zm8.197 0v4.098h4.098v-4.098h-4.098zm-24.59 8.197v4.098h4.098v-4.098h-4.098zm8.197 0v4.098h4.098v-4.098h-4.098zm8.197 0v4.098h4.098v-4.098h-4.098zm8.197 0v4.098h4.098v-4.098h-4.098z" sketch:type="MSShapeGroup" fill="#000"/></svg>