<svg width="29" height="34" viewBox="0 0 29 34" xmlns="http://www.w3.org/2000/svg" xmlns:sketch="http://www.bohemiancoding.com/sketch/ns"><title>hard-drive</title><desc>Created with Sketch.</desc><path d="M.992.508c-.451 0-.779.328-.779.779v13.566c0 1.148.902 2.049 2.049 2.049h24.59c1.148 0 2.049-.902 2.049-2.049v-13.566c0-.451-.328-.779-.779-.779h-27.172.041zm-.779 20.123v11.926c0 .451.328.779.779.779h27.172c.451 0 .779-.328.779-.779v-11.926c-.656.246-1.311.369-2.049.369h-24.59c-.738 0-1.393-.164-2.049-.369h-.041zm22.541 4.467c1.148 0 2.049.902 2.049 2.049 0 1.148-.902 2.049-2.049 2.049-1.148 0-2.049-.902-2.049-2.049 0-1.148.902-2.049 2.049-2.049z" sketch:type="MSShapeGroup" fill="#000"/></svg>