<svg width="33" height="29" viewBox="0 0 33 29" xmlns="http://www.w3.org/2000/svg" xmlns:sketch="http://www.bohemiancoding.com/sketch/ns"><title>heart</title><desc>Created with Sketch.</desc><path d="M8.197.541c-2.254 0-4.262.943-5.779 2.418-1.475 1.475-2.418 3.484-2.418 5.779 0 2.254.943 4.262 2.418 5.779l13.975 13.975 13.975-13.975c1.475-1.475 2.418-3.484 2.418-5.779 0-2.254-.943-4.262-2.418-5.779-1.475-1.475-3.484-2.418-5.779-2.418-2.254 0-4.262.943-5.779 2.418-1.475 1.475-2.418 3.484-2.418 5.779 0-2.254-.943-4.262-2.418-5.779-1.475-1.475-3.484-2.418-5.779-2.418z" sketch:type="MSShapeGroup" fill="#000"/></svg>