<svg width="34" height="18" viewBox="0 0 34 18" xmlns="http://www.w3.org/2000/svg" xmlns:sketch="http://www.bohemiancoding.com/sketch/ns"><title>infinity</title><desc>Created with Sketch.</desc><path d="M8.934.738c-5.369 0-8.197 4.139-8.197 8.197 0 4.057 2.828 8.197 8.197 8.197 3.238 0 5.82-2.295 8.197-5 2.377 2.705 4.877 5 8.197 5 5.369 0 8.197-4.139 8.197-8.197 0-4.057-2.828-8.197-8.197-8.197-3.32 0-5.82 2.295-8.197 5-2.377-2.705-4.959-5-8.197-5zm0 4.098c1.721 0 3.607 1.926 5.492 4.098-1.885 2.172-3.77 4.098-5.492 4.098-3.033 0-4.098-2.213-4.098-4.098 0-1.885 1.066-4.098 4.098-4.098zm16.393 0c3.033 0 4.098 2.213 4.098 4.098 0 1.885-1.066 4.098-4.098 4.098-1.762 0-3.648-1.926-5.492-4.098 1.885-2.172 3.73-4.098 5.492-4.098z" sketch:type="MSShapeGroup" fill="#000"/></svg>