<svg width="33" height="34" viewBox="0 0 33 34" xmlns="http://www.w3.org/2000/svg" xmlns:sketch="http://www.bohemiancoding.com/sketch/ns"><title>link-intact</title><desc>Created with Sketch.</desc><path d="M24.098.598c-.738.041-1.475.123-2.172.369-1.107.41-2.172 1.025-3.074 1.926-.71.45-1.073 1.288-.916 2.114.157.826.803 1.472 1.629 1.629.826.157 1.664-.206 2.114-.916.451-.451.984-.697 1.557-.902 1.434-.492 3.197-.287 4.344.902 1.598 1.598 1.598 4.262 0 5.902l-6.148 6.148c-1.803 1.803-3.279 1.967-4.344 1.926-1.066-.041-1.68-.533-1.68-.533-.644-.366-1.435-.361-2.074.014-.639.375-1.03 1.062-1.025 1.803.005.741.405 1.423 1.049 1.789.644.366 1.393.902 3.443 1.025 2.049.123 4.918-.656 7.418-3.197l6.148-6.148c3.197-3.197 3.197-8.361 0-11.516-1.148-1.148-2.5-1.844-3.975-2.172-.738-.164-1.557-.164-2.295-.123v-.041zm-8.197 9.467c-2.049-.082-4.877.615-7.295 3.074l-6.148 6.148c-3.197 3.197-3.197 8.361 0 11.516 2.295 2.295 5.574 2.951 8.443 1.926 1.107-.41 2.172-1.025 3.074-1.926.71-.45 1.073-1.288.916-2.114-.157-.826-.803-1.472-1.629-1.629-.826-.157-1.664.206-2.114.916-.451.451-.984.697-1.557.902-1.434.492-3.197.287-4.344-.902-1.598-1.598-1.598-4.262 0-5.902l6.148-6.148c1.639-1.639 3.074-1.844 4.221-1.803 1.148.041 1.926.369 1.926.369.656.492 1.543.546 2.254.135.711-.41 1.108-1.205 1.01-2.02-.098-.815-.673-1.492-1.461-1.722-.788-.23-1.393-.82-3.443-.902v.082z" sketch:type="MSShapeGroup" fill="#000"/></svg>