<svg width="33" height="34" viewBox="0 0 33 34" xmlns="http://www.w3.org/2000/svg" xmlns:sketch="http://www.bohemiancoding.com/sketch/ns"><title>link-broken</title><desc>Created with Sketch.</desc><path d="M8.311.541v4.098h-4.098v4.098h8.197v-8.197h-4.098zm15.902.123c-.738.041-1.475.123-2.172.369-1.107.41-2.172 1.025-3.074 1.926l-1.803 1.803c-.71.45-1.073 1.288-.916 2.114.157.826.803 1.472 1.629 1.629.826.157 1.664-.206 2.114-.916l1.803-1.803c.451-.451.984-.697 1.557-.902 1.434-.492 3.197-.287 4.344.902 1.598 1.598 1.598 4.262 0 5.902l-6.148 6.148c-.71.45-1.073 1.288-.916 2.114.157.826.803 1.472 1.629 1.629.826.157 1.664-.206 2.114-.916l6.148-6.148c3.197-3.197 3.197-8.361 0-11.516-1.148-1.148-2.5-1.844-3.975-2.172-.738-.164-1.557-.164-2.295-.123l-.041-.041zm-14.713 11.926c-.311.15-.578.375-.779.656l-6.148 6.148c-3.197 3.197-3.197 8.361 0 11.516 2.295 2.295 5.574 2.951 8.443 1.926 1.107-.41 2.172-1.025 3.074-1.926l1.803-1.803c.71-.45 1.073-1.288.916-2.114-.157-.826-.803-1.472-1.629-1.629-.826-.157-1.664.206-2.114.916l-1.803 1.803c-.451.451-.984.697-1.557.902-1.434.492-3.197.287-4.344-.902-1.598-1.598-1.598-4.262 0-5.902l6.148-6.148c.61-.635.746-1.59.337-2.37s-1.271-1.212-2.141-1.072h-.246.041zm11.148 12.541v8.197h4.098v-4.098h4.098v-4.098h-8.197z" sketch:type="MSShapeGroup" fill="#000"/></svg>