<svg width="34" height="34" viewBox="0 0 34 34" xmlns="http://www.w3.org/2000/svg" xmlns:sketch="http://www.bohemiancoding.com/sketch/ns"><title>magnifying-glass</title><desc>Created with Sketch.</desc><path d="M14.721.475c-7.91 0-14.344 6.434-14.344 14.344 0 7.91 6.434 14.344 14.344 14.344 2.418 0 4.795-.574 6.803-1.68.161.194.339.372.533.533l4.098 4.098c1.031 1.16 2.62 1.654 4.127 1.281 1.507-.372 2.684-1.549 3.056-3.056.372-1.507-.121-3.096-1.281-4.127l-4.098-4.098c-.2-.2-.419-.378-.656-.533 1.107-2.008 1.803-4.344 1.803-6.803 0-7.91-6.434-14.344-14.344-14.344l-.041.041zm0 4.098c5.697 0 10.246 4.549 10.246 10.246 0 2.705-.984 5.205-2.705 7.049l-.123.123c-.194.161-.372.339-.533.533-1.803 1.639-4.262 2.582-6.926 2.582-5.697 0-10.246-4.549-10.246-10.246s4.549-10.246 10.246-10.246l.041-.041z" sketch:type="MSShapeGroup" fill="#000"/></svg>