<svg width="34" height="34" viewBox="0 0 34 34" xmlns="http://www.w3.org/2000/svg" xmlns:sketch="http://www.bohemiancoding.com/sketch/ns"><title>monitor</title><desc>Created with Sketch.</desc><path d="M2.262.41c-.872.293-1.441 1.131-1.393 2.049v20.492c0 1.132.917 2.049 2.049 2.049h10.246v4.098h-4.098c-2.254 0-4.098 1.844-4.098 4.098h24.59c0-2.254-1.844-4.098-4.098-4.098h-4.098v-4.098h10.246c1.132 0 2.049-.917 2.049-2.049v-20.492c0-1.132-.917-2.049-2.049-2.049h-28.689c-.123-.011-.246-.011-.369 0h-.287zm2.705 4.098h24.59v16.393h-24.59v-16.393z" sketch:type="MSShapeGroup" fill="#000"/></svg>