<svg width="30" height="34" viewBox="0 0 30 34" xmlns="http://www.w3.org/2000/svg" xmlns:sketch="http://www.bohemiancoding.com/sketch/ns"><title>paperclip</title><desc>Created with Sketch.</desc><path d="M21.23.41c-2.09 0-4.18.861-5.779 2.418l-11.393 11.148c-4.385 4.385-4.385 11.475 0 15.902 4.385 4.385 11.475 4.385 15.902 0l5.123-5.123-2.828-2.828-4.754 4.631-.369.533c-2.828 2.828-7.418 2.828-10.246 0-2.787-2.787-2.705-7.295 0-10.123l11.393-11.27c1.598-1.598 4.262-1.598 5.902 0 1.598 1.598 1.516 4.139 0 5.779l-10.246 10.123c-.41.41-1.107.41-1.557 0-.41-.41-.41-1.107 0-1.557l.246-.123 3.73-3.852-2.828-2.828-3.975 3.975c-1.967 1.967-1.967 5.205 0 7.172 1.967 1.967 5.205 2.008 7.172 0l10.246-10c3.197-3.197 3.197-8.361 0-11.516-1.598-1.598-3.648-2.418-5.779-2.418l.041-.041z" sketch:type="MSShapeGroup" fill="#000"/></svg>