<svg width="34" height="34" viewBox="0 0 34 34" xmlns="http://www.w3.org/2000/svg" xmlns:sketch="http://www.bohemiancoding.com/sketch/ns"><title>people</title><desc>Created with Sketch.</desc><path d="M23.148.311c-2.09 0-3.893 1.434-5 3.607 1.844 2.213 2.951 5.246 2.951 8.73 0 1.189-.123 2.254-.369 3.32.779.451 1.557.779 2.418.779 3.402 0 6.148-3.689 6.148-8.197 0-4.508-2.746-8.197-6.148-8.197v-.041zm-12.295 4.098c-3.402 0-6.148 3.689-6.148 8.197 0 4.508 2.746 8.197 6.148 8.197 3.402 0 6.148-3.689 6.148-8.197 0-4.508-2.746-8.197-6.148-8.197zm19.467 12.951c-1.762 2.09-4.18 3.361-6.926 3.443 1.107 1.557 1.803 3.443 1.803 5.492v2.705h8.197v-6.803c0-2.131-1.27-3.975-3.074-4.877v.041zm-26.639 4.098c-1.803.902-3.074 2.746-3.074 4.877v6.803h20.492v-6.803c0-2.131-1.27-3.975-3.074-4.877-1.844 2.172-4.344 3.443-7.172 3.443-2.828 0-5.328-1.311-7.172-3.443z" sketch:type="MSShapeGroup" fill="#000"/></svg>