<svg width="22" height="34" viewBox="0 0 22 34" xmlns="http://www.w3.org/2000/svg" xmlns:sketch="http://www.bohemiancoding.com/sketch/ns"><title>phone</title><desc>Created with Sketch.</desc><path d="M1.352.311c-.451 0-.779.328-.779.779v31.27c0 .451.328.779.779.779h18.975c.451 0 .779-.328.779-.779v-31.27c0-.451-.328-.779-.779-.779h-18.975zm3.32 4.098h12.295v20.492h-12.295v-20.492zm6.148 22.541c1.148 0 2.049.902 2.049 2.049 0 1.148-.902 2.049-2.049 2.049-1.148 0-2.049-.902-2.049-2.049 0-1.148.902-2.049 2.049-2.049z" sketch:type="MSShapeGroup" fill="#000"/></svg>