<?xml version="1.0" encoding="UTF-8" standalone="no"?>
<svg width="16px" height="16px" viewBox="0 0 16 16" version="1.1" xmlns="http://www.w3.org/2000/svg" xmlns:xlink="http://www.w3.org/1999/xlink">
    <!-- Generator: Sketch 3.6.1 (26313) - http://www.bohemiancoding.com/sketch -->
    <title>phone</title>
    <desc>Created with Sketch.</desc>
    <defs></defs>
    <g id="Welcome" stroke="none" stroke-width="1" fill="none" fill-rule="evenodd">
        <g id="Header" transform="translate(-941.000000, -223.000000)" fill="#000000">
            <path d="M957,236.332 C957,236.03025 953.420875,233.775438 953.111313,233.775438 C952.80175,233.775438 951.762687,235.021562 951.482437,235.160125 C951.201187,235.298875 949.451187,235.249 947.501,233.298875 C945.549813,231.349625 944.883812,229.104562 944.883812,228.752 C944.883812,228.399438 946.51075,227.310625 946.555687,227.05475 C946.600625,226.798875 944.411125,223 944.055687,223 C943.70025,223 941,226.281187 941,226.554625 C941,226.828062 941.247062,230.345625 945.701187,234.79875 C950.155313,239.251875 953.088875,238.996062 953.445312,238.998 C953.80175,238.999 957,236.63375 957,236.332 Z" id="phone"></path>
        </g>
    </g>
</svg>