<svg width="34" height="34" viewBox="0 0 34 34" xmlns="http://www.w3.org/2000/svg" xmlns:sketch="http://www.bohemiancoding.com/sketch/ns"><title>pie-chart</title><desc>Created with Sketch.</desc><path d="M14.754.41c-3.975 0-7.541 1.639-10.123 4.221l12.172 12.172v-16.27c-.656-.082-1.352-.123-2.049-.123zm6.148 4.344v13.975l-11.148 11.148c2.5 2.049 5.615 3.32 9.098 3.32 7.91 0 14.344-6.434 14.344-14.344 0-7.213-5.369-13.074-12.295-14.098zm-16.762 5.369c-2.295 2.213-3.73 5.287-3.73 8.73 0 3.934 1.885 7.336 4.754 9.59l8.73-8.73-9.754-9.59z" sketch:type="MSShapeGroup" fill="#000"/></svg>