<svg width="29" height="34" viewBox="0 0 29 34" xmlns="http://www.w3.org/2000/svg" xmlns:sketch="http://www.bohemiancoding.com/sketch/ns"><title>pin</title><desc>Created with Sketch.</desc><path d="M5.836.41c-1.132.181-1.902 1.245-1.721 2.377.181 1.132 1.245 1.902 2.377 1.721h2.049v8.197h-4.098c-2.254 0-4.098 1.844-4.098 4.098h12.295v12.295l1.803 4.098 2.295-4.098v-12.295h12.295c0-2.254-1.844-4.098-4.098-4.098h-4.098v-8.197h2.049c1.132 0 2.049-.917 2.049-2.049s-.917-2.049-2.049-2.049h-16.393c-.123-.011-.246-.011-.369 0h-.287z" sketch:type="MSShapeGroup" fill="#000"/></svg>