<svg width="29" height="34" viewBox="0 0 29 34" xmlns="http://www.w3.org/2000/svg" xmlns:sketch="http://www.bohemiancoding.com/sketch/ns"><title>power-standby</title><desc>Created with Sketch.</desc><path d="M12.295.344v16.393h4.098v-16.393h-4.098zm-5.246 5.902l-1.557 1.27c-3.32 2.623-5.492 6.721-5.492 11.27 0 7.91 6.434 14.344 14.344 14.344 7.91 0 14.344-6.434 14.344-14.344 0-4.549-2.172-8.648-5.492-11.27l-1.557-1.27-2.582 3.197 1.557 1.27c2.377 1.885 3.975 4.795 3.975 8.074 0 5.697-4.549 10.246-10.246 10.246s-10.246-4.549-10.246-10.246c0-3.279 1.475-6.189 3.852-8.074l1.68-1.27-2.582-3.197z" sketch:type="MSShapeGroup" fill="#000"/></svg>