<svg width="22" height="34" viewBox="0 0 22 34" xmlns="http://www.w3.org/2000/svg" xmlns:sketch="http://www.bohemiancoding.com/sketch/ns"><title>question-mark</title><desc>Created with Sketch.</desc><path d="M11.025.344c-3.484 0-6.066 1.066-7.705 2.705-1.639 1.639-2.213 3.689-2.418 5.246l4.098.533c.164-1.025.492-2.049 1.27-2.828.779-.779 2.008-1.557 4.754-1.557 2.705 0 4.18.656 5 1.393.82.738 1.148 1.639 1.148 2.705 0 3.402-1.393 4.344-3.443 6.148-2.049 1.803-4.754 4.426-4.754 9.221v1.025h4.098v-1.025c0-3.402 1.27-4.344 3.32-6.148 2.049-1.803 4.877-4.426 4.877-9.221 0-1.967-.697-4.18-2.418-5.779-1.762-1.598-4.385-2.418-7.828-2.418zm-2.049 28.689v4.098h4.098v-4.098h-4.098z" sketch:type="MSShapeGroup" fill="#000"/></svg>