<svg width="34" height="34" viewBox="0 0 34 34" xmlns="http://www.w3.org/2000/svg" xmlns:sketch="http://www.bohemiancoding.com/sketch/ns"><title>rss</title><desc>Created with Sketch.</desc><path d="M4.508.344v4.098c13.607 0 24.59 10.984 24.59 24.59h4.098c0-15.82-12.869-28.689-28.689-28.689zm0 8.197v4.098c9.057 0 16.393 7.336 16.393 16.393h4.098c0-11.311-9.18-20.492-20.492-20.492zm0 8.197v4.098c4.549 0 8.197 3.648 8.197 8.197h4.098c0-6.762-5.533-12.295-12.295-12.295zm0 8.197c-2.254 0-4.098 1.844-4.098 4.098 0 2.254 1.844 4.098 4.098 4.098 2.254 0 4.098-1.844 4.098-4.098 0-2.254-1.844-4.098-4.098-4.098z" sketch:type="MSShapeGroup" fill="#000"/></svg>