<svg width="33" height="29" viewBox="0 0 33 29" xmlns="http://www.w3.org/2000/svg" xmlns:sketch="http://www.bohemiancoding.com/sketch/ns"><title>spreadsheet</title><desc>Created with Sketch.</desc><path d="M3.074.279c-1.68 0-3.074 1.393-3.074 3.074v22.541c0 1.68 1.393 3.074 3.074 3.074h26.639c1.68 0 3.074-1.393 3.074-3.074v-22.541c0-1.68-1.393-3.074-3.074-3.074h-26.639zm1.025 4.098h4.098v4.098h-4.098v-4.098zm8.197 0h16.393v4.098h-16.393v-4.098zm-8.197 8.197h4.098v4.098h-4.098v-4.098zm8.197 0h16.393v4.098h-16.393v-4.098zm-8.197 8.197h4.098v4.098h-4.098v-4.098zm8.197 0h16.393v4.098h-16.393v-4.098z" sketch:type="MSShapeGroup" fill="#000"/></svg>