<svg width="34" height="34" viewBox="0 0 34 34" xmlns="http://www.w3.org/2000/svg" xmlns:sketch="http://www.bohemiancoding.com/sketch/ns"><title>target</title><desc>Created with Sketch.</desc><path d="M17.066.279c-9.016 0-16.393 7.377-16.393 16.393 0 9.016 7.377 16.393 16.393 16.393 9.016 0 16.393-7.377 16.393-16.393 0-9.016-7.377-16.393-16.393-16.393zm0 4.098c6.803 0 12.295 5.492 12.295 12.295s-5.492 12.295-12.295 12.295-12.295-5.492-12.295-12.295 5.492-12.295 12.295-12.295zm0 4.098c-4.508 0-8.197 3.689-8.197 8.197 0 4.508 3.689 8.197 8.197 8.197 4.508 0 8.197-3.689 8.197-8.197 0-4.508-3.689-8.197-8.197-8.197zm0 4.098c2.295 0 4.098 1.803 4.098 4.098s-1.803 4.098-4.098 4.098-4.098-1.803-4.098-4.098 1.803-4.098 4.098-4.098z" sketch:type="MSShapeGroup" fill="#000"/></svg>