<svg width="30" height="29" viewBox="0 0 30 29" xmlns="http://www.w3.org/2000/svg" xmlns:sketch="http://www.bohemiancoding.com/sketch/ns"><title>thumb-down</title><desc>Created with Sketch.</desc><path d="M.475.279v16.393h4.098v-16.393h-4.098zm8.197 0v16.393c1.148 0 2.172.369 2.951 1.148.779.779 4.713 8.689 5.246 9.754.533 1.066 1.598 1.598 2.705 1.27 1.066-.328 1.639-1.475 1.27-2.582-.328-1.066-1.926-6.516-1.926-7.541 0-1.025.902-2.049 2.049-2.049h6.148c1.148 0 2.049-.902 2.049-2.049 0-1.148-4.221-13.074-4.221-13.074-.328-.738-1.066-1.27-1.926-1.27h-14.344z" sketch:type="MSShapeGroup" fill="#000"/></svg>