<svg width="30" height="30" viewBox="0 0 30 30" xmlns="http://www.w3.org/2000/svg" xmlns:sketch="http://www.bohemiancoding.com/sketch/ns"><title>thumb-up</title><desc>Created with Sketch.</desc><path d="M18.73.377c-.779.082-1.516.615-1.926 1.393-.533 1.066-4.467 8.975-5.246 9.754-.779.779-1.803 1.148-2.951 1.148v16.393h14.344c.861 0 1.598-.533 1.926-1.27 0 0 4.221-11.926 4.221-13.074 0-1.148-.902-2.049-2.049-2.049h-6.148c-1.148 0-2.049-1.025-2.049-2.049 0-1.025 1.598-6.475 1.926-7.541.328-1.066-.205-2.213-1.27-2.582-.287-.082-.492-.164-.779-.123zm-18.32 12.295v16.393h4.098v-16.393h-4.098z" sketch:type="MSShapeGroup" fill="#000"/></svg>