<svg width="29" height="34" viewBox="0 0 29 34" xmlns="http://www.w3.org/2000/svg" xmlns:sketch="http://www.bohemiancoding.com/sketch/ns"><title>trash</title><desc>Created with Sketch.</desc><path d="M12.574.279c-2.254 0-4.098 1.844-4.098 4.098h-4.098c-2.254 0-4.098 1.844-4.098 4.098h28.689c0-2.254-1.844-4.098-4.098-4.098h-4.098c0-2.254-1.844-4.098-4.098-4.098h-4.098zm-8.197 12.295v19.713c0 .451.328.779.779.779h18.975c.451 0 .779-.328.779-.779v-19.713h-4.098v14.344c0 1.148-.902 2.049-2.049 2.049-1.148 0-2.049-.902-2.049-2.049v-14.344h-4.098v14.344c0 1.148-.902 2.049-2.049 2.049-1.148 0-2.049-.902-2.049-2.049v-14.344h-4.139z" sketch:type="MSShapeGroup" fill="#000"/></svg>