<svg width="29" height="33" viewBox="0 0 29 33" xmlns="http://www.w3.org/2000/svg" xmlns:sketch="http://www.bohemiancoding.com/sketch/ns"><title>warning</title><desc>Created with Sketch.</desc><path d="M12.762.213c-.246 0-.41.164-.533.369l-12.049 27.91c-.082.205-.123.533-.123.779v3.32c0 .205.164.369.369.369h27.91c.205 0 .369-.164.369-.369v-3.32c0-.205-.041-.574-.123-.779l-12.049-27.91c-.082-.205-.287-.369-.533-.369h-3.32.082zm-.369 12.295h4.098v8.197h-4.098v-8.197zm0 12.295h4.098v4.098h-4.098v-4.098z" sketch:type="MSShapeGroup" fill="#000"/></svg>