<svg xmlns="http://www.w3.org/2000/svg" xmlns:xlink="http://www.w3.org/1999/xlink" xmlns:sketch="http://www.bohemiancoding.com/sketch/ns" viewBox="0 0 100 100" version="1.1" x="0px" y="0px"><title>info copy</title><desc>Created with Sketch.</desc><g stroke="none" stroke-width="1" fill="none" fill-rule="evenodd" sketch:type="MSPage"><g sketch:type="MSLayerGroup" fill="#000000"><path d="M50,94 C74.300529,94 94,74.300529 94,50 C94,25.699471 74.300529,6 50,6 C25.699471,6 6,25.699471 6,50 C6,74.300529 25.699471,94 50,94 L50,94 Z M50,86 C69.882251,86 86,69.882251 86,50 C86,30.117749 69.882251,14 50,14 C30.117749,14 14,30.117749 14,50 C14,69.882251 30.117749,86 50,86 L50,86 Z M57,31.0133172 C57,32.6705306 56.4306298,34.0850802 55.2864929,35.2480887 C54.1450542,36.4170162 52.7688521,37 51.1605842,37 C49.5469191,37 48.1680187,36.4170162 47.0130881,35.2480887 C45.8608557,34.0850802 45.2833907,32.6705306 45.2833907,31.0133172 C45.2833907,29.3590629 45.8608557,27.9415534 47.0130881,26.7637478 C48.1653198,25.5859429 49.5469191,25 51.1605842,25 C52.7688521,25 54.1450542,25.588902 55.2864929,26.7637478 C56.4306298,27.9415534 57,29.3590629 57,31.0133172 L57,31.0133172 Z M56.4274427,70.4663887 C54.7097712,71.2918186 53.3361051,71.9194895 52.3135135,72.3522672 C51.290922,72.7850441 50.1010393,73 48.7462234,73 C46.6656965,73 45.0469853,72.3809276 43.8924458,71.1485145 C42.7379069,69.9132362 42.1606375,68.3454924 42.1606375,66.4452837 C42.1606375,65.7087024 42.2030488,64.9520583 42.2902281,64.181084 C42.3774081,63.4101097 42.5164236,62.5388226 42.7072764,61.5672226 L44.856133,52.3212607 C45.0469853,51.4356433 45.2095631,50.5958832 45.3391544,49.8019796 C45.4711017,49.0138092 45.5347193,48.2886914 45.5347193,47.6352268 C45.5347193,46.4544027 45.3344423,45.6289728 44.9338876,45.1646688 C44.5333329,44.7003648 43.7699239,44.4653462 42.6365901,44.4653462 C42.0805263,44.4653462 41.5103256,44.5742567 40.9283435,44.7834808 C40.3440053,44.9927042 40,42.5336106 40,42.5336106 C41.4066527,41.8371546 42.7520444,41.2410108 44.0385306,40.7451791 C45.3250169,40.2493481 46.5408179,40 47.6906447,40 C49.7570341,40 51.352183,40.6076074 52.4713793,41.8228237 C53.5905756,43.0380399 54.1513514,44.6143822 54.1513514,46.5575821 C54.1513514,46.9588321 54.1136522,47.6667531 54.0358977,48.6784777 C53.9581425,49.693069 53.8144143,50.6216777 53.6047125,51.4671703 L51.4652807,60.6787386 C51.290922,61.4181866 51.1330563,62.2636792 50.9963962,63.2152158 C50.8550241,64.1610213 50.7866944,64.8832724 50.7866944,65.3676391 C50.7866944,66.5914538 51.0105338,67.4254821 51.4605686,67.8697234 C51.9129594,68.3139654 52.692862,68.534653 53.8002774,68.534653 C54.320998,68.534653 54.912405,68.4228766 55.5697856,68.202189 C56.2271656,67.9815005 56.4274427,70.4663887 56.4274427,70.4663887 L56.4274427,70.4663887 Z" sketch:type="MSShapeGroup"></path></g></g></svg>