<svg width="18" height="34" viewBox="0 0 18 34" xmlns="http://www.w3.org/2000/svg" xmlns:sketch="http://www.bohemiancoding.com/sketch/ns"><title>info</title><desc>Created with Sketch.</desc><path d="M13.164.541c-2.254 0-4.098 1.844-4.098 4.098 0 2.254 1.844 4.098 4.098 4.098 2.254 0 4.098-1.844 4.098-4.098 0-2.254-1.844-4.098-4.098-4.098zm-6.148 10.246c-3.402 0-6.148 2.746-6.148 6.148h4.098c0-1.148.902-2.049 2.049-2.049 1.148 0 2.049.902 2.049 2.049 0 1.148-4.098 6.721-4.098 10.246 0 3.525 2.746 6.148 6.148 6.148 3.402 0 6.148-2.746 6.148-6.148h-4.098c0 1.148-.902 2.049-2.049 2.049-1.148 0-2.049-.902-2.049-2.049 0-1.475 4.098-7.541 4.098-10.246 0-3.32-2.746-6.148-6.148-6.148z" sketch:type="MSShapeGroup" fill="#000"/></svg>