<?xml version="1.0" encoding="UTF-8"?>
<svg width="103px" height="112px" viewBox="0 0 103 112" version="1.1" xmlns="http://www.w3.org/2000/svg" xmlns:xlink="http://www.w3.org/1999/xlink">
    <!-- Generator: Sketch 40.3 (33839) - http://www.bohemiancoding.com/sketch -->
    <title>logo</title>
    <desc>Created with Sketch.</desc>
    <defs>
        <linearGradient x1="-0.025%" y1="50.0676674%" x2="99.975%" y2="50.0676674%" id="linearGradient-1">
            <stop stop-color="#783D8F" offset="0%"></stop>
            <stop stop-color="#682782" offset="100%"></stop>
        </linearGradient>
        <linearGradient x1="38.1555556%" y1="-30.2636364%" x2="51.3555556%" y2="58.5363636%" id="linearGradient-2">
            <stop stop-color="#FFFFFF" offset="0%"></stop>
            <stop stop-color="#FFFFFF" stop-opacity="0.8" offset="100%"></stop>
        </linearGradient>
        <linearGradient x1="34.1555556%" y1="7.18461538%" x2="68.1555556%" y2="63.5846154%" id="linearGradient-3">
            <stop stop-color="#FFFFFF" offset="0%"></stop>
            <stop stop-color="#FFFFFF" stop-opacity="0.8" offset="100%"></stop>
        </linearGradient>
        <linearGradient x1="63.5326241%" y1="68.7111111%" x2="35.3326241%" y2="29.5111111%" id="linearGradient-4">
            <stop stop-color="#FFFFFF" offset="0%"></stop>
            <stop stop-color="#FFFFFF" stop-opacity="0.8" offset="100%"></stop>
        </linearGradient>
        <linearGradient x1="82.8555556%" y1="50.1184211%" x2="1.35555556%" y2="50.1184211%" id="linearGradient-5">
            <stop stop-color="#FFFFFF" offset="0%"></stop>
            <stop stop-color="#FFFFFF" stop-opacity="0.5" offset="100%"></stop>
        </linearGradient>
        <linearGradient x1="49.9754717%" y1="185.428862%" x2="49.9754717%" y2="280.260251%" id="linearGradient-6">
            <stop stop-color="#1E1E1C" offset="0%"></stop>
            <stop stop-color="#1E1E1C" stop-opacity="0" offset="100%"></stop>
        </linearGradient>
        <linearGradient x1="-0.924528302%" y1="49.9111111%" x2="99.6754717%" y2="49.9111111%" id="linearGradient-7">
            <stop stop-color="#FFFFFF" offset="0%"></stop>
            <stop stop-color="#FFFFFF" stop-opacity="0.8" offset="100%"></stop>
        </linearGradient>
        <linearGradient x1="-302.604794%" y1="49.9982729%" x2="-206.716017%" y2="49.9982729%" id="linearGradient-8">
            <stop stop-color="#1E1E1C" offset="0%"></stop>
            <stop stop-color="#1E1E1C" stop-opacity="0" offset="100%"></stop>
        </linearGradient>
    </defs>
    <g id="Page-1" stroke="none" stroke-width="1" fill="none" fill-rule="evenodd">
        <g id="logo">
            <g id="Page-1">
                <g id="Group-2">
                    <g id="census-corner">
                        <g id="Group" opacity="0.61" fill="url(#linearGradient-1)">
                            <path d="M43.1,56.5 L43.1,65.3 L22.3,65.3 L22.3,22 L43,22 L43,30.8 L64.6,30.8 L64.6,21.9 L43,0.4 L22.2,0.4 C20.6,2 1.5,21.2 0.7,22 L0.7,65.5 L22.3,87 L22.3,86.9 L43,86.9 L64.6,65.3 L64.7,65.3 L64.7,56.5 L43.1,56.5 L43.1,56.5 Z" id="Shape_1_"></path>
                        </g>
                        <polygon id="Shape_2_" fill="url(#linearGradient-2)" points="43.2 56.4 64.8 56.4 64.8 65.2 43.2 65.2"></polygon>
                        <polygon id="Shape_3_" fill="url(#linearGradient-3)" points="0.8 65.3 22.4 86.9 22.4 21.9 0.8 21.9"></polygon>
                        <polygon id="Shape_4_" fill="url(#linearGradient-4)" points="64.7 65.2 43.1 86.8 22.4 86.8 22.4 65.2"></polygon>
                        <polygon id="Shape_5_" fill="url(#linearGradient-5)" points="43.1 30.7 64.7 30.7 64.7 21.7 43.1 0.3"></polygon>
                        <path d="M54.6,103.3 L58.1,103.7 C58,106.1 57.2,107.9 55.6,109.5 C52.3,112.8 48.1,112.9 44.2,108.9 C44.1,108.8 43.4,108 43.3,108 C38.9,103.4 40.2,99.1 42.8,96.5 C44.4,94.9 46.6,94.1 49.5,94.7 L48.9,98.4 C44.8,97.7 42.2,100.8 47,105.5 C51.2,109.8 54.4,107.6 54.6,103.3 L54.6,103.3 Z M69.6,95.1 C61.1,86.6 63,88.3 60.3,86.3 L62.8,83.8 L63.9,84.6 C63.7,83.3 64.1,82 65.2,80.8 C66.9,79.1 69,78.9 71.2,81.1 L77.4,87.3 L74.4,90.3 C68,83.9 67.6,83 66.6,84 C65.9,84.7 66,85.7 66.8,86.5 L72.5,92.2 L69.6,95.1 L69.6,95.1 Z M77,82.2 C78.8,81.8 82,80.3 80.7,79 C79.4,77.7 76.2,82.4 73,79.2 C69.6,75.8 73.9,70.6 78.4,70.4 L78.7,73.4 C75.8,73.8 74.7,75.2 75.5,76 C76.9,77.4 80.2,72.7 83.3,75.8 C87.1,79.7 81.5,84.4 78.1,85 L77,82.2 L77,82.2 Z M86.7,60 C95.3,68.6 93.5,66.9 95.9,68.9 L93.4,71.4 L92.4,70.7 L92.3,70.8 C92.5,72.1 92,73.3 91,74.2 C89,76.2 86.9,76.1 84.8,74 L78.7,67.9 L81.7,64.9 C88.2,71.4 88.5,72.2 89.6,71.1 C90.2,70.5 90.2,69.5 89.5,68.8 L83.7,63 L86.7,60 L86.7,60 Z M95.4,63.9 C97.2,63.5 100.4,62 99.1,60.7 C97.8,59.4 94.6,64.1 91.4,60.9 C88,57.5 92.3,52.3 96.8,52.1 L97.1,55.1 C94.2,55.5 93.1,56.9 93.9,57.7 C95.3,59.1 98.6,54.4 101.7,57.5 C105.5,61.4 99.9,66.2 96.5,66.7 L95.4,63.9 L95.4,63.9 Z M63.9,93.2 L59.2,97.9 C61.7,100.2 64.1,97.5 64.5,94.9 L67.4,96 C67.4,98 62.1,106.5 55.7,100.1 C53.1,97.5 52.3,93.8 55.3,90.7 C58.5,87.6 62.1,89.3 63.9,93.2 L63.9,93.2 Z M57.6,96.2 L60,93.8 C59.2,92.7 58.3,92 57.3,92.9 C56.4,93.8 56.7,95.1 57.6,96.2 L57.6,96.2 Z" id="Shape_6_" fill="#FFFFFF"></path>
                        <g id="Group_1_" opacity="0.47" transform="translate(0.000000, 21.000000)" fill="url(#linearGradient-6)">
                            <path d="M43.1,0.9 L0.7,0.9 C11.2,4.8 31.5,5.3 43.1,0.9 L43.1,0.9 Z" id="Shape_7_"></path>
                        </g>
                        <polygon id="Shape_8_" fill="url(#linearGradient-7)" points="43.1 0.3 22.3 0.3 0.8 21.9 43.2 21.9"></polygon>
                        <g id="Group_2_" opacity="0.47" transform="translate(22.000000, 29.000000)" fill="url(#linearGradient-8)">
                            <path d="M2.7,26.6 C2.3,17.2 1.6,7.5 0.4,0 L0.4,57.9 C1.9,46.6 3.1,35.2 2.7,26.6 L2.7,26.6 Z" id="Shape_9_"></path>
                        </g>
                    </g>
                    <path d="M9.4,64.9 C8.6,64 8,63.1 8,62.3 C8,61.7 8.3,61.2 9.1,61.2 C10,61.2 10.5,61.6 11.4,62.4 L16.1,66.5 L18.1,66.5 L18.1,57.2 L15.4,57.2 L15.4,61.8 L12.6,59.3 C11.3,58.1 10.2,57.5 8.7,57.5 C6.5,57.5 5,58.9 5,61.6 C5,63.4 5.9,65.2 7.2,66.5 L9.4,64.9 L9.4,64.9 Z M4.9,51.3 C4.9,54.2 6.9,56.2 11.5,56.2 C16.1,56.2 18.2,54.6 18.2,51.4 C18.2,48.3 16.3,46.5 11.5,46.5 C6.9,46.5 4.9,48.3 4.9,51.3 L4.9,51.3 Z M15.6,51.4 C15.6,52.3 14.6,52.9 11.8,52.9 C8.6,52.9 7.7,52.3 7.7,51.4 C7.7,50.5 8.6,49.9 11.6,49.9 C14.8,49.8 15.6,50.5 15.6,51.4 L15.6,51.4 Z M15.6,44.2 L18.1,44.2 L18.1,36.6 L15.6,36.6 L15.6,38.7 L7.7,38.7 L5.2,38.5 L5.2,41.3 L7.7,45.4 L9.9,44.2 L8.9,42 L15.6,42 L15.6,44.2 L15.6,44.2 Z M7.9,35.5 L7.9,30.7 C11,33.6 14.3,33.9 16.6,33.9 L18,33.9 L18,30.4 L16.7,30.4 C15,30.4 10.5,30.3 7.3,26.4 L5.1,26.4 L5.1,35.5 L7.9,35.5 L7.9,35.5 Z" id="_x32_017" fill="#6D2D86"></path>
                </g>
            </g>
        </g>
    </g>
</svg>