<?xml version="1.0" standalone="no"?>
<!DOCTYPE svg PUBLIC "-//W3C//DTD SVG 20010904//EN"
 "http://www.w3.org/TR/2001/REC-SVG-20010904/DTD/svg10.dtd">
<svg version="1.0" xmlns="http://www.w3.org/2000/svg"
 width="16.000000pt" height="16.000000pt" viewBox="0 0 16.000000 16.000000"
 preserveAspectRatio="xMidYMid meet">
<metadata>
Created by potrace 1.11, written by Peter Selinger 2001-2013
</metadata>
<g transform="translate(0.000000,16.000000) scale(0.004000,-0.004000)"
fill="#000000" stroke="none">
<path d="M1932 3869 c-50 -9 -66 -18 -342 -179 -243 -141 -288 -167 -301 -174
-8 -4 -23 -12 -34 -19 -35 -22 -159 -94 -195 -114 -19 -11 -73 -43 -120 -70
-47 -28 -101 -60 -120 -71 -341 -195 -439 -264 -426 -299 3 -8 2 -11 -4 -8
-10 6 -27 -21 -42 -69 -15 -47 -19 -388 -5 -405 8 -10 8 -12 1 -8 -14 8 -14
-411 0 -432 6 -9 5 -12 -1 -8 -5 4 -9 -25 -10 -73 0 -56 3 -78 11 -73 7 4 7 1
-1 -8 -14 -18 -14 -58 1 -78 8 -11 8 -13 -1 -8 -15 10 -15 -52 1 -72 8 -11 8
-13 0 -8 -15 8 -14 -115 1 -125 7 -5 6 -8 -1 -8 -15 0 -11 -402 4 -449 15 -46
58 -110 96 -143 35 -31 1379 -817 1441 -842 49 -21 146 -24 200 -6 22 7 69 30
105 50 36 21 81 47 100 58 19 10 130 75 245 142 116 68 223 131 238 139 16 9
36 21 46 26 9 6 171 100 360 210 206 120 358 216 382 239 40 41 78 110 87 161
3 17 5 404 5 860 l0 830 -22 57 c-37 96 -76 126 -462 350 -195 113 -368 214
-386 224 -88 52 -415 242 -538 313 -162 93 -214 108 -313 90z"/>
</g>
</svg>
