<?xml version="1.0" encoding="UTF-8" standalone="no"?><svg width="36" height="36" viewBox="-10 -10 36 36" xmlns="http://www.w3.org/2000/svg"><title>phone</title><path d="M16 13.332c0-.302-3.58-2.557-3.889-2.557-.31 0-1.348 1.247-1.629 1.385-.28.139-2.03.089-3.981-1.861S3.884 6.105 3.884 5.752c0-.353 1.627-1.441 1.672-1.697C5.6 3.799 3.41 0 3.056 0 2.7 0 0 3.281 0 3.555c0 .273.247 3.79 4.701 8.244 4.454 4.453 7.388 4.197 7.744 4.199.357.001 3.555-2.364 3.555-2.666z" fill="#000" fill-rule="evenodd"/></svg>