<?xml version="1.0" encoding="utf-8"?><svg width="36.94" height="52" viewBox="-10.62 -10.62 39.25 55.25" xmlns="http://www.w3.org/2000/svg"><title>info</title><path d="M13.164.541a4.11 4.11 0 0 0-4.098 4.098 4.11 4.11 0 0 0 4.098 4.098 4.11 4.11 0 0 0 4.098-4.098A4.11 4.11 0 0 0 13.164.541zM7.016 10.787a6.14 6.14 0 0 0-6.148 6.148h4.098c0-1.148.902-2.049 2.049-2.049 1.148 0 2.049.902 2.049 2.049 0 1.148-4.098 6.721-4.098 10.246 0 3.525 2.746 6.148 6.148 6.148a6.14 6.14 0 0 0 6.148-6.148h-4.098a2.029 2.029 0 0 1-2.049 2.049 2.029 2.029 0 0 1-2.049-2.049c0-1.475 4.098-7.541 4.098-10.246 0-3.32-2.746-6.148-6.148-6.148z"/></svg>