<?xml version="1.0" encoding="utf-8"?><svg xmlns="http://www.w3.org/2000/svg" viewBox="-31.25 -31.25 162.5 162.5" width="52" height="52"><title>info copy</title><path d="M50 94c24.3 0 44-19.7 44-44S74.3 6 50 6 6 25.7 6 50s19.7 44 44 44zm0-8c19.882 0 36-16.118 36-36S69.882 14 50 14 14 30.118 14 50s16.118 36 36 36zm7-54.987c0 1.658-.57 3.072-1.714 4.235C54.146 36.417 52.77 37 51.161 37c-1.614 0-2.993-.583-4.148-1.752-1.152-1.163-1.73-2.577-1.73-4.235 0-1.654.578-3.071 1.73-4.25C48.165 25.587 49.547 25 51.161 25c1.608 0 2.984.589 4.125 1.764C56.431 27.942 57 29.359 57 31.014zm-.573 39.453a99.712 99.712 0 0 1-4.113 1.886c-1.023.433-2.213.648-3.568.648-2.08 0-3.699-.62-4.854-1.851-1.154-1.236-1.731-2.804-1.731-4.704 0-.736.042-1.493.13-2.264.086-.77.225-1.642.416-2.614l2.15-9.246c.19-.885.353-1.725.482-2.519.132-.788.196-1.513.196-2.167 0-1.18-.2-2.006-.601-2.47-.4-.465-1.164-.7-2.297-.7-.556 0-1.127.11-1.709.318-.584.21-.928-2.25-.928-2.25a48.22 48.22 0 0 1 4.039-1.788C45.325 40.25 46.54 40 47.69 40c2.066 0 3.661.608 4.78 1.823 1.12 1.215 1.68 2.791 1.68 4.735 0 .4-.037 1.109-.115 2.12a16.992 16.992 0 0 1-.431 2.79l-2.14 9.21c-.174.74-.332 1.586-.469 2.537-.141.946-.21 1.668-.21 2.153 0 1.223.225 2.057.675 2.502.452.444 1.232.665 2.34.665.52 0 1.111-.112 1.769-.333.657-.22.857 2.264.857 2.264z" fill="#000" fill-rule="evenodd"/></svg>