<svg width="130" height="106" viewBox="0 0 98 80" xmlns="http://www.w3.org/2000/svg"><title>crest</title><g fill="none" fill-rule="evenodd" opacity=".728"><path d="M38.187 52.396c-43.22-56.5-.977.674-1.066.762-.058-.088-.532-.762-.59-.85.118-.088 1.065-.762 1.065-.762l-.622-.88-2.99 2.11.622.88c-11.278-57.76.977-.674 1.066-.762.06.088.534.762.593.85-.12.088-1.066.76-1.066.76l.622.88 2.99-2.11-.623-.878zm-1.747-2.843c0-2.198-2.812-2.754-3.61-.908-.208.47-.208.996 0 1.523.798 2.052 3.61 1.407 3.61-.615zm-2.19-.88c.592-.233 1.154.235 1.154.88 0 .322-.207.615-.533.733-1.035.38-1.627-1.202-.62-1.612zM50.353 68.66c.237 0 .474.204.652.527.207-.38.325-.762.325-1.055 0-.498-.385-1.172-1.184-1.172-1.362 0-1.036 1.875-1.687 1.875-.297 0-.504-.176-.504-.47 0-.936 2.427-1.405-.504-3.808-.77.615-1.45 1.26-1.45 2.022 0 .76.947 1.26.947 1.786 0 .293-.208.47-.504.47-.65 0-.326-1.876-1.687-1.876-.8 0-1.186.674-1.186 1.172 0 .293.12.674.326 1.055.178-.352.444-.528.68-.528 1.007 0 .623 2.695 1.836 2.695.533 0 .83-.35.83-.732 0-.38-.267-.498-.267-.79 0-.558 1.005-.558 1.005 0 0 .292-.266.41-.266.79 0 .38.295.732.798.732 1.184 0 .8-2.696 1.835-2.696zm-9.028-14.653c-.888 0-1.806.85-2.428 1.495-.266-.06-.503-.117-.888-.176.088.264.236.527.414.82-.415.645-.83 1.495-.83 2.228 0 .38.445 1.172 1.126 1.523.444.206.917.206 1.36-.058-.235-.148-.56-.324-.798-.47l-.118-.06c-.948-.526-.474-1.2.148-2.167 1.51.908 2.072-.117.8-1.114 1.094-1.29 1.33-1.583 2.426-.733.148.117.296.234.444.322-.06-.323-.207-.675-.444-.968-.325-.41-.77-.645-1.213-.645zm2.842 3.868c-1.392 0-1.392 2.14 0 2.14 1.42 0 1.42-2.14 0-2.14zm4.677 1.64c-.533 0-.977.44-.977.97 0 .526.444.966.977.966.533 0 .977-.44.977-.966 0-.528-.414-.968-.976-.968zm1.302-34.343l-.71 3.692 1.036.206.74-3.693-1.066-.205zm-5.27 20.953h-.117c-.238 0-.416-.147-.386-.41.03-.264.266-.352.444-.323h.148c.06-.586 0-.733-.296-.733-.355 0-1.036.35-1.895.703l1.806 2.578.297-1.815zm10.895-13.95l.622-.204.71.91-.355.673.71.967 1.925-3.75-.444-.558-4.026 1.173.86.79zm1.984-.585l-.207.38-.207-.263.414-.117zm-3.05-4.953l-.71-.38-2.13 3.076.946.5 1.036-1.496.178 1.172 1.066-.294-1.096 1.465.86.617 2.22-2.99-.652-.497-1.48.35-.237-1.523z"></path><path d="M39.667 26.168c4.144-2.783 11.338-2.813 15.54 0 .86-.527 1.244-1.025 1.244-1.61 0-2.14-5.978-2.316-8.998-2.316-3.05 0-9 .176-9 2.315-.028.586.357 1.084 1.215 1.61zm7.785 45.48c-.888 0-.888 1.348 0 1.348.86-.03.888-1.348 0-1.348zm3.434-24c-.03 0-.177-.088-.266-.146.09.117 0 .146.06.205.088.06.177 0 .206-.06zm-.237.85c.088.03.147-.03.177-.088.03-.058.03-.117.03-.117-.03-.03-.06-.088-.03-.117.03-.06.09-.03.148 0-.03-.06-.03-.088.03-.088s.03.088.06.088c.028 0 0-.06 0-.088 0-.03 0-.06-.06-.06l-.267-.116c-.03-.03-.06-.03-.09 0-.028.03-.058.03-.058.06 0 .028.06-.03.09 0 .03.028 0 .057-.06.057.06.03.118.058.09.117-.03.058-.06.058-.09.058s-.06.06-.09.088c.03.06.03.147.12.205zm.06-3.31c.087.057.176-.03.176-.09.03-.058.03-.116.03-.116-.03-.06-.06-.088-.03-.147.03-.058.09-.03.148 0-.03-.058-.03-.088 0-.088.06.03.03.117.06.088.03 0 .03-.058.03-.088 0-.03-.03-.058-.06-.058l-.267-.12c-.03 0-.06-.028-.088 0-.03.03-.06.03-.06.06.03.03.06-.03.118 0 .03.03 0 .06-.06.06.06.028.12.057.09.116-.03.058-.06.058-.12.058-.03 0-.058.06-.088.088.03.06.03.176.12.235zm.235-.88c-.06 0-.207-.088-.296-.147.088.148 0 .148.088.236.09.03.178-.03.207-.088zm-3.05-14.77v13.13H58.82c-.03-1.73-.326-3.37-.888-4.954-.592-1.61-1.392-3.047-2.457-4.278-1.925-2.286-4.59-3.75-7.58-3.898zm7.816 4.953c-.058.265-.176.41-.324.528 1.154 1.67 1.894 3.663 2.19 5.685.296.03.444.323.356.498-.06.09-.148.177-.296.177v.118c.06.117.118.234.118.41-.178 0-.326-.06-.444-.117h-.06c0 .175-.06.263-.177.322-.148.088-.444-.03-.503-.322h-3.404c0 .175-.06.35-.237.527-.15-.176-.238-.352-.238-.527h-2.96c-.12.41-.652.41-.652 0h-.118c-.118.058-.237.117-.414.117 0-.176.06-.293.118-.41v-.088c-.178 0-.237-.088-.296-.176-.06-.146.03-.41.296-.497V36.22c-.178 0-.355-.088-.503-.235.148-.146.325-.205.503-.234v-4.16c-.414-.117-.414-.674 0-.674v-.03c-.09-.117-.148-.293-.148-.527.207.028.355.087.444.204.03 0 .06 0 .09.03.088-.382.62-.294.68.146 1.924.557 3.73 1.846 5.18 3.634.09.088.148.205.237.322.117-.147.325-.234.56-.205zm-4.498 13.45c.09 0 .06-.057.207-.087-.09-.03-.267-.087-.297-.117-.06.088-.03.205.09.205zm-.65 3.664c-.03-.03-.06-.058-.03-.117.03-.058.088-.03.147 0-.03-.058-.03-.088 0-.088.058 0 .03.087.058.087.03 0 0-.058 0-.088 0-.03-.03-.06-.06-.06l-.236-.117c-.03-.03-.06-.03-.09 0-.028 0-.058.03-.058.06 0 .028.06-.03.09 0 .03.028 0 .058-.06.058.06.03.09.06.09.118-.03.058-.06.058-.09.058s-.06.03-.09.088c-.03.06-.03.147.06.206.207.058.296-.147.267-.206zm-6.72.733L39.43 45.95c-.296 3.34 2.072 5.537 4.41 6.387zm.325-1.788l-3.227-4.66c-.207.03-.415.06-.622.06h-.355l4.026 5.8c.058-.35.117-.76.177-1.2zm6.423.468c-.03 0-.177-.088-.266-.146.06.117 0 .146.06.205.088.06.177 0 .206-.06zm-6.098-2.432l-2.13-3.077c-.297.116-.593.204-.92.263l2.843 4.102c.06-.41.118-.85.207-1.29zm6.394 2.725c.09 0 .06-.057.178-.087-.09-.03-.267-.087-.296-.117-.03.088.03.205.118.205zm.385-6.71c.09 0 .06-.058.208-.087-.09-.03-.296-.088-.325-.117 0 .088.03.205.118.205zm-10.863-5.245c-.03.088.03.205.118.205.09 0 .06-.058.208-.087-.12 0-.296-.088-.326-.118zm.8-3.604c-.06 0-.208-.087-.297-.146.09.147 0 .147.09.235.088.057.177 0 .206-.09zm.207.118c-.03.088.03.205.118.205.09 0 .06-.058.207-.088-.09 0-.297-.088-.326-.117zm-.06.235l-.266-.118c-.03-.03-.06-.03-.09 0s-.058.03-.058.06c0 .028.06-.03.118 0 .03.028 0 .058-.06.058.06.058.12.058.09.146-.03.058-.06.058-.12.058-.028 0-.058.058-.087.088-.118.175.178.322.237.117.03-.06.03-.117.03-.147-.03-.058-.06-.088-.03-.146.03-.06.09-.03.148 0-.03-.06-.03-.088 0-.088.06 0 .06.088.06.088.03 0 0-.06.03-.088.06.03.03 0 0-.03zm-1.036 3.516l-.266-.118c-.03-.03-.06-.03-.09 0s-.058.03-.058.058c.03.03.09-.03.118 0 .03.03 0 .06-.06.088.06.03.12.06.09.147-.03.058-.06.058-.12.058-.028 0-.058.06-.087.088-.09.177.148.353.236.12.03-.06.03-.12.03-.12-.03-.057-.058-.087-.03-.145.03-.06.09-.03.15 0-.03-.06-.03-.117 0-.088.06 0 .06.088.06.088.028 0 .028-.06.028-.088.06-.06.06-.088 0-.088z"></path><path d="M48.932 30.828v10.696h8.437c-.208-2.52-1.155-4.982-2.724-6.975-1.54-1.993-3.553-3.312-5.714-3.722zm8.26 10.52H49.08V31.033c2.073.557 3.85 1.553 5.447 3.604 1.45 1.847 2.398 4.162 2.635 6.535l.03.176zM40.2 39.268c-.06 0-.207-.118-.296-.176.09.146 0 .146.09.234.058.06.147 0 .206-.06zm-2.25-9.436l1.687 1.846.77-.704c-45.41-35.077-1.598-1.73-1.687-1.846l.74-.674-.68-.732-2.22 2.05.68.733.71-.673zm-.65 3.838c-.416-1.377-2.458-1.846-3.317-.234-.8 1.494.563 3.077 2.073 2.608.976-.293 1.54-1.465 1.243-2.374zm-1.51 1.378c-.563.175-1.303-.44-.92-1.143.21-.41.653-.557 1.067-.352.622.322.503 1.29-.148 1.495zm3.048-2.58L36.115 30.3l-.652.82 2.753 2.17.622-.82zm4.677.206c.09 0 .06-.06.207-.088-.088-.03-.266-.088-.296-.117-.06.087 0 .204.09.204zm-.503-.088c0 .03-.06.03-.03.06 0 .028.06-.03.09 0 .03.028 0 .057-.06.057.06.03.09.06.09.118-.03.06-.06.06-.09.06s-.06.028-.06.087c-.088.176.15.293.208.088.03-.06.03-.088.03-.117-.03-.03-.06-.06-.03-.117.03-.058.09-.03.148 0-.03-.058-.03-.087.03-.087.03 0 .03.088.06.088.028-.03 0-.058.028-.087 0-.03-.03-.06-.06-.06l-.236-.116c-.06.03-.088 0-.118.03zm17.406 13.626l.296.06-.207 1.23 1.006.176.208-1.23.267.057-.207 1.26 1.006.176.415-2.314-3.58-.644-.445 2.344 1.006.176.238-1.29z"></path><path d="M54.23 35.663c.03-.234.15-.38.268-.498-.208 0-.296-.117-.356-.235-.03-.088 0-.175.06-.263-1.244-1.553-2.842-2.667-4.53-3.194.06.117.09.263.09.44-.15-.03-.267-.06-.356-.147v3.37c.355 0 .503.322.207.615.178 0 .356.06.504.235-.178.147-.356.235-.504.235.296.264.148.586-.207.586v3.985c.12-.087.267-.145.444-.145 0 .176-.06.322-.118.44h2.427c0-.147.088-.264.206-.294.12-.057.267-.028.385.148 0-.176.06-.352.238-.498.148.175.207.35.237.498.266-.293.562-.147.592.176h2.842c-.09-.118-.15-.264-.15-.44.15 0 .267.03.385.088-.236-1.67-.828-3.31-1.716-4.747-.09.03-.18 0-.238-.03-.12-.058-.178-.205-.12-.41-.176.06-.384.117-.59.088zm1.245 2.462c-.06.644-1.007.468-1.273 0 0 .732.977.937 1.125.76.148-.145.236-.145.384.09.15.234 0 .146-.117.204.03.03.178.117.355.058-.06.117-.177.235-.325.322.03.03.177.06.296.06 0 .087-.12.146-.21.204v.03c0 .234-.235.146-.235.263 0 .088.207.117.118.323 0 0-.06.058-.06.087.03.06.09.06.12.088-.12.06-.238 0-.267-.088h-.09c-.088-.03-.088-.175-.058-.263 0 0 0-.03-.03 0-.118.058-.06.234-.148.234H55c-.058.117-.03.117 0 .176-.088 0-.147-.117-.147-.205-.148-.06-.207-.118.03-.294.03-.03-.03-.03-.03-.03-.09.088-.267.06-.296-.087 0 0 .06-.12-.207.057 0-.117.118-.205.236-.234 0 0 .06-.06.15-.06.117 0 .324.09.354 0 .06-.087 0-.233.03-.438-.06-.323-.267.263-.652.117-.562-.176-.918-.82-.977-1.084-.295-.06-.828.146-.768.527.06.322.384.47.148.674-.09.116-.326 0-.326 0l-.178.146c-.236-.147-.325-.06-.296.03-.03-.03-.09-.06-.118-.09-.09.147-.237.118-.326 0 0-.028-.09-.028-.118-.028-.03 0 0 .088-.06.117 0 0-.03.03-.06.03 0 .058.09.058.15.087-.15.117-.297 0-.297-.117l-.028-.088c0-.06.06-.088 0-.088-.03 0 0 .058-.06.058h-.06c-.028.058.06.088.06.117-.147.058-.236-.03-.207-.117-.03-.03-.06-.088-.06-.088-.058-.293.297-.117.297-.235 0-.058-.09 0-.148 0-.118 0-.09-.058-.09-.146-.087 0-.147.057-.176.087-.03-.118.118-.235.237-.235.296-.293.355.264.62.235h.03c.267-.088.386.03.682-.03-.237-.175-.504-.586-.444-.82.06-.264.562-.85 1.598-.41-.236-.47-1.272-.44-1.242-1.202-.09.117-.178.264-.207.352-.06-.06-.147-.117-.355-.06-.177.06-.296.206-.266.294-.12-.057-.297 0-.475.09 0 .058-.03.146-.118.175-.148.088-.207-.03-.266-.088 0-.03-.03-.03-.03 0-.03.06.06.205-.03.293 0 0-.028.03-.087.03.03.117.118.146.177.175-.118.06-.296-.03-.296-.176-.03 0-.06-.03-.09-.03-.147-.03-.028-.205-.028-.322 0 0 0-.03-.03 0-.177.264-.266.234-.385.03-.058.058-.087.116-.087.175-.12-.088 0-.322.118-.322.18-.205.12-.117.327-.058.06.03.118-.03.148-.06.03-.028 0-.028-.03-.028-.326.03-.326-.06-.296-.205-.09-.06-.15-.03-.18-.03.03-.06.18-.118.268-.088.09-.06.177-.06.237 0 .088.058.088.117.148.146.296.176.65-.527 1.095-.79-.563-.235-.74-.763-.977-1.144-.03 0-.03.06-.03.088-.087 0-.117-.088-.117-.146 0-.06-.09-.03-.06.03-.03 0-.03-.177-.03-.294-.236.117-.502-.117-.354-.38 0 .204.236.263.295.145-.178-.03-.178-.175-.06-.293.03-.03-.03-.03-.058-.088-.06-.03-.12.06-.178.03l-.06-.06h-.03c-.06.03-.03.09-.03.118-.118-.088-.118-.176-.03-.234v-.088c0-.088.09-.176.297-.088.03.03.03-.03 0-.06 0-.028 0-.028-.03-.028-.118 0-.207-.03-.207-.176s.09-.088-.09-.175c.12-.088.238-.088.238.087.148-.03.207.118.267.264 0 .06.03-.03.03-.058l-.03-.03c-.09-.088 0-.176.06-.234 0-.088-.06-.117-.09-.147.09-.03.266.118.266.293.03.264-.206.616.12.792.207.117.592.468.74.76.06.12.177.207.296.265.09-.527.622-.498.622-.938 0-.176-.356-.118-.533-.088-.208.058-.296 0-.296-.088 0-.264.028-.176.443-.235.148-.03.118-.06.088-.147-.028-.147-.265-.147-.324-.06l-.09.177-.117-.147c-.15-.058-.15-.117-.18-.263-.03-.352.18-.088.445-.323.06-.058.118-.03.266-.058.09 0 .15-.09.238-.177.03.058 0 .176.178.205.09.03.118.06.207.205.06 0 .178.03.237-.03.09.235.03.41.03.41.266.206.74.997.444 1.408-.06.44-.237.938.148 1.437.207.263.532.76.917 1.113l.088.088c.533.44.8.293.83.088.03-.38-.83-.82-1.244-1.26-.504-.557-.415-1.202-.237-1.553.06.176.09.322.118.47.385.526.237.76.385 1.054.118.117.237.234.415.38.414.352.8.557.74.968zM60.39 49.23l-2.25.763-.297.79 3.374 1.378.385-.966-1.658-.703 2.25-.79.296-.733-3.374-1.377-.385.967 1.66.674zm-.594 3.224c-.503-.35-1.006-.117-1.42.088-.208.088-.474.235-.563.147-.06-.03 0-.12.03-.177.148-.176.562-.44 1.154-.557l-1.006-.703c-1.36.47-1.568 1.73-.74 2.315.593.41 1.185.117 1.57-.088.207-.088.384-.205.414-.147.06.06 0 .352-1.066.704l1.007.703c.296-.117.68-.38.858-.615.178-.235.237-.5.237-.762 0-.06 0-.147-.03-.205-.03-.294-.177-.528-.444-.704zm1.214-8.938c0 1.436 1.39 1.554 1.984.997.444-.41.355-.91.384-2.227l-3.64-.06-.03 1.085c-64.71-47.413 1.184.03 1.302.03v.176zm1.007-.175h.296v.206c0 .176-.06.176-.148.176-.178 0-.148-.176-.148-.38zm-18.975-10.9c.06.058.148 0 .177-.06-.03 0-.178-.087-.238-.146.06.147 0 .147.06.206z"></path><path d="M36.085 42.667h11.19v-13.13c-1.45.03-2.872.382-4.204 1.056-4.29 2.11-6.896 6.945-6.985 12.074zm10.42-2.608c0 .32-.858.41-1.362.438.474.03.652.088.918.06.15-.03.15.057.18.087.028.146.176.058.235 0 .03.117-.03.176-.06.205-.028 0 0 .03 0 .03.03.087-.028.204.12.204-.03.088-.09.06-.148.06 0 0 .088.028.088.145 0 .205-.207.146-.207.234 0 .088.178.088.12.293 0 0-.03.058-.06.088 0 .03.06.058.088.088-.118.058-.207 0-.237-.06-.03 0-.06-.028-.06-.028-.09-.03-.06-.147-.03-.235h-.03c-.088.06-.058.235-.147.235h-.06c-.03.088-.03.117 0 .176-.058 0-.118-.087-.118-.175-.03 0-.06-.03-.06-.03-.117-.058.03-.175.09-.234.03-.028 0-.028-.03-.028-.088.088-.266.058-.266-.117-.06 0-.15.058-.18.087 0-.117.12-.205.21-.205 0 0 .058-.058.117-.058.118 0 .266.057.326 0 .03-.09-.03-.12.03-.324.03-.058-.03-.088-.06-.088-.65-.058-.326.206-1.095.206-.207 0-.355-.06-.533-.147.09.147 0 .234.09.293.147.088.176.352.147.41-.03.06-.237.06-.385.03h-.118c-.15.03 0 .205-.18.234-.088.03-.177-.03-.206-.088 0-.03-.148-.03-.148 0 0 .06 0 .088-.03.117 0 0-.03 0-.06.03 0 .058.12.088.15.088-.15.088-.297 0-.297-.117 0-.03-.03-.088-.03-.088 0-.03.03-.058.03-.058s0-.03-.03-.03 0 .06-.06.06h-.06c0 .058.03.087.06.087-.148.06-.207-.03-.207-.117-.03-.03-.06-.06-.06-.088-.06-.294.267-.118.267-.235 0-.03-.03-.03-.03-.03-.03 0-.06.03-.088.03-.09 0-.12-.06-.09-.147-.088 0-.147.06-.177.088-.03-.117.12-.235.207-.235.03 0 .06-.028.06-.057.266-.117.266.44.503.264.03-.03.148-.03.237-.06 0 0 .03 0 0-.028-.06-.06-.208-.12-.267-.12-.177-.028-.148-.292-.09-.438-.058.06-.087.088-.176.088-1.6-.147-.83.615-2.192.44-.09-.03-.06.205-.296.205 0 0 0-.06.03-.06-.03 0-.09.03-.12.03.03.117-.56.38-.68.38.06-.028.15-.175.09-.145-.237.146-.652-.03-.71.322-.09-.088-.03-.234-.09-.234-.03 0-.06.058-.06.058-.03-.03-.03-.088-.03-.146 0 0 0-.03-.028 0-.148.03-.237.03-.296 0 0-.03-.03-.06-.06-.088-.03.176-.177.234-.236.234.088-.088.088-.176.06-.264-.03.06-.09.088-.12.118 0-.06-.03-.118-.06-.147 0 0-.028 0 0 0 .03.205-.354.322-.384.03 0-.03 0-.03-.03-.03-.058.06 0 .205-.147.235 0 0-.058 0-.058-.03-.03.117.03.176.088.235-.118 0-.266-.176-.207-.264-.03-.03-.06-.03-.06-.03-.117-.088.03-.205.09-.293 0 0 0-.03-.03-.03-.207.147-.325.147-.355-.117-.09.03-.118.088-.148.117-.09-.146.148-.293.237-.234.03 0 .06-.03.06-.03.147-.087.177.206.354.118.03 0 0-.03 0-.03-.295-.116-.265-.174-.176-.292-.06-.058-.09-.087-.148-.087.06-.058.207-.03.266.03.118 0 .148 0 .207.117.058.088.03.117.088.205.118.176.503.03.65-.058.12-.06.653-.03.682-.03.03 0-.06-.205-.09-.35-.028-.03-.058-.06-.058-.09-.03.09-.118.09-.177.09-.326-.177-.504-.53-.563-.53-.03 0-.03.06-.03.09-.088 0-.118-.09-.118-.147-.03-.06-.06 0-.06.03-.03 0-.058-.03-.088-.09 0 0 0-.028-.03 0-.236.147-.532-.058-.355-.35-.028.234.297.292.297.058 0-.03 0-.03-.03-.03-.177-.03-.207-.146-.06-.263v-.03c-.028 0-.028-.03-.058-.03-.06-.028-.12.06-.15.03l-.058-.058c-.06.03-.06 0-.06.117-.118-.057-.118-.175-.03-.233-.058-.147.06-.264.268-.176h.03c0-.058-.03-.058-.06-.058-.178 0-.207-.088-.178-.263-.03-.03-.06-.03-.088-.06.118-.117.236-.06.236.088.148-.03.208.117.237.264 0 .058.06-.06.03-.088-.06-.06 0-.147.06-.235 0-.09-.06-.118-.09-.147.09 0 .207.058.237.146.148.322-.207.673.148.878.385.235.118.323.71.38l.09.03c0-.087 0-.175.03-.263l-.09-.088c.09 0 .12-.176.207-.322-.03 0-.06-.03-.09-.118.09.03.208-.234.297-.234-.03-.117-.03-.205.03-.293.058 0 .147.03.206.088 0-.06.09-.06.148-.06 0 0 .12-.028.15-.028.207.03.236.03.503.234.03.03.06.147.06.147.028.06.088.09.058.147.06 0 .15.03.208.088 0 .088-.09.176-.177.205.12.147-.147.41-.207.616 1.48-.44 5.566.38 5.566-.205 0-.644-4.47.528-4.47-.556 0-.47.976-.38 1.745-.38.326-.382 1.54.087 1.924-.177-.03.147-.533.235-1.007.235.8.175 1.598-.44 2.22.117-.77-.265-1.894.468-2.96.145-.09-.03-.148-.058-.178-.117-.62-.03-1.51-.146-1.51.176-.03.79 4.5-.352 4.5.645zm-2.753-4.133c-.09-.03-.148-.06-.178-.117-.444-.03-.8-.06-.8.205 0 .47 1.866.146 2.725.146.827 0 1.123.148 1.123.41 0 .324-.8.44-1.36.44.472.06.65.09.916.06.147-.03.177.088.177.088.03.146.178.058.237 0 .03.117-.03.175-.06.205v.03c.03.087-.03.204.12.204-.03.088-.09.06-.15.06.06.028.09.087.09.116 0 .205-.207.146-.207.234 0 .088.177.088.118.293 0 0-.03.06-.06.088 0 .03.09.06.09.088-.12.06-.208 0-.237-.058-.09-.03-.178-.03-.12-.264 0 0 0-.03 0 0-.087.058-.058.234-.147.205h-.058c-.03.087-.03.116 0 .175-.06 0-.118-.088-.118-.176-.03 0-.06-.03-.06-.03-.118-.06.03-.176.09-.235.03-.03-.03-.03-.03-.03-.09.09-.237.06-.237-.146-.09 0-.148.058-.178.087 0-.117.118-.205.207-.205 0 0 .06-.058.118-.058.118 0 .266.058.326 0 .06-.088-.03-.118.03-.323.03-.057-.03-.087-.06-.087-.56-.117-.325.205-1.094.205-.207 0-.355-.058-.533-.117.09.118 0 .236.09.294.147.088.176.352.117.41-.06.118-.355.03-.473.03-.148.03 0 .176-.178.234-.09.03-.18-.03-.208-.088 0-.03-.09-.03-.12-.03 0 0-.028 0-.028.03 0 .06 0 .088-.03.088 0 0-.03.03-.06.03.03.058.12.058.15.087-.15.088-.297 0-.268-.117l-.03-.088c0-.03.06-.058 0-.088-.03 0 0 .06-.058.06h-.06c0 .058.03.087.06.087-.148.058-.208-.03-.208-.118-.03-.03-.06-.088-.06-.088-.058-.264.268-.117.268-.205 0-.03-.03-.03-.03-.03-.03 0-.06.03-.09.03-.117 0-.117-.06-.088-.148-.088.03-.148.06-.177.088-.03-.117.118-.234.237-.234.296-.293.325.41.592.205.03-.028.148-.058.237-.058 0 0 .028 0 0-.03-.06-.058-.21-.087-.268-.116-.148-.03-.148-.352-.06-.498-.058.058-.206.146-.295.117-1.184-.205-.65.527-1.39.47-.06 0-.15 0-.238.028-.06.176-.445.557-.712.498.09-.028.148-.145.09-.145-.238.146-.445 0-.475.38-.088-.087-.06-.234-.088-.234-.03 0-.06.06-.06.09-.03-.03-.03-.09-.03-.148 0 0 0-.03 0 0-.147.03-.236.03-.295 0v.03c0-.03-.03-.06-.06-.088-.03.146-.177.234-.236.234.09-.088.09-.176.06-.263-.03.058-.09.087-.12.117.03-.06-.03-.117-.06-.147 0 0-.028 0 0 0 .03.205-.324.323-.383.03 0-.03 0-.03-.03-.03-.058.06-.03.205-.147.235 0 0-.03 0-.06-.03-.03.118.03.176.09.205-.148 0-.267-.205-.208-.263-.207-.147-.06-.147.03-.352 0-.03 0-.03-.03-.03-.266.177-.296.09-.355-.116-.09 0-.118.088-.118.117-.09-.146.148-.292.207-.234.265-.175.265.176.443.088.03 0 0-.03 0-.03-.178-.058-.326-.146-.178-.292-.06-.088-.088-.088-.148-.088.06-.06.208-.03.267.03.118 0 .148 0 .207.117.06.088.03.147.09.206.118.176.503.03.65-.06.12-.058.534-.028.593-.028.03 0-.118-.176-.09-.352-.088.117-.206-.058-.354-.117-.18-.118-.297-.294-.327-.294-.03 0-.06.058-.03.088-.088 0-.118-.088-.118-.147 0-.058-.088 0-.06.03-.058 0-.058-.06-.058-.088 0-.03 0-.03-.03 0-.236.116-.532-.06-.355-.353-.03.234.267.264.296.06 0-.03 0-.03-.03-.03-.177-.03-.177-.147-.06-.264.03-.03-.028-.03-.058-.06-.03 0-.118.06-.148.03 0 0-.03-.03-.06-.03-.058 0-.058.06-.058.118-.12-.087-.09-.175-.03-.233-.03-.147.09-.264.296-.176 0 0 .03 0 .03-.028-.03-.03 0-.06-.06-.06-.177 0-.207-.087-.147-.263-.03-.03-.06-.03-.09-.06.15-.146.297-.03.238.09.15-.03.208.116.237.262.03.06.03-.088.03-.088-.09-.088 0-.146.06-.234 0-.088-.06-.117-.09-.147.06-.03.208.06.208.147.088.293-.03.264-.06.527 0 .176 0 .264.148.352.148.087.267.234.356.32.176.06.087.03.324.12 0-.09 0-.206.03-.324-.03 0-.09-.058-.148-.117.09 0 .118-.177.207-.323-.03 0-.06-.03-.09-.117.09.03.208-.235.297-.235-.03-.117-.03-.205.03-.293.06 0 .148.03.207.088 0-.06.09-.06.148-.06 0 0 .12-.028.148-.028.237.088.237.03.503.234.03.03.06.147.06.147.03.06.088.088.06.147.058 0 .147.03.206.087 0 .088-.06.176-.178.206.12.117-.088.35-.177.556 1.095-.235 2.93.087 3.552.087.384 0 1.094-.058 1.094-.234 0-.147-.148-.205-.858-.205s-2.93.498-2.93-.352c0-.41.473-.41 1.065-.38.267-.382 1.185.028 1.57-.206-.03.117-.178.264-.65.264.798.176 1.45-.44 2.22.146-.89-.117-2.162.44-3.228.147zM43.13 32c.12-.06.356-.03.592.205.03.03.03.117.06.147.03.03.06.088.06.146.058 0 .117.03.177.088 0 .088-.06.147-.15.205.12.148-.207.44-.207.617.948-.235 1.332.117 1.836.117.68 0 1.123-.176 1.123-.41 0-.674-2.486-.03-2.486-.967 0-.147.09-.264.266-.352-.088-.352.8-.557 1.007-.82.03.117-.06.41-.326.527.444-.03.592-.88 1.688-.733-.89.175-.948 1.054-2.16 1.142-.12.088-.18.176-.18.264 0 .615 2.458 0 2.458.996 0 .293-.444.586-1.332.557-.06 0-.03.028 0 .028.444.03.533.147.77.147.147-.03.147.058.147.058.03.118.178.06.208 0 .03.118-.03.176-.06.205-.03 0 0 .03 0 .03.03.058-.03.205.12.176-.03.058-.06.058-.12.058.06.03.09.088.09.117 0 .175-.178.117-.178.205 0 .087.148.087.088.263 0 0-.03.06-.06.088 0 .03.06.06.09.088-.09.06-.178 0-.207-.058-.03 0-.06 0-.06-.03-.088-.03-.06-.117-.03-.205-.088.06-.058.206-.117.206h-.06c-.03.088-.03.117 0 .147-.06-.03-.12-.088-.12-.176-.117-.06-.177-.06.03-.235.03 0-.03-.03-.03 0-.088.088-.206.03-.236-.087 0-.088-.09 0-.148.03 0-.09.09-.177.178-.206.06-.118.355.028.385-.06.028-.088-.03-.088.028-.264 0-.058-.03-.088-.06-.088-.058 0-.236-.058-.413.06-.148.087.177.146-.178.146-.178 0-.326-.06-.474-.118.09.118 0 .206.06.235.148.09.148.323.118.352-.03.06-.206.06-.354.03h-.09c-.117.03 0 .176-.147.234-.09.03-.15-.03-.18-.088 0 0 0-.03-.058-.03h-.06c-.058 0 0 .06-.058.118 0 0-.03.03-.06.03 0 .058.09.058.12.058-.12.088-.267 0-.238-.088 0 0-.03-.058-.03-.088 0-.03.03-.03.03-.058 0-.03 0-.03-.03-.03s0 .06-.06.06h-.058c0 .028.03.058.06.087-.12.03-.178-.03-.178-.117 0-.03-.03-.06-.03-.088-.06-.235.237-.088.237-.205 0-.06-.06 0-.118 0-.09 0-.09-.03-.09-.118-.09 0-.12.058-.148.087-.03-.088.088-.205.207-.205.03 0 .058-.03.058-.03.237-.087.237.382.474.235.06-.03.237-.03.207-.088-.06-.06-.18-.088-.238-.118-.148-.03-.148-.322-.06-.47-.058.06-.206.12-.265.09-.948-.06-.208.292-.68.38-.09.03-.327.264-.534.264.06-.03.03-.117 0-.147-.03.087-.148.117-.237.117-.06.03-.148.088-.148.117 0 .117-.178.205-.266.205.088-.06.118-.177.06-.118-.208.117-.386 0-.416.322-.088-.058-.03-.205-.088-.205-.03 0-.06.058-.06.058-.03-.06 0-.176-.03-.147-.118.03-.206.03-.266 0 0-.028-.03-.058-.06-.058-.028.147-.147.206-.206.235.09-.088.09-.176.06-.235-.03.06-.06.088-.09.088.03-.058-.03-.117-.06-.146 0 0-.03 0 0 0 .03.205-.325.293-.325.03 0-.03 0-.03-.028 0-.06.028 0 .175-.12.234 0 0-.028 0-.058-.03 0 .088.03.176.06.205-.06 0-.208-.087-.178-.234-.03-.03-.06-.03-.06-.06-.118-.058.03-.175.09-.263 0 0 0-.03-.03-.03-.267.176-.267.06-.326-.117-.06 0-.09.06-.118.088-.06-.117.09-.264.207-.205.03-.03.058-.03.058-.03.148-.087.178.206.326.118.03 0 0-.028 0-.028-.207-.088-.237-.147-.207-.206l.03-.058c-.06-.06-.09-.088-.12-.088.06-.03.178-.03.238.03h.088c.03 0 .09.058.12.087.058.06.028.117.058.176.09.146.445.03.593-.06.09-.057.385-.028.444-.028.03 0 .355-.088.563-.176-.12-.147-.208-.294-.237-.294-.03 0-.06.03-.03.088-.09 0-.09-.088-.09-.117 0 0 0-.03-.028-.03-.03 0-.06.03-.06.03-.03 0-.06-.03-.06-.088 0 0 0-.03-.028 0-.237.116-.503-.06-.296-.294-.058.205.238.234.297.06 0-.03 0-.03-.03-.03-.148-.03-.177-.147-.03-.235.03-.03 0-.03-.06-.058h-.058c-.06.03-.12.06-.15 0h-.028c-.06 0-.06.06-.06.088-.118-.06-.06-.176 0-.205v-.06c.03-.057.09-.145.267-.057h.028c-.03-.03 0-.06-.03-.06-.177 0-.206-.116-.118-.233-.03-.03-.06-.03-.088-.03.148-.117.236-.03.236.06v.028c.148 0 .148.06.208.235 0 .03.03-.03.03-.06v-.028c-.06-.06-.03-.088 0-.117 0 0 .058-.03.058-.06 0-.087-.03-.087-.06-.116.09-.03.208.058.208.234 0 .118-.088.236-.118.353-.03.293.09.234.326.47 0-.118.06-.382.118-.558-.03 0-.06-.03-.06-.088.09 0 .12-.176.178-.293-.03 0-.06-.03-.088-.088.088.03.177-.205.266-.205-.03-.116-.03-.175.03-.263.06 0 .118.03.177.088-.058-.205 0-.205.06-.205zm11.28 22.857l.74.733.946-.91.207.206-.858.88.74.732.858-.88.178.177-.887.938.74.703 1.628-1.67-2.574-2.58-1.717 1.67zM42.774 25.495c-2.31.88-1.36 3.897.77 3.633.177.06 1.066.264 1.835.06l.474-.998c-.326.088-.65.03-.83.03.208-.293.297-.645.297-1.026 0-1.2-1.183-2.198-2.545-1.7zm.918 2.55c-.947.35-1.362-.587-1.095-1.115.177-.38.74-.615 1.154-.41.622.264.71 1.23-.06 1.524zm5.387-2.99h-1.065c0 1.993.06 2.374-.09 2.52-.088.088-.265.147-.473.176-.177 0-.325-.028-.414-.146-.06-.058-.09-.088-.09-.38v-2.11l-1.065.03v2.197c.03 1.026.83 1.495 1.6 1.466.532-.03.946-.176 1.242-.47.444-.585.355-1.083.355-3.28zm20.308 1.758c.473-.38.68-.996.384-1.348-.473-.644-1.894 0-1.894.997-.03.703.858.85 1.51.35zM75.486 68.6c.236.147.71.44 1.036.616-.385.616-1.54 2.432-1.54 2.462l1.037.47c.176-.295 1.153-1.848 1.508-2.404.385.205.918.44 1.214.586l.503-.938c-.71-.322-2.398-1.172-3.256-1.7l-.504.91zM64.74 61.01l-1.54-.38-1.36 3.868 1.36.323c1.126.264 2.28.176 2.902-1.347.503-1.32-.385-2.228-1.362-2.462zm.237 2.14c-.267.703-.74.82-1.45.645 0 0-.15-.03-.237-.06.917-2.314.414-1.728.917-1.728.83.205.977.616.77 1.143zm-5.033 2.14c-1.48.263-3.404.937-3.404 2.226 0 1.524 4.885 2.14 4.44 4.22 1.54-.79 2.428-1.758 2.428-2.725-.03-1.58-2.516-2.49-3.464-3.72zm14.713 1.465l-2.102 3.457.977.616 2.13-3.487-1.005-.585zm-1.273-.264c-.296-1.083-1.51-1.787-2.635-1.523-1.718.38-2.28 2.725-.534 3.75 1.777 1.027 3.642-.527 3.168-2.226zm-2.605 1.32c-.238-.147-.416-.352-.475-.587-.118-.527.237-1.055.74-1.172.504-.116 1.096.206 1.244.734.206.732-.653 1.524-1.51 1.026zm-13.44 8.234l-1.747-1.788-.83.147-.265 4.308 1.154-.234c-60.655-82.58.09-1.787.12-2.227.295.32 1.716 1.757 1.716 1.757l.858-.322.237-4.132-1.155.322c.03-.03-.06 1.73-.088 2.17z"></path><path d="M68.914 63.004c-.296-.176-1.036-.616-1.362-.792L65.54 65.73l1.006.526c-71.55-70.36.62-1.084.74-1.26.118.088.148.264.177.674l.09 1.172c.088.06 1.035.674 1.243.792 0 0-.208-2.257-.237-2.374.916.06 1.745-1.377.354-2.256zm-.592 1.318c-.178.06-.266-.058-.533-.205.088-.117.236-.41.236-.41l.296.176c.266.176.178.38 0 .44zm-16.4 10.433c-2.16.058-2.9 2.52-1.598 3.72.917.822 2.398.675 3.197-.087 1.392-1.318.593-3.72-1.598-3.633zm-1.036 2.168c0-.996 1.184-1.348 1.806-.79.207.175.296.41.296.673 0 1.348-2.102 1.436-2.102.117zm-13.32 0c0-.117-.03-.41-.03-.44l1.39.352-.03-1.143c-43.9-79.795-1.242-.322-1.42-.35-.03-.53-.296-.353 1.51-.03l-.03-1.114c-.71-.117-2.072-.498-2.723-.674l.207 4.132c.652.293 1.658.615 2.635.79l-.06-1.142c-.473-.117-1.065-.264-1.45-.38zm-11.9-10.198c-.06-.117-.15-.234-.208-.35l1.243-.822-.56-.908-1.245.82c-.06-.088-.148-.205-.207-.322l1.273-.85-.56-.908-2.22 1.465 2.1 3.4 2.28-1.495-.563-.91-1.332.88zm3.107-5.216c1.184 2.724 1.42 2.812.68 3.164-.71.322-.74-.088-1.834-2.58l-1.008.53.948 2.167c.384.85 1.125 1.378 2.31.85 1.982-.878.976-2.226.028-4.512l-1.125.38zm18.443 14.856c-.178-.205-1.155-1.406-1.155-1.406l-.976-.03v4.19l1.155.03v-2.227c.265.322.976 1.172.976 1.172s.68-.82.976-1.172v2.227l1.155-.03v-4.19l-.977.03c-.03 0-.977 1.2-1.154 1.406zm-7.904-.996c.355.06.83.146 1.184.176v3.135l1.154.177v-3.135c.296.058.86.117 1.184.146v-1.113c-1.124-.147-2.516-.352-3.522-.5v1.115zM85.64 41.348c.384-.352.266-1.114-.208-1.582-.74-.762-1.806-.587-1.806.263-.03 1.084 1.392 1.933 2.013 1.318zm-1.274 3.927c-.444-.323-1.125-.117-1.54.47-.413.555-.354 1.288.09 1.61.444.323 1.125.118 1.54-.44.384-.615.354-1.318-.09-1.64zM20.93 66.315l2.13 3.4.918-.587-2.132-3.428-.917.615zm60.92-34.08c.74-.82 2.25-2.433 2.25-2.462l.06-.06-1.155-.936c.03.263.088.586-.06 1.348-.384-.38-.325-.762-.296-1.026l-1.007 1.26h.148c.18 0 .623.058.83.233-.563.528-1.066.264-1.48 0-.622-.41-.86-.732-.71-.996.088-.146.266-.205.443-.176.178.03.385.177.415.5v.087l.09-.03c.354-.175.502-.38.53-.556.03-.057.03-.145.03-.204 0-.117-.03-.234-.088-.352-.118-.205-.355-.322-.592-.322.533-.38.83-.908.83-1.524 0-.146 0-.293-.06-.44l-.03-.058c-.8.176-1.332.44-1.658 1.465-.118-.293-.296-.527-.592-.556-.207 0-.414.057-.532.204-.12.117-.267.35-.237.732v.088l.088-.03c.976-.32 1.095 1.583-.563.558-.474-.264-.622-.616-.622-.938 0-.205.06-.41.148-.586.15.176.238.47.238.82v.352l1.096-1.758-.208.058c-.088.03-.414.118-.77.03.326-.38.652-.586 1.007-.616l.237-.03-2.013-1.17c.148.32.326.644.09 1.405-.327-.323-.356-.645-.416-.91l-.975 1.847.236-.146c.327-.204.653-.263.89-.234-.297.41-.77.79-1.54.352-1.717-.967 0-1.788.178-.762l.03.088c.266-.147.532-.322.59-.645.12-.47-.235-.94-.857-.82.593-.675.77-1.29.475-2.11l-.03-.06-.06.03c-.77.234-1.243.85-1.302 1.67-.148-.235-.355-.352-.562-.352-.206 0-.384.088-.532.235-.118.117-.237.35-.207.762v.087l.09-.03c.296-.116.503-.028.65.118.09.088.12.205.12.293 0 .06-.03.118-.03.176-.178.263-.563.204-1.214-.118-.385-.205-.77-.44-.77-.996 0-.088 0-.205.03-.293.266.117.533.44.62.586l.09.145.592-1.494-.207.147c-.236.147-.56.176-.828.117.355-.322.71-.556.948-.674l.177-.058-1.362-.528c-.088.264-.62 2.08-1.006 3.282l-.03.06 10.3 5.977.06-.06zm-.385 17.64c-.444-.322-1.154-.117-1.54.47-.413.585-.354 1.29.09 1.61.444.323 1.125.118 1.54-.468.384-.586.354-1.32-.09-1.612zM66.812 36.22c-.8.234-.71 1.348.296 1.817.622.322 1.332.175 1.57-.293.384-.82-.89-1.905-1.866-1.524zm-.947-7.473c-.207.205-.355.528-.385.88-.06.468.237 1.113.74 1.142.415.03.83-.44.86-1.056.028-.88-.653-1.465-1.215-.967zM93.188 55.59c-1.007 0-1.836.82-1.836 1.846 0 1.026.83 1.846 1.836 1.846 1.006 0 1.835-.82 1.835-1.846 0-1.026-.83-1.846-1.835-1.846zm-10.54 6.33c.712.117 1.333-.206 1.452-.704V61.1c0-1.203-2.368-1.496-2.546-.353-.09.498.385 1.026 1.095 1.172zm-9.086-45.627c.828-.47 1.864-.733 3.02-.85-.712-.234-1.244-.82-1.836-.82-1.184.03-.83 1.025-1.184 1.67zm5.535 39.766c-.77.76-.355 2.343.503 2.343.237 0 .444-.117.563-.235.237-.234.414-.615.414-1.025.03-1.114-.888-1.7-1.48-1.084zm10.657 5.04c.562-.382.858-1.056.562-1.496-.473-.762-2.042-.234-2.25.82-.177.792.77 1.26 1.688.675zm-51.39 6.416c0-1.318-1.953-1.992-3.404-2.227-.977 1.23-3.463 2.14-3.463 3.72 0 .968.888 1.906 2.427 2.726-.414-2.05 4.44-2.696 4.44-4.22zm-18.68-49.553c0 .264-.176.792.15.88.296.117.296-.792.858-.85.474-.06.444.38.09.967.71-.176 1.39-.47 1.686.146.267.557.118.88-.326 1.32-.444.438.444 3.164 2.16 2.43 1.866-.79.357-3.193-.147-3.193-.62 0-.947-.147-1.154-.733-.206-.674.475-.937 1.096-1.29-.65-.204-.977-.497-.62-.76.443-.323 1.064.292 1.212 0 .148-.294-.325-.528-.503-.733-.385-.38-.474-.235-3.878 1.084-.385.206-.622.352-.622.733zm-.53 49.788c-.593 0-1.067.323-2.4 1.027l2.014 3.428 1.184-.645c2.398-1.26 1.006-3.838-.8-3.81zm.058 2.99c-.12-.176-.86-1.407-.918-1.553.09-.06.207-.117.207-.117.505-.235 1.008-.44 1.422.205.444.674-.06 1.113-.71 1.465zm5.27-56.176c.62-.498.088-1.055.887-2.256-.86.527-2.132 1.055-3.228 1.494.474.82 1.54 1.407 2.34.762zm-4.65.147c-1.094.41-2.367.91-3.373 1.114 1.39.352 1.39 1.114 2.19 1.055 1.006-.09 1.36-1.232 1.183-2.17z"></path><path d="M54.912 34.344c-1.42-1.817-3.227-3.077-5.18-3.633-.06-.44-.592-.556-.68-.146-.03-.03-.06-.03-.09-.03-.118-.087-.266-.175-.444-.204 0 .205.06.38.148.527v.03c-.414 0-.414.556 0 .673v4.19c-.178 0-.355.06-.503.235.148.147.325.205.503.235v4.513c-.266.058-.355.35-.296.498.06.09.148.177.296.177v.088c-.06.117-.118.263-.118.41.148 0 .296-.03.414-.117h.118c.03.41.533.41.652 0h2.99c0 .175.06.35.236.527.148-.176.208-.352.237-.527H56.6c.06.293.355.41.503.322.088-.06.177-.147.177-.322h.06c.118.058.266.117.444.117 0-.176-.06-.293-.12-.41v-.118c.15 0 .238-.088.297-.176.06-.174-.058-.467-.354-.497-.296-2.022-1.036-3.985-2.19-5.685.147-.117.266-.263.325-.527-.236-.028-.443.06-.59.147-.09-.088-.18-.175-.238-.293zm2.487 7.15H48.96V30.8c2.16.41 4.174 1.727 5.743 3.72 1.54 1.993 2.486 4.454 2.694 6.975z" fill="#4A4A4A"></path><path d="M49.11 31.033v10.315h8.11l-.03-.147c-.235-2.372-1.183-4.687-2.633-6.533-1.6-2.08-3.375-3.077-5.447-3.634zm5.802 4.894c.06.03.148.058.237.03.887 1.435 1.45 3.076 1.716 4.746-.09-.058-.237-.088-.385-.088 0 .176.06.323.15.44h-2.843c-.03-.293-.325-.47-.592-.176 0-.177-.06-.353-.237-.5-.148.177-.236.353-.236.5-.148-.147-.267-.177-.385-.147-.09.03-.178.146-.207.293h-2.428c.06-.118.12-.264.12-.44-.18 0-.327.06-.445.147v-3.986c.355 0 .503-.35.207-.586.177 0 .355-.057.503-.233-.178-.147-.355-.235-.503-.235.296-.263.148-.615-.207-.615v-3.37c.088.06.207.117.355.146 0-.175-.03-.322-.09-.44 1.688.528 3.287 1.642 4.53 3.195-.06.088-.09.176-.06.264.03.117.15.205.356.234-.118.117-.237.264-.266.498.207.03.414-.03.533-.117 0 .235.06.38.177.44z" fill="#4A4A4A"></path><path d="M54.29 36.777c-.148-.293 0-.557-.384-1.055-.03-.118-.06-.264-.12-.47-.206.352-.265.997.238 1.554.414.44 1.273.88 1.243 1.26-.03.205-.296.352-.83-.088l-.087-.088c-.356-.352-.68-.85-.918-1.113-.385-.528-.207-1.026-.148-1.436.296-.41-.178-1.2-.444-1.406 0 0 .06-.176-.03-.41-.06.058-.177.03-.236.03-.09-.147-.12-.177-.208-.206-.177-.03-.177-.147-.177-.205-.09.088-.15.176-.238.176-.148 0-.207 0-.267.057-.266.235-.473-.03-.444.323.03.146.03.205.18.263l.117.147.09-.176c.058-.06.295-.088.325.06.03.116.06.145-.09.145-.413.058-.443-.03-.443.234 0 .088.117.146.295.088.207-.06.533-.088.533.087 0 .44-.533.41-.622.937-.118-.088-.237-.176-.296-.264-.148-.293-.533-.644-.74-.76-.325-.207-.09-.53-.118-.793 0-.175-.178-.293-.267-.293.03.03.09.06.09.147-.09.088-.15.176-.06.234 0 .03.03.03.03.03 0 .03-.03.117-.03.058-.06-.146-.09-.293-.266-.264 0-.175-.15-.205-.238-.087.177.058.09 0 .09.175 0 .118.087.176.206.176.03 0 .03 0 .03.03.03.03.03.087 0 .058-.208-.088-.297 0-.297.088v.088c-.058.058-.087.146.03.234 0-.03 0-.117.03-.117h.03l.06.06c.06.028.118-.06.177-.03.03.03.09.058.06.087-.12.118-.12.264.058.293-.06.147-.325.06-.296-.146-.178.265.118.47.355.382 0 .117 0 .293.03.293 0-.06.058-.088.058-.03 0 .06.03.147.12.147 0-.06 0-.088.028-.088.238.38.416.91.978 1.143-.444.264-.8.996-1.095.79-.06-.028-.06-.087-.148-.145-.09-.06-.148-.06-.237 0-.09-.03-.237 0-.266.088.06 0 .09-.03.177.03 0 .145-.03.233.295.204.03 0 .06 0 .03.03s-.06.058-.148.058c-.207-.06-.148-.147-.326.06-.117 0-.235.233-.117.32 0-.028.03-.116.09-.175.147.205.206.235.384-.03.03-.03.03 0 .03 0 0 .118-.15.294.03.323 0 0 .028 0 .088.03 0 .146.207.234.296.175-.06-.03-.147-.058-.177-.176.03 0 .06 0 .09-.03.088-.088-.03-.205.028-.293.03-.03.03-.03.03 0 .03.06.12.176.267.088.09-.03.12-.117.12-.176.176-.06.354-.118.472-.09-.03-.087.088-.233.266-.292.207-.058.266 0 .355.06.03-.09.09-.236.208-.353-.03.762 1.007.762 1.244 1.202-1.007-.41-1.54.146-1.6.41-.058.234.208.645.445.82-.296.06-.385-.058-.68.03h-.03c-.267.03-.326-.528-.622-.235-.118 0-.266.117-.237.235.03-.03.09-.088.178-.088 0 .087 0 .145.09.145.058 0 .147-.058.147 0 0 .118-.356-.058-.296.235 0 0 .03.058.06.088-.03.088.058.175.206.117-.03-.03-.09-.06-.06-.117h.06c.03 0 .03-.06.06-.06.058 0 0 .03 0 .09l.03.087c-.03.117.147.205.295.117-.06 0-.148-.03-.148-.088.03 0 .06-.03.06-.03.058-.028.03-.116.058-.116.03 0 .12 0 .12.03.058.116.235.145.324 0 .03.028.09.058.12.087-.03-.117.058-.205.295-.03l.177-.146c-57.517-43.723.237.087.326 0 .237-.206-.06-.382-.148-.675-.09-.38.444-.586.77-.527.06.234.414.88.976 1.084.415.146.593-.44.652-.117-.03.175.03.35-.03.44-.03.087-.237.028-.355 0-.06 0-.148.058-.148.058-.12.03-.237.117-.237.234.237-.176.207-.058.207-.058.03.145.208.204.296.087 0-.03.06 0 .03.03-.237.175-.178.233-.03.292 0 .087.06.175.148.204-.028-.06-.028-.06 0-.176h.06c.09 0 .06-.176.15-.234h.028c-.03.117-.06.234.06.263h.088c.03.088.148.147.267.088-.03 0-.09-.03-.12-.088.03-.03.06-.087.06-.087.06-.235-.118-.235-.118-.323 0-.117.237-.03.237-.264v-.03c.118-.057.207-.145.207-.204-.12 0-.238-.03-.297-.06.148-.087.296-.175.326-.322-.18.06-.297-.03-.357-.06.12-.057.267 0 .12-.204-.15-.234-.238-.234-.386-.088-.148.147-1.125-.03-1.125-.76.266.438 1.214.614 1.273 0 .03-.412-.355-.588-.77-.94-.118-.175-.266-.292-.385-.41z" fill="#4A4A4A"></path><path d="M37.86 44.22c-.236 0-.443.205-.443.47 0 .262.207.468.444.468.15 0 .268-.06.356-.176l-.236.556c.06.03.148.06.236.088-.266 2.784 1.717 6.33 5.358 7.414.533-.146 1.155-.058 1.155.557 0 .352-.18.528-.504.528-.207 0-.356-.118-.356-.264 0-.234.415-.087.474-.263.06-.234-.09-.322-.355-.322-.268 0-.623.176-.623.586 0 .5.385.792.83.792.414 0 1.272-.234 1.124-1.23.208 0 .415-.03.475-.206l.06-.557-.208-.03.148-6.388h.148c.236.03.444-.088.444-.352.03-.264-.178-.38-.385-.41h-.207v-.205c.03-.704-.385-1.23-1.155-1.23-.68 0-1.983.878-3.82.878-.768 0-1.715-.38-2.308-.733l-.236.557v-.058c.03-.265-.178-.47-.415-.47zm6.81.44c.296 0 .355.146.296.732h-.148c-.207 0-.444.088-.444.322-.03.264.148.38.385.41h.117l-.296 1.817-1.805-2.577c.86-.352 1.54-.704 1.895-.704zm-2.31.878l2.132 3.077c-.06.44-.118.88-.207 1.29l-2.842-4.103c.296-.088.622-.176.918-.264zm-2.042.41c.207 0 .415-.03.622-.058l3.227 4.66c-.06.44-.148.85-.208 1.2l-3.997-5.83c.148 0 .266.03.355.03zm-.888.03l4.41 6.388c-2.338-.88-4.706-3.077-4.41-6.388zm3.582-13.92l-.178-.087c-.03.09-.06.147-.03.264-.088 0-.177.235-.266.206.03.058.06.087.09.087-.06.147-.09.294-.178.294.03.06.06.06.06.088-.09.206-.12.44-.12.557-.207-.234-.355-.146-.325-.47.03-.116.118-.233.118-.35 0-.176-.118-.264-.207-.235.03.03.06.06.06.117l-.06.06c-.03.028-.06.087 0 .116v.03c0 .03-.03.088-.03.058-.03-.145-.06-.233-.207-.233v-.03c0-.087-.09-.175-.238-.058.03 0 .06 0 .09.028-.09.117-.06.205.118.235.06 0 .03.03.03.058 0 .03 0 .03-.03 0-.178-.087-.267 0-.267.06v.058c-.06.03-.09.118 0 .206 0-.03 0-.088.06-.088h.03c.03.058.088.058.147 0h.06c-46.743-37.13.03.03.058.03v.028c-.148.117-.148.205.03.235.03 0 .03.028.03.028-.06.205-.326.147-.296-.06-.208.236.06.412.296.294h.03c0 .03.03.06.058.088 0 0 .03-.058.06-.03.03 0 .03 0 .03.03 0 .06 0 .118.088.118 0-.03 0-.088.03-.088s.088.175.236.293c-.207.088-.532.175-.562.175-.06 0-.326-.03-.444.03-.148.058-.474.205-.592.058-.03-.058-.03-.088-.06-.175-.03-.058-.088-.087-.118-.087h-.09c-.058-.06-.176-.06-.235-.03.028 0 .087.03.117.088-.03.03-.03.06-.03.06-.03.058 0 .117.208.205 0 0 .03.03 0 .03-.148.087-.178-.206-.326-.118 0 0-.03.03-.06.03-.12-.03-.267.087-.207.205 0-.03.06-.088.118-.088.06.175.06.293.327.117.03-.028.03 0 .03.03-.06.088-.208.205-.09.264l.06.058c-.03.147.118.235.177.235-.03-.03-.09-.088-.06-.205.03 0 .06.03.06.03.12-.06.06-.177.12-.235.028-.03.028 0 .028 0 .03.263.355.175.326-.03.03.03.09.088.06.147.03 0 .088-.06.088-.088.03.06.03.146-.06.234.06-.03.178-.088.208-.234.03.03.03.06.06.06.058 0 .118.028.266 0 .03 0 0 .086.03.145 0-.028.03-.058.058-.058.03 0 0 .147.09.206.03-.323.206-.206.414-.323.03-.058.03.06-.06.117.09 0 .267-.058.267-.205 0-.03.058-.058.147-.117.06.03.177-.03.237-.117 0 .03.06.146 0 .146.207 0 .444-.235.532-.264.474-.088-.296-.44.68-.38.06 0 .21-.03.268-.09-.06.147-.09.44.06.47.058 0 .206.058.236.117.03.03-.148.03-.207.088-.237.147-.237-.35-.474-.234l-.06.03c-.09 0-.208.117-.208.205.03-.028.09-.087.148-.087 0 .088 0 .117.09.117.06 0 .118-.058.118 0 0 .088-.296-.058-.237.205 0 0 .03.06.03.088 0 .088.06.147.178.117-.03-.03-.06-.058-.06-.088h.06c.03 0 .03-.058.06-.058 0 0 .03 0 .03.03 0 0-.03.028-.03.058 0 0 .03.058.03.088 0 .088.117.176.236.088-.03 0-.12-.03-.12-.06.03 0 .06-.028.06-.028.03-.03 0-.118.06-.118h.06c.03 0 .03 0 .058.03.03.058.09.117.178.088.148-.06.03-.205.148-.235.118 0 .385.06.444-.03.03-.058.03-.292-.12-.35-.087-.03 0-.118-.058-.235.148.058.296.117.474.117.355 0 .03-.06.177-.146.178-.117.356-.058.415-.058.06 0 .09.03.06.088-.03.176.03.205-.03.264-.03.058-.178 0-.297 0-.06 0-.088.03-.118.058-.09.03-.178.088-.178.205.06-.058.148-.117.148-.03.03.118.148.177.237.09h.03c-.207.175-.12.204-.03.233 0 .088.06.147.12.176-.03-.03-.03-.058 0-.146h.058c.06 0 .03-.147.118-.205-.03.087-.03.205.03.205 0 0 .03 0 .06.03.03.058.117.116.206.058-.03 0-.09-.06-.09-.088.03-.03.06-.06.06-.088.06-.176-.088-.176-.088-.264 0-.088.177-.03.177-.205 0-.03-.03-.088-.088-.117.06 0 .118 0 .118-.06-.148 0-.09-.116-.118-.175v-.028c.03-.03.06-.088.06-.205-.03.058-.18.117-.208 0 0 0 0-.088-.148-.06-.238.03-.357-.087-.77-.145-.03 0-.06-.03 0-.03.887 0 1.33-.293 1.33-.556 0-.997-2.456-.38-2.456-.997 0-.09.06-.177.178-.264 1.243-.088 1.302-.967 2.16-1.143-1.065-.147-1.213.703-1.687.732.237-.117.326-.41.326-.527-.206.293-1.094.498-1.005.82-.148.088-.267.205-.267.352 0 .938 2.487.293 2.487.967 0 .234-.444.41-1.125.41-.503 0-.888-.38-1.836-.117 0-.146.326-.47.208-.615.088-.03.148-.118.148-.205-.06-.06-.12-.06-.178-.088.03-.06 0-.088-.06-.147 0-.03-.03-.117-.058-.146-.03-.03-.12-.09-.208-.148-.207-.117-.355-.03-.355-.03 0 .118-.058.118-.058.177zm.385.44c.03.03.207.088.296.117-.148.03-.09.088-.207.088-.06-.03-.12-.146-.09-.205zm-.06.205c.03 0 .06.03.06.06 0 .028 0 .058-.03.087-.03 0-.03-.088-.06-.088s-.03.03-.03.088c-.058-.03-.117-.06-.147 0-.03.03-.03.088.03.117.03.03 0 .06-.03.117-.06.205-.296.06-.207-.088.03-.058.06-.088.06-.088.06 0 .088 0 .088-.058.03-.06-.028-.088-.088-.117.06 0 .09-.03.06-.06-.03-.028-.09.03-.09 0 0-.028.03-.058.03-.058.03-.03.06 0 .06 0l.296.088zm-.118-.322c-.03.06-.12.118-.178.06-.06-.06 0-.088-.06-.206.06.06.208.147.237.147zm1.302 3.312c.473 0 .62-.146.65-.263-.384.233-1.302-.177-1.568.204-.592-.03-1.066-.03-1.066.38 0 .82 2.22.352 2.93.352s.86.06.86.205c0 .207-.68.236-1.096.236-.62 0-2.427-.322-3.552-.088.09-.176.296-.41.178-.557.088-.057.177-.116.177-.204-.06-.06-.148-.088-.207-.088.03-.058 0-.117-.06-.146 0 0-.03-.118-.058-.147-.267-.234-.267-.176-.504-.234-.03 0-.148.03-.148.03-.06 0-.118 0-.148.06-.06-.06-.118-.06-.207-.09-.03.09-.06.176-.03.294-.088 0-.207.263-.296.234.03.06.06.088.09.117-.09.147-.12.323-.208.323.058.088.117.117.147.117 0 .117-.03.234-.03.322-.207-.088-.148-.058-.325-.117-.09-.088-.207-.205-.355-.322-.148-.088-.148-.176-.148-.352 0-.264.117-.234.058-.527-.03-.09-.148-.177-.207-.148.03.03.09.06.09.147-.09.057-.15.145-.06.233.03 0 0 .147-.03.088-.03-.146-.088-.292-.236-.263.06-.117-.09-.234-.237-.088.03 0 .09 0 .09.058-.06.176-.03.264.147.264.03 0 .03.03.06.058 0 .03 0 .03-.03.03-.208-.088-.297 0-.297.175-.06.06-.088.147.03.235 0-.06 0-.117.06-.117 0 .03.058.03.058.03.03.028.12-.06.148-.03.03.03.09.03.06.058-.12.118-.12.236.06.265.028 0 .028.03.028.03-.028.234-.324.175-.295-.06-.177.264.12.47.356.352h.03c0 .03.03.088.06.088 0-.03.06-.088.06-.03 0 .06.028.147.117.147 0-.03 0-.088.03-.088.06 0 .148.176.325.294.148.058.267.234.355.117-.03.176.148.35.09.35-.06 0-.474-.028-.593.03-.148.09-.533.235-.65.06-.06-.06-.03-.118-.09-.206-.06-.118-.118-.118-.207-.118-.06-.06-.207-.088-.267-.03.06 0 .09.03.15.09-.15.145 0 .233.176.292 0 0 .03.03 0 .03-.177.087-.148-.265-.444-.09-.09-.058-.296.09-.207.235 0-.03.06-.088.118-.118.06.235.09.293.356.117.028-.03.028 0 .028.03-.118.204-.266.204-.03.35-.06.06.06.293.208.264-.03-.03-.09-.117-.09-.205.03 0 .06.028.06.028.12-.058.06-.205.148-.234.03-.03.03 0 .03.03.06.32.414.175.385-.03.058.03.087.088.058.146.03 0 .09-.058.118-.117.03.06.03.176-.06.264.06-.03.208-.088.238-.235.03.03.06.06.06.088v-.03c.058.03.147.03.295 0 0 .06 0 .118.03.148 0-.03.028-.088.058-.088.03 0 0 .146.09.234.028-.38.235-.234.472-.38.06-.03 0 .087-.09.146.268.058.653-.323.712-.498.118 0 .207-.03.237-.03.74.06.206-.644 1.39-.47.09.03.207-.057.296-.116-.09.147-.09.47.06.498.118 0 .354.118.266.147-.09 0-.208.03-.237.06-.267.175-.296-.528-.592-.206-.09 0-.237.118-.237.235.03-.03.09-.09.178-.09 0 .09 0 .147.088.147.06 0 .06-.03.09-.03s.03 0 .03.03c0 .088-.327-.058-.268.205 0 0 .03.06.06.088 0 .088.06.176.207.118-.03-.03-.088-.06-.058-.088h.06c.028 0 .028-.06.058-.06.06 0 0 .03 0 .09l.03.087c-.03.117.118.205.266.117-.03 0-.118-.03-.148-.088.03 0 .06-.03.06-.03.03-.028.03-.058.03-.087 0-.03 0-.03.028-.03.03 0 .12-.03.12.03.028.058.117.116.206.087.178-.06.03-.205.178-.235.118 0 .414.088.473-.03.03-.057.03-.32-.118-.41-.09-.058 0-.146-.09-.292.978.41 1.008-.235 1.63-.088.058 0 .088.03.058.088-.03.205.03.205-.03.322-.03.06-.206 0-.325 0-.06 0-.118.06-.118.06-.09.028-.207.116-.207.204.03-.03.088-.088.177-.088 0 .205.148.234.237.147 0-.03.06 0 .03.03-.09.057-.208.204-.09.233 0 0 .03.03.06.03 0 .087.06.175.118.175-.03-.058-.03-.058 0-.175h.06c.088 0 .06-.176.148-.206-.06.235 0 .235.118.264.03.06.12.117.238.06-.03 0-.09-.06-.09-.09.03-.028.06-.087.06-.087.06-.206-.118-.206-.118-.294 0-.117.207-.03.207-.234 0-.03-.03-.088-.09-.118.06 0 .12 0 .15-.058-.15 0-.09-.118-.12-.205v-.03c.06-.028.09-.116.06-.204-.06.06-.207.147-.237 0 0 0 0-.117-.177-.088-.237.03-.415-.03-.918-.058.533 0 1.362-.147 1.362-.44 0-.264-.296-.41-1.125-.41-.83 0-2.724.322-2.724-.147 0-.234.356-.205.8-.205.03.03.088.088.177.117 1.066.323 2.34-.263 2.99-.058-.533-.674-1.154-.06-1.983-.235zm-3.316.06c-.03.087-.118.145-.207.058-.06-.06 0-.088-.09-.235.09.088.267.176.296.176zm.178.526c-.03 0-.03-.088-.06-.088s-.03.03 0 .088c-.06 0-.118-.058-.147 0-.03.06-.03.088.03.147.03.03 0 .06-.03.146-.09.207-.356.06-.237-.116.03-.058.06-.088.09-.088.058 0 .087-.03.117-.058.03-.06-.03-.088-.09-.147.06-.028.09-.028.06-.057-.03-.03-.088.03-.118 0s.03-.06.058-.06c.03-.028.06-.028.09 0l.266.118c.03.03.06.03.06.06-.06 0-.06.03-.09.058zm.148-.205c-.09 0-.118-.117-.118-.205.03.03.236.088.325.117-.15.03-.12.088-.208.088zm1.954 3.224c.03.058.088.088.177.117 1.066.293 2.19-.41 2.96-.147-.62-.556-1.39.06-2.22-.117.474 0 .977-.088 1.007-.234-.385.263-1.6-.205-1.924.176-.8 0-1.747-.118-1.747.38 0 1.085 4.47-.087 4.47.557 0 .615-4.056-.235-5.566.204.06-.175.325-.468.207-.615.09-.06.18-.118.18-.206-.06-.06-.15-.088-.21-.088.03-.06 0-.117-.058-.147 0 0-.03-.118-.06-.147-.236-.205-.295-.205-.502-.234-.03 0-.148.028-.148.028-.06 0-.12 0-.148.058-.06-.058-.12-.087-.207-.087-.06.086-.06.174-.03.292-.09 0-.207.263-.296.234.03.06.06.088.09.117-.09.147-.12.323-.207.323.03.058.06.087.088.087-.028.088-.028.176-.028.264l-.09-.03c-.59-.058-.325-.146-.71-.38-.355-.205 0-.557-.148-.88-.03-.087-.148-.146-.236-.146.03.03.088.06.088.148-.06.058-.148.146-.06.234.03.03 0 .147-.028.088-.06-.146-.09-.293-.237-.264 0-.146-.118-.205-.236-.087.03 0 .09.028.09.057-.06.176-.03.264.176.264.03 0 .03 0 .06.06h-.03c-.207-.088-.326.03-.266.175-.06.06-.09.147.03.235 0-.117 0-.088.058-.117l.06.058c.06.03.088-.057.148-.028.03 0 .03.03.06.03.028 0 0 .028 0 .028-.12.118-.12.235.058.264.03 0 .03.03.03.03 0 .234-.326.205-.296-.06-.178.265.148.47.355.353h.03c0 .058.03.087.088.087 0-.03.06-.058.06-.03 0 .06.03.148.118.148-.03-.06 0-.088.03-.088.06 0 .207.322.562.527.06-.028.148-.028.178-.087 0 .03.03.06.06.088 0 .148.117.353.088.353-.06 0-.59-.03-.68.03-.148.087-.533.234-.652.058-.03-.058-.03-.116-.088-.204-.06-.088-.12-.118-.208-.118-.06-.058-.207-.087-.266-.03.06 0 .09.03.148.09-.06.116-.118.204.178.292 0 0 .03.03 0 .03-.178.087-.208-.235-.356-.118 0 0-.03.03-.06.03-.088-.06-.295.087-.236.234 0-.03.06-.088.148-.117.03.262.148.262.356.116.03 0 .03 0 .03.03-.06.087-.238.204-.09.292 0 0 .03.03.06.03-.06.087.06.293.207.263-.03-.028-.088-.116-.088-.233.03 0 .06.03.06.03.118-.06.058-.206.147-.235.03 0 .03 0 .03.03.028.32.413.175.384-.03 0 0 0-.03 0 0 .06.03.088.088.06.146.028-.03.088-.058.117-.117.03.06.03.177-.058.265.06 0 .207-.088.237-.235.03.03.058.06.058.088.06 0 .148.03.296 0h.03c0 .06 0 .117.03.147 0 0 .03-.06.06-.06.028 0 0 .148.087.236.03-.38.475-.175.712-.322h.03c-.03.03-.06.088-.09.117.12 0 .71-.263.68-.38.03 0 .09-.03.12-.03 0 0 0 .06-.03.06.237.028.207-.206.296-.206 1.362.175.592-.587 2.19-.44.09 0 .12-.03.178-.09-.088.148-.088.41.09.44.236.06.295.147.266.147-.09.03-.208.03-.237.06-.237.175-.267-.382-.503-.265-.03 0-.06.03-.06.06-.118 0-.236.116-.207.233.03-.03.09-.088.178-.088-.03.088 0 .147.09.147.058 0 .058-.03.087-.03.03 0 .03.03.03.03 0 .088-.326-.06-.266.234 0 0 .03.06.06.088 0 .088.058.176.206.117-.03-.03-.09-.058-.06-.088h.06c.03 0 .03-.058.06-.058l.03.03c-48.253-45.95-.03.028-.03.058 0 0 .03.058.03.088 0 .088.147.205.295.117-.03 0-.148-.03-.148-.088.03 0 .06-.03.06-.03.03-.03.03-.058.03-.117 0-.03.058-.03.087-.03.03 0 .03 0 .06.03.03.06.118.118.207.088.18-.058.03-.205.18-.234h.117c.148.028.355.028.385-.03.03-.06.03-.323-.148-.41-.09-.06 0-.147-.09-.294.15.06.327.147.534.147.77 0 .444-.293 1.095-.205.06 0 .09.03.06.088-.03.205.03.205-.03.322-.03.088-.208.03-.326 0-.06 0-.118.03-.118.06-.09.028-.21.116-.21.204.03-.03.09-.088.18-.088 0 .176.177.234.265.117 0 0 .06 0 .03.03-.06.06-.207.205-.09.235 0 0 .03.03.06.03 0 .087.06.175.12.175-.03-.03-.03-.06 0-.176h.058c.09 0 .06-.176.148-.234h.03c-.03.088-.06.205.03.234 0 0 .03.03.06.03.03.058.118.117.236.058-.03 0-.09-.06-.09-.088.03-.03.06-.06.06-.088.06-.205-.118-.205-.118-.293s.207-.03.207-.234c0-.09-.088-.148-.088-.148.06 0 .118.03.148-.058-.148 0-.09-.118-.12-.206v-.03c.06-.028.09-.087.06-.204-.06.06-.207.147-.236 0 0 0-.03-.117-.18-.088-.236.03-.413-.03-.917-.06.474-.028 1.362-.145 1.362-.438 0-.967-4.53.146-4.53-.586 0-.323.86-.205 1.51-.205zm-3.286-.03c-.06.06-.148.118-.207.06-.06-.06 0-.09-.09-.235.09.058.238.175.297.175zm.177.5c-.03 0-.03-.09-.06-.09-.028 0-.028.03 0 .09-.058-.03-.117-.06-.147 0-.03.057-.03.086.03.145.03.03 0 .06-.03.117-.03.058-.09.146-.177.087-.09-.058-.09-.146-.06-.205.03-.06.06-.088.09-.088.058 0 .088 0 .118-.058.03-.06-.03-.088-.088-.147.06-.03.09-.06.06-.09-.03-.028-.09.03-.12 0 0-.028.03-.057.06-.057.03-.03.06-.03.09 0l.265.117c.03.03.06.03.06.058-.09.06-.06.118-.09.118zm.148-.177c-.088 0-.148-.117-.118-.205.03.03.237.117.326.117-.148.03-.12.088-.208.088zm8.378 6.74c-.09-.06-.12-.176-.207-.118 0 0-.03 0-.06.03h-.03c-.118 0-.266.117-.206.234.03-.03.06-.088.118-.117 0 .028.03.058.03.058.03.117.088.234.325.058.03-.03.03 0 .03.03-.06.117-.237.205-.09.293 0 0 .03.028.06.028v.03c-.03.146.12.234.207.234-.03-.03-.088-.118-.088-.235.03.03.06.03.06.03.117-.06.058-.206.147-.235.028 0 .028 0 .028.03 0 .058.03.204.178.175.148-.03.207-.117.178-.205h.03c.06.03.088.088.06.147.028 0 .087-.06.117-.12.03.06.03.177-.058.265.06-.03.207-.088.237-.234.028.03.058.06.058.09.06.028.148.028.296 0 0 0 .03 0 .03.028 0 .058 0 .117.03.146 0-.03.03-.088.058-.088.03 0 0 .147.09.235.03-.38.236-.204.473-.38.03-.03.03 0 .03.03-.03.03-.06.087-.09.116.09.06.415-.146.415-.293 0-.03.118-.058.237-.058.236 0 .207-.176.296-.176 1.36.175.592-.587 2.19-.44.09 0 .12-.088.178-.147-.088.146-.088.47.06.498.06.03.207.06.266.118v.03c-.088 0-.207.03-.236.058-.237.176-.267-.38-.533-.293 0 0-.06.03-.06.06-.118 0-.236.116-.207.233.03-.03.09-.088.178-.088v.06c0 .028 0 .087.09.087.058 0 .058-.03.088-.03.03 0 .03.03.03.03 0 .117-.326-.06-.267.234 0 0 .028.058.058.087-.03.088.06.176.207.117-.03-.03-.09-.058-.06-.117h.06c-58.938-50.96.03 0 .03-.058h.03c.03 0 .03 0 .03.028 0 .03-.03.03-.03.058 0 0 0 .088.03.088 0 .118.147.205.295.118-.03 0-.148-.03-.148-.088.03 0 .06-.03.06-.03.03-.03.03-.058.03-.088 0-.03 0-.03.028-.03h.06c.03 0 .06 0 .06.03.028.06.117.118.206.088.178-.058.03-.205.178-.234h.09c.147.03.354.03.383-.03.03-.058.03-.322-.148-.41-.09-.058 0-.146-.06-.293.148.06.326.118.533.118.385 0 .503-.06.68-.176.208-.118.415-.06.474-.06.03 0 .09.03.06.088-.06.205 0 .234-.06.322-.06.06-.207 0-.325 0-.06 0-.12.03-.12.06-.087.028-.206.087-.206.204.03-.03.09-.088.178-.088v.03c0 .146.148.175.237.087.03-.03.06 0 .03.03-.237.176-.177.205-.06.263-.03.088.03.176.09.176-.03-.03-.03-.058.03-.146h.06c.087 0 .058-.176.147-.235h.03c-.03.09-.06.206.03.236 0 0 .028 0 .058.03.03.087.118.116.237.058-.03 0-.09-.06-.09-.088.03-.03.06-.06.06-.088.06-.205-.09-.205-.09-.293s.21-.03.21-.235c0-.03 0-.088-.09-.117.06 0 .118 0 .148-.058-.148 0-.09-.118-.12-.206v-.03c.06-.03.09-.088.09-.205-.06.06-.237.147-.237 0 0 0 0-.117-.148-.088-.236.03-.503-.03-.976-.088-.03 0-.06-.03 0-.03.59-.03 1.36-.117 1.36-.41 0-.997-4.5.175-4.5-.586 0-.294.86-.176 1.51-.147.03.06.09.088.178.117 1.066.323 2.28-.498 2.93-.322-.828-.293-1.39.205-2.19.058.474 0 .977-.087 1.007-.234-.385.234-1.42-.176-1.865.117l-.06.06c-.8 0-1.746-.118-1.746.35 0 .82 2.93.352 3.61.352.712 0 .86.06.86.205 0 .205-.68.264-1.095.264-.653 0-3.376-.352-4.47-.03.058-.175.324-.468.206-.615.09-.06.177-.118.177-.206-.06-.058-.118-.088-.207-.088.03-.058 0-.117-.06-.146 0 0-.03-.117-.058-.147-.03-.03-.12-.117-.237-.176-.117-.058-.206-.058-.236-.058s-.148.028-.148.028c-.06 0-.118 0-.148.06-.06-.06-.118-.09-.207-.09-.058.09-.058.177-.03.294-.087 0-.206.264-.295.234.03.06.06.088.09.088-.06.147-.12.323-.208.323.06.087.09.117.148.117 0 .088 0 .176-.03.234l-.148-.058c-.177 0-.088 0-.266-.03-.117 0-.236-.234-.443-.35-.148-.09-.178-.177-.178-.353 0-.264.118-.293 0-.527-.03-.088-.15-.176-.208-.147.03.03.09.06.09.147-.06.058-.12.146-.06.205.03.03 0 .058 0 .117 0 .03 0 0-.03 0-.03-.117-.09-.264-.178-.264h-.06v-.03c0-.116-.117-.204-.236-.058.03 0 .09 0 .09.06-.06.175-.03.263.147.263.03 0 .03.03.06.058v.03c-.208-.087-.267 0-.267.088v.088c-.06.06-.09.147.06.235 0-.116.03-.116.058-.116.06.058.06.058.178 0 .03 0 .06.03.09.03.028.028 0 .028 0 .028-.12.117-.12.235.058.264.03 0 .03.03.03.03 0 .234-.326.204-.296-.06-.178.264.118.47.355.352h.03c0 .03.03.088.09.088 0 0 0-.058.058-.058.03 0 .03 0 .03.03 0 .057.03.145.12.145-.03-.058 0-.088.028-.088.06 0 .207.352.533.528 0-.03.117-.088.206-.117 0 .058.06.117.12.146l.058-.03c-.03.147.177.323.118.323-.06 0-.385-.058-.473.03-.15.087-.534.234-.653.058-.03-.058-.03-.117-.09-.205-.028-.06-.087-.088-.117-.117h-.09c-.058-.058-.206-.087-.265-.028.06 0 .09.03.148.087 0 .03-.03.058-.03.087-.03.06-.03.118.237.205.03 0 .03.03.03.03-.12.117-.178.117-.237.088zm2.25-1.934c.03.03.236.117.325.117-.148.03-.118.088-.207.088-.088 0-.117-.116-.117-.204zm-.208-.088c-.06.088-.118.146-.207.058-.06-.058 0-.088-.09-.234.12.058.268.176.297.176zm-.296.674c.03-.06.06-.088.088-.088.06 0 .09 0 .12-.06.028-.057-.03-.087-.09-.116.06-.03.09-.06.06-.06-.03-.028-.09.03-.12 0 0-.028.03-.057.06-.057.03-.03.03-.03.09 0l.265.118c.03.03.06.03.06.06 0 .028 0 .057-.03.086-.03.03-.03-.087-.06-.087s-.03.058 0 .087c-.06-.03-.118-.058-.148 0-.03.06-.03.088.03.147.03.03 0 .06-.03.118-.03.06-.088.147-.177.088-.148-.088-.148-.205-.12-.234zm-2.398 4.776c.03-.03.06-.088.118-.117 0 .03.03.06.03.06.03.117.06.205.325.058.03-.03.03 0 .03 0-.06.088-.207.205-.09.293l.06.06v.03c-.03.116.12.234.207.234-.03-.03-.088-.118-.088-.206.03 0 .06.03.088.03.12-.06.06-.205.12-.235.028 0 .028 0 .028.03 0 .058.03.175.178.175.12 0 .207-.117.178-.205 0 0 0-.03.03 0 .06.03.088.088.06.147.028-.03.087-.06.087-.088.03.06.03.146-.06.234.06-.03.208-.088.238-.234.03.03.06.088.06.06.06.028.148.028.267 0h.03c-.03.057-.03.116 0 .145 0-.03.03-.06.058-.06.03 0 0 .148.09.207.03-.352.325-.264.532-.41.06-.03 0 .087-.06.117.238.147.474-.175.563-.35l.06-.06c.03.03.03.06-.03.088.237.03.207-.176.296-.146.68.058.148-.586 1.273-.38.088 0 .206-.06.265-.118-.09.146-.09.468.06.468.118.03.355.147.236.147-.088 0-.176.028-.206.058-.237.146-.237-.352-.503-.264 0 0-.058.03-.058.058-.09 0-.237.118-.208.235.03-.03.09-.088.178-.088v.058c0 .03 0 .087.09.087.058 0 .058-.03.088-.03.03 0 .03 0 .03.03 0 .088-.326-.058-.267.206 0 0 .03.06.06.088 0 .088.058.147.206.118-.03 0-.06-.06-.06-.088h.06c.03.03.03-.06.058-.06 0 0 .03 0 .03.03s-.03.03-.03.06c0 .204.178.263.296.175-.03 0-.118-.03-.148-.06.03 0 .06-.028.06-.028.06-.03 0-.117.06-.117.058 0 .088-.03.117.03.03.058.09.116.207.087.178-.06.03-.205.148-.234.12 0 .415.06.474-.03.03-.057.03-.292-.118-.38-.09-.058 0-.146-.06-.263.474.205.89.146 1.214-.03.178-.088.592-.088.503.03-.087.175-.028.205-.087.293-.06.058-.208 0-.296 0-.06 0-.12.03-.12.058-.088.03-.236.088-.236.205.03-.03.12-.088.18-.088-.06.147.088.235.206.118 0 0 .06 0 .03.03-.148.116-.267.204-.09.263-.03.088 0 .146.06.176 0-.03 0-.06.06-.147h.06c.087 0 .087-.176.176-.205h.03c-.09.117-.12.234.03.234 0 .088.088.118.207.06l-.09-.09c.03-.028.06-.087.09-.087.117-.205-.06-.205-.03-.293s.206-.03.236-.234c0-.03 0-.088-.06-.118.09 0 .12 0 .15-.058-.15 0-.06-.117-.06-.205 0 0 0-.03.03-.03.058-.03.088-.09.117-.206-.06.06-.236.147-.207 0 0 0 .03-.088-.148-.058-.325.03-1.302-.088-1.036-.088.444-.03 1.39-.06 1.39-.44 0-.176-.117-.41-.857-.35-.8.057-2.575.292-2.575-.148 0-.234.473-.205.77-.176.03.06.088.088.177.117 1.036.294 2.19-.467 2.812-.292-.8-.293-1.303.205-2.073.03.444 0 .918-.088.947-.205-.355.234-1.332-.147-1.776.087-.03 0-.06.03-.06.06-.414-.03-1.035-.03-1.035.35 0 1.056 3.374-.087 3.374.528 0 .205-.77.235-1.124.235-.563 0-2.31-.293-3.375-.088.09-.176.266-.38.177-.528.09-.03.148-.117.178-.205-.06-.06-.118-.088-.207-.088.03-.058 0-.088-.06-.146 0 0-.03-.118-.06-.147-.028-.028-.117-.087-.235-.145-.118-.06-.177-.06-.236-.06-.03 0-.148.03-.148.03-.06 0-.12 0-.148.06-.06-.06-.12-.06-.178-.09-.03.09-.06.148-.03.294-.088 0-.207.233-.266.204.03.06.06.088.09.088-.06.147-.12.322-.208.322.03.06.06.06.09.088-.03.088-.03.205-.06.293l-.09-.03h-.06c-.117 0-.206 0-.413-.116-.148-.09-.178-.177-.178-.323 0-.147.06-.264.06-.38 0-.03-.03-.09-.03-.12-.03-.087-.148-.145-.207-.145.03.03.09.058.09.146l-.06.06c-.03.028-.03.087 0 .145.03 0 .03.03.03.03 0 .03 0 .03-.03.058 0 .03 0 0-.03 0-.03-.087-.09-.262-.178-.262h-.06v-.03c0-.088-.118-.175-.236-.058.03 0 .06.03.09.058 0 .03-.03.088-.03.118 0 .087.088.146.177.146.03 0 .03 0 .03.03 0 0 0 .03.03.03 0 .028 0 .028-.03 0-.177-.09-.266 0-.266.087v.057c-.06.06-.09.147.03.205 0-.03 0-.088.03-.117h.03c.028 0 .058.03.058.03.03 0 .06 0 .09-.03h.058c-54.113-52.308.03.03.06.03s.03.03 0 .03c-.12.116-.12.233.058.262.03 0 .03.03.03.03-.03.205-.326.176-.296-.06-.178.265.118.44.355.324h.03c0 .06.03.088.06.088 0 0 .03-.058.058-.058.03 0 .03.03.03.03 0 .058.03.146.118.146 0-.03 0-.088.03-.088s.03-.088.296.058c.03.06.058.088.088.118l.207-.03c-.03.147.03.38-.03.38-.03 0-.355-.028-.444.03-.147.088-.502.206-.62.06-.03-.06-.03-.09-.09-.177-.03-.058-.088-.088-.118-.088h-.088c-.06-.06-.208-.06-.237-.03.06 0 .09.03.148.088-.03.03-.03.06-.03.088-.03.06 0 .117.207.205 0 0 .03.03 0 .03s-.088.03-.118-.03c-.09-.058-.118-.175-.207-.116 0 0-.03.03-.06.03h-.03c-.177-.06-.354.087-.265.204zm2.84-2.022c.03.03.21.088.297.117-.15.03-.12.088-.208.088-.09 0-.118-.116-.09-.204zm-.206-.088c-.03.088-.118.147-.207.06-.06-.06 0-.09-.06-.206.09.058.237.146.266.146zm-.296.645c.03-.06.06-.088.09-.088.058 0 .088 0 .088-.058.03-.06-.03-.088-.09-.118.06-.03.09-.06.06-.06-.03-.03-.09.03-.09 0s.03-.058.06-.058c.03-.03.06-.03.09 0l.266.117c.03.03.06.03.06.058 0 .03.03.06 0 .088-.03 0-.03-.06-.06-.088-.03 0-.03.03-.03.088-.06-.03-.118-.06-.148 0-.03.058-.03.088.03.117.03.03 0 .088-.03.117-.03.06-.09.147-.177.088-.15-.058-.15-.146-.12-.205z" fill="#4A4A4A"></path><path d="M50.442 53.744c.09 0 .326-.088.326-.235 0-.03.148-.177.207-.558h.09c.265-.03.413-.234.68-.234-.06.088-.09.264-.09.41 0 .147.208.323.267.38v.03c-.09 0-.177.03-.207.06-.207.146-.237-.323-.474-.235 0 0-.058.03-.058.058-.09 0-.237.118-.207.206.03-.03.09-.088.148-.088v.06c0 .028 0 .087.09.087.058 0 .117-.06.117 0 0 .088-.296-.06-.237.205 0 0 .03.06.03.088 0 .088.06.147.178.117-.03-.03-.06-.058-.06-.088.06 0 .09 0 .09-.03.06 0 0 .03 0 .09.03.204.148.263.267.175-.03 0-.12-.03-.12-.06.03 0 .06-.028.06-.028.03-.03.03-.117.06-.117h.06c.028 0 .028 0 .058.03.03.058.09.116.178.087.177-.06.03-.205.148-.235.09-.06.297.117.356 0 .03-.06.03-.294-.118-.352-.09-.06.118-.557-.267-.79.18.057.77.116.86-.03.177.03.532.204.384.292-.148.088-.148.147-.207.176-.06-.058-.09-.117-.148-.146-.06-.03-.12 0-.12 0-.088-.03-.206 0-.236.117.03 0 .118-.03.178 0-.03.058-.03.088.03.117v.03c-.267-.03-.238.03-.208.146-.06.058-.09.146-.03.205.03-.06.03-.06.12-.088 0 .03.028.06.028.06.06.057.148-.06.237-.06 0 0 .03 0 0 .03-.09.03-.178.087-.15.175 0 0 .03.03.03.06-.03.057 0 .145.09.204-.03-.176 0-.088.088-.147.178-.088.06-.206.12-.264.058-.06.147.117.265 0 .03-.03.06-.088.03-.147v-.03c.03.03.06.088.148.058-.088-.087 0-.146.06-.205 0-.03 0-.03.03-.03.06 0 .118 0 .177-.087-.06 0-.266-.088-.148-.146.177-.06.206-.176.118-.264-.148-.176-.415-.205-.444-.38h.266c.888 0 1.45-.236 1.42-.53 0-.233-.265-.32-.887-.262-.77.058-1.776.146-1.776-.118 0-.146.177-.234.385-.293.03.06.088.118.177.147 1.006.293 2.19-.47 2.81-.293-.798-.264-1.3.205-2.07.06.443 0 .917-.09.946-.207-.384.235-1.54-.205-1.835.176-.324.088-.59.235-.59.47 0 .732 2.604.087 2.604.38 0 .176-.503.352-1.184.352-.533 0-1.42-.352-2.546-.06v-.028c.09-.205.326-.47.207-.616.09-.03.15-.117.15-.205-.06-.06-.12-.06-.178-.09.03-.057 0-.087-.06-.116 0 0-.03-.117-.06-.146-.028-.03-.117-.088-.206-.147-.118-.058-.177-.058-.237-.058-.03 0-.12.03-.15.03-.058 0-.117 0-.117.058-.03-.058-.09-.058-.178-.088-.03.088-.06.147-.03.264-.088 0-.177.235-.266.205.03.06.06.09.088.09-.06.146-.09.292-.207.292.03.06.06.088.09.088-.06.205-.06.47-.06.645-.147-.176-.414-.557-.562-.645-.148-.088-.148-.146-.148-.293 0-.234.118-.293 0-.498-.03-.09-.118-.148-.207-.148.03.03.06.06.09.147-.06.058-.12.146-.06.204v.088c0 .03 0 0-.03 0-.03-.088-.09-.234-.148-.234h-.06c0-.088-.118-.176-.207-.06.03 0 .06 0 .09.03-.06.147 0 .235.147.235.03 0 .03.03.06.058 0 .03 0 .03-.03 0-.178-.057-.237 0-.237.09v.058c-.06.058-.06.117.03.205 0-.03 0-.088.03-.117 0 0 .03 0 .03-.03.117.118.147-.058.236.06v.028c-.12.118-.09.235.06.264.028 0 .028.03.028.03-.03.205-.296.175-.296-.03-.148.235.12.44.326.293h.03c.03.03.03.06.06.06 0 0 0-.06.058-.06.03 0 .03 0 .03.03 0 .06.03.118.088.147 0-.03 0-.088.03-.088s0 .32.296.497c.06.176.207.264.355.264l.118.235c-.8 0-.237-.03-.77.118 0 0-.207.088-.326-.03-.03-.058-.03-.088-.06-.175-.028-.06-.088-.088-.117-.088h-.09c-.058-.06-.177-.06-.236-.03.03 0 .088 0 .118.088 0 .03-.03.06-.03.06-.03.057 0 .116.207.204 0 0 .03.03 0 .03-.177.087-.177-.206-.325-.118 0 0-.03.03-.06.03-.118-.03-.266.087-.207.234 0-.03.06-.088.12-.117.028.206.087.264.324.118.03-.03.03 0 .03 0-.12.205-.207.146-.03.322-.06.06.06.235.178.235-.03-.03-.09-.088-.06-.206.03 0 .06.03.06.03.118-.06.06-.177.118-.206.03 0 .03 0 .03.03.03.263.355.175.355-.03 0 0 0-.03 0 0 .06.03.09.058.06.146.03 0 .06-.058.088-.088.03.06.03.147-.06.235.06 0 .18-.088.208-.235.03.03.03.06.06.06.118 0 .118.028.266-.03.03 0 .03 0 .03.03v.145c0-.03.03-.058.06-.058.028 0 0 .116.058.204.03-.322.207-.205.414-.322.03-.03.03 0 .03 0 .03-.176.03-.118-.03-.088zm.326-2.638c.03.03.207.088.296.117-.12.03-.09.088-.178.088-.09 0-.148-.116-.118-.204zm-.178-.088c-.03.06-.118.118-.177.06-.06-.06 0-.09-.06-.206.06.03.208.117.237.146zm-.237.792c-.088-.06-.06-.147-.06-.206.03-.058.06-.088.09-.088.06 0 .09 0 .09-.058.028-.06-.03-.088-.09-.117.06-.03.09-.03.06-.058-.03-.03-.09.03-.09 0s.03-.06.06-.06c.03-.028.06-.028.088 0l.238.12c.03.028.06.028.06.057v.087c-.03 0-.03-.058-.06-.088-.03 0-.03.03 0 .087-.06-.03-.118-.03-.148 0-.03.06-.03.088.03.117-.03.06-.12.264-.267.206zM9.798 67.077c1.214-.235 1.57.322 2.872.322.8 0 1.006-1.056 1.657-1.056.622 0 .622.498.415.85 1.006-.264 1.214-.82 1.214-1.406 0-.587-.474-.938-.12-1.143.356-.235 1.54.03 1.067.996.622-.116.947-.556.947-1.288 0-.733-.858-1.173-1.658-1.055-.148-.47-.828-.733-1.45-.733-1.42 0-1.214 1.143-2.19 1.143-1.57 0-3.08-2.05-3.08-5.51 0-1.845 1.984-2.314 3.375-2.93 1.392-.615 3.85-2.14 5.33-4.6 1.153-1.934 1.183-4.074 1.035-6.594 1.983 1.143 2.19 2.784 2.19 3.956 0 1.552-.8 2.168-1.42 2.46-.533.235-.71.147-.77.47-.06.38.207.615.414.732.71.38.563 1.055.77 1.788.207.732.858 1.905 1.954 2.784.118-.47.088-1.202.03-2.17 1.51.763.295 3.81 3.256 3.81-.533-.322-.385-1.113-.09-1.23.326-.117.71.205 1.274.996.562.792.414.733 1.805.733 1.392 0 .77-.498 1.51-.498s.68.85.296 1.494c1.244-.382 1.63-1.32 1.185-2.286 1.095-.587 1.687.234 1.836.85 1.096-1.085 0-2.404-.858-2.49.03-.412-.355-.822-.8-.85-.443-.03-.887-.06-1.39-.03-.504.03-.8.76-1.392.76-1.835 0-5.506-3.37-5.506-4.805 0-1.466 3.493-2.345 3.493-4.6 0-2.96-2.87-3.957-5.3-5.862.86-.967 3.406-1.202 4.827-.498.177-.82.68-.616.888-2.022.503 1.23-.178 2.256.355 2.784.414-.586 1.45-.5 1.39-2.052.327.967-.413 2.433.327 3.077.118-.79.592-.937.888-.937.296 0 .562.205.562.674 0 1.172-1.42.85-1.42 2.197 0 .558.71.763.71 1.115s-.592.908-1.273.44c.238.498.682.967 1.303.967.652 0 1.333-.528 1.6-1.173.325.85.088 1.787-.534 1.904.62.322 2.16.03 1.982-1.934.86.147 1.303.733.8 1.758.71-.176 1.332-.527 1.332-1.26 0-.586-.563-.967-.474-1.758.09-.645-.8-1.26-.947-2.14-.385-2.812.266-1.347-6.305-8.82.266-.03.562.03 1.213.645.386.38 1.363 1.348 2.074 2.022 1.095-2.843 2.723-5.275 4.617-7.12-.71.175-1.45.468-2.1.907-.03-.996-.267-1.963-.948-2.608.267-1.406.03-3.106-3.108-5.216 1.6.38 2.576 1.846 3.79.733-1.096-.03-1.126-2.462-5.122-4.454 1.51-.03 2.724 2.43 4.47 1.024-1.658-.205-2.22-3.165-5.21-4.073 1.036.118 2.102.616 2.99-.585-1.036.234-1.658-.733-2.783-.82.414-1.29.325-2.11-.12-3.077-.77.058-1.568.293-2.16.76-.09-.702-.83-.76-1.48-.702.03.322.177.762-.148.82-2.102.41-4.885 1.437-7.075 2.96-.267.206-.503-.263-.68-.468-.504.41-.948.937-.623 1.494-.77.06-1.598.264-2.31.85 0 .908.74 1.758 1.837 2.256-1.835 1.846-.177 3.546-1.805 5.158 2.28.088 1.895-3.106 3.05-3.546-.12 2.256-1.363 2.637-1.363 5.07 0 1.29.77 2.696.09 3.545 1.923-.527 1.42-4.776 2.604-6.066.207.732.09 1.435-.148 2.168-.68 1.993.06 4.69-.977 5.568 1.718-.176 2.103-2.608 3.257-3.986-1.213 3.224-2.545 8.792-4.32 11.4-3.317 4.512-5.3 10.022-8.35 10.022-1.33 0-2.367-.82-2.367-2.55 0-5.128 8.762-8.674 8.762-14.124 0-2.433-1.984-3.37-3.197-3.37-.83 0-1.836.41-2.694 1.113-.354-.145-.71-.233-1.035-.233-3.108 0-2.28 5.597-4.973 5.538 1.065.616 2.9-.557 3.996-2.14-.444 3.635-5.654 2.668-5.24 7.005.74-3.4 9-2.9 9-8.088 0-.586-.297-1.084-.71-1.465.62-.41 1.213-.557 1.746-.557 1.006 0 1.894.732 1.894 2.198 0 4.57-8.703 8.44-8.703 14.066 0 .937.266 1.758.74 2.373-.622.264-1.243.147-1.776-.47-.06 1.437 2.012 2.375 3.314 1.642.296.087.592.146.918.175-.385 1.084-1.717 1.407-2.427 1.348 2.13 1.7 5.86-.527 5.654-2.432 1.686-1.376 2.752-3.72 3.995-5.274-.06.352-.148.703-.207 1.055-1.243 2.287-2.428 4.338-2.753 7.327-.267 2.52-1.54 4.777-3.286 4.777-.386 0-1.008-.5-1.333-.264-.533.47-.03.967-.03 1.436 0 .703-1.36 1.436-1.36 3.634 0 .996.56 2.197.354 2.842.563-.293 1.303-1.23 1.63-2.462.59 2.902-1.244 2.784.088 5.392.177-.85 1.006-1.23 1.54-.85.532.352.265.616-.12.997-.384.38-.74 2.314 1.007 2.197-.355-.147-.385-.674.503-.85zm15.57-54.77c-.798 1.23-.265 1.76-.887 2.257-.798.615-1.864.06-2.338-.762 1.096-.44 2.37-.938 3.227-1.494zm-1.183 3.898c.178.205.65.44.503.733-.148.293-.77-.352-1.213 0-.356.293-.06.557.62.762-.65.38-1.33.615-1.094 1.29.18.585.504.732 1.155.732.504 0 1.984 2.403.148 3.194-1.687.732-2.605-1.993-2.16-2.432.443-.44.592-.792.325-1.32-.296-.644-.977-.322-1.687-.146.326-.615.356-1.025-.088-.967-.562 0-.562.91-.86.792-.295-.117-.147-.615-.147-.88 0-.38.237-.497.622-.673 3.434-1.32 3.523-1.466 3.878-1.085zm-5.536.674c-.8.058-.77-.704-2.19-1.056.976-.205 2.25-.703 3.373-1.113.178.938-.177 2.08-1.184 2.17zm-5.27-7.005c0 .762 1.125.762 1.125 0 0-.76-1.125-.79-1.125 0zm.918-1.523c0-.762-1.125-.762-1.125 0s1.125.732 1.125 0zm.325-.704c.77 0 .74-1.143 0-1.143s-.74 1.143 0 1.143zm1.54-.088c.77 0 .77-1.142 0-1.142s-.77 1.142 0 1.142zm6.483-1.055c.533.528 1.332-.263.8-.82-.563-.527-1.333.293-.8.82zm-.148-1.23c.237-.205.237-.586 0-.82-.533-.528-1.332.263-.8.82.237.234.592.234.8 0zm-1.51-.235c.533-.527-.266-1.348-.8-.82-.532.527.267 1.348.8.82zm-1.273.967c.533-.527-.266-1.348-.8-.82-.562.527.238 1.348.8.82zm-3.64-.79l.473.995.592-.703c.03 0 .06.028.06.028.058.352.058.91.058 1.26 0 .968 1.45.968 1.45 0 0-.586-.443-.527-1.183-1.406 0-.03.03-.06.03-.088l.976.088-.384-1.026-.74.616c-22.41-9.085-.03 0-.03-.03l-.06-1.055-1.005.38.652.793c-.03.03-.03.058-.03.088l-.858.058z" fill="#4A4A4A"></path><path d="M21.166 8.264c-.533-.264-1.007.176-.533.762.09-.528.533-.41.65 0 .09.35-.236.79-.798.967-.83.234-1.096-.293-1.273-.733.177-.117.592-.06 1.066.235l-.415-1.29c-.178.47-.444.645-.77.79-.03-.38.267-1.142.267-1.142l-1.6.645c-22.763-12.6.712.352.978.645-.325.117-.65.176-1.125-.03l.622 1.23c.118-.555.385-.878.622-.907.177.47.355 1.026-.415 1.406-.533.264-1.065.206-1.273-.117-.208-.35.03-.762.443-.47-.06-.76-.71-.73-.917-.174 0-.76-.208-1.23-1.007-1.465-.208.792.058 1.23.828 1.553-.444-.058-.918.38-.296.938 0-.498.414-.557.622-.205.355.53-.356 1.496-1.57.353.208-.088.386-.06.682.03l-.83-1.027c.06.38.03.645-.058.792-.178-.206-.237-.38-.326-.792l-.65.586c.62.38 1.3.968 2.16 2.14 2.072-1.29 5.21-2.49 7.193-2.93-.207-1.437-.118-2.345.06-3.02l-.86.03c.238.352.297.498.326.79-.176-.057-.354-.233-.59-.555l.118 1.348c.148-.235.296-.41.473-.498-.087 1.67-1.272 1.465-1.36.85-.06-.382.266-.616.592-.294.06-.79-.592-.79-.86-.44.327-.76.208-1.29-.472-1.7-.415.675-.237 1.144.296 1.7zm72.022 46.71c-1.362 0-2.457 1.114-2.457 2.462 0 1.377 1.096 2.46 2.458 2.46 1.36 0 2.457-1.112 2.457-2.46 0-1.377-1.096-2.462-2.457-2.462zm0 4.308c-1.007 0-1.836-.82-1.836-1.846 0-1.026.83-1.846 1.836-1.846 1.006 0 1.835.82 1.835 1.846 0 1.026-.83 1.846-1.835 1.846zm-9.266 3.048c.415-.235.71-.586.77-1.026.266-1.436-1.835-2.52-3.167-1.612-1.777 1.26.473 3.693 2.397 2.638zm-2.368-1.583c.207-1.172 2.546-.88 2.546.352v.116c-.09.528-.74.85-1.45.703-.71-.147-1.185-.675-1.096-1.173zM70.512 26.05c.06-.35-.06-.702-.236-.995-.474-.615-1.48-.674-2.28-.06-.77.617-1.006 1.613-.503 2.258.83 1.055 2.842.263 3.02-1.202zm-.74-.585c.296.352.09.967-.384 1.348-.652.498-1.51.352-1.51-.35-.03-.998 1.39-1.642 1.894-.998zm8.88 30.154c-.354.35-.59.907-.59 1.464v.06c0 .556.206 1.083.532 1.464.977 1.055 2.605.205 2.605-1.436.058-1.67-1.51-2.58-2.547-1.553zm1.51 2.548c-.118.118-.325.235-.562.235-.888-.03-1.302-1.582-.503-2.344.592-.617 1.51-.03 1.48 1.083 0 .41-.148.79-.414 1.025zM68.205 35.75c-.533-.263-1.096-.292-1.6-.116-.384.117-.68.38-.828.732-.65 1.348 1.125 2.93 2.635 2.403 1.362-.528 1.274-2.316-.206-3.02zm.473 1.994c-.237.468-.947.615-1.57.293-.976-.47-1.094-1.553-.295-1.817.977-.38 2.25.703 1.865 1.524z" fill="#4A4A4A"></path><path d="M92.477 33.055c.8 2.198 2.398 3.018 3.612 2.432-2.725-.322-.504-4.982-3.997-4.982-.208 0-.385 0-.563.06-.592-.616-1.273-.88-2.28-.88-1.48 0-4.025 1.436-4.025 4.396 0 6.39 7.37 6.946 7.37 12.6 0 1.642-1.243 2.668-2.634 2.668-1.242 0-2.25-1.407-3.285-3.575-.503-1.055-1.57-2.462-2.694-3.956 1.186.85 2.547.234 2.547-1.055 0-1.612-2.013-2.784-3.078-1.758-.268.234-.416.615-.445.996-.03.117 0 .41.118.703-1.598-2.08-3.05-4.132-3.05-5.245 0-.996.682-1.846 1.51-2.9.03.028.297.175.297.175l.237-.235c.296-.322.917-.996 2.19-2.373l.06-.088.295-.323-.8-.644c.208-.5.386-.997.534-1.583.237 1.026.77 1.67 1.48 1.465-.474-1.055.503-2.46-.148-5.07.592.997 1.48 1.525 2.102 1.35-1.628-1.466.473-3.488-1.628-6.624.71.234 1.154.088 1.45-.234-1.954-.264-1.066-2.755-4.47-3.663.86-.146 1.332-.644 1.214-1.113-.888.645-1.687-1.2-4.648-1.172-.177-1.114-1.213-2.286-2.368-2.843.207.85.03 1.64-.207 2.286l-9.62-9.494c-.297-.264-.445-.323-.504-.235-.09.087-.06.263.117.468l8.26 10.403c-.622.206-1.214.47-1.865.704-.415.147-.71.557-.71 1.085-1.54.76-2.872 1.698-3.553 2.314-.504.468-.92.586-.475 1.61.178.382-.355 1.38.83.675.798-.47 2.574-1.466 2.84-.85.15.322-.74.732-1.33.966-.593.235-1.245.704-1.156.938.088.235.562-.03.62.235.03.292.238.526.475.526.236 0 .562-.498.74-.352.177.176-.09 1.29-.296 1.583.946-.117 1.538-.996 1.567-1.7.03-.703.208-.88.356-.967.148-.088.325.762.118 1.26.504-.117 1.008-.762.948-1.963.267-.205.504-.352.68-.352.327 0 .95.88 1.837.88 1.628 0 2.545-1.32 2.634-1.964.088-.497.03-.995-.238-1.376.592.47.77 1.23.77 1.758 0 2.315-4.085 3.43-5.772 5.04l-.178.176-1.924-.762c-.267.82-.74 2.403-1.125 3.634l-.09.322.18.088c-1.156 1.524-2.073 3.224-2.28 4.982-1.806-1.876-1.362-.82-1.303-1.817.09-1.64-1.57-2.403-2.428-1.29-.06-.058-.148-.117-.207-.146-.62-.5-1.42-1.085-1.894-1.613-.206-.234-.414-.35-.828-.35-1.51 0-.474-.324-3.02 1.58.326.353.77.792 1.096 1.173.71-.556.8-.703 1.332-.703.237 0 .592.176.83.557.176.264 1.745 2.315 3.018 3.75-.148.06-.296.09-.414.147-.563.236-1.806.177-2.34.148-.56-.03-.65-.176-1.035.41-.563.908-.978.967-.445 1.875.562.967 1.983 3.517 2.457 4.66.474 1.143 1.006 1.318 1.924 1.7.918.38 2.428 1.26 2.605 1.465l.06-.88c-.266-.263-1.125-.586-1.45-.703-.326-.117-.415-.264-.03-.264s1.45.382 2.22.705c-.236-.85-1.036-1.817-1.54-2.345-.65-.175-1.3-.175-1.568.03.03.176-.118.41-.355.41s-.415-.205-.355-.44c.09-.263.473-.35.385-.82-.09-.498-.68-.586-1.066-.615-.532-.792-1.183-1.964-1.45-2.433-.296-.47-.118-.732.09-.908.473-.38 1.45.205 3.403.322.68.03 1.54.088 2.428.117.267 2.286 1.185 4.455 4.323 5.246 1.54.38 3.138 1.523 3.67 3.017-6.305-.117-7.31 2.345-7.31 4.69 0 2.665 2.22 2.52 2.22 4.482 0 1.728-5.3 2.432-6.9 2.695-2.248.323-2.337.645-5.297 3.634 0 0 .503.116 1.006.087l.918-1.172c.266-.38.444-.704.62-.674.18.03.06.323-.147.763l-.74 1.26c3.11.205 3.316-.938 3.316-1.436 0-.47-.77-.79-.327-1.114.444-.293.83-.088 1.184.323.356.41.474.762 1.332.47 0 0 6.778-2.844 7.637-3.225.77-.35.562-.673.09-1.083-.505-.41-.593-1.114-.593-1.817 0-2.05 1.243-2.696 3.433-2.667-.03.352-.06.704-.06.997 0 3.223 4.856 6.388 6.158 6.388.593 0 1.362-.44 1.42 1.494.03 1.436.327 2.433.06 4.074-.266 1.64-.74 1.904-1.716 2.608-.978.703-1.925 2.872-2.34 3.34 1.362.91 1.214-1.846 2.31-2.46-.386.966-.682 2.402-.86 2.812 1.244.205 3.257-.908 3.257-1.788s-.68-.79-.68-1.377c0-.263.325-.556.68-.556.503 0 .888.41.918.587 1.065-.556.917-1.934.828-3.692.178.44.622.79 1.244.85.444.03.947-.088 1.36-.352 1.363-.908 1.245-2.696-.176-2.99-.502-.116-1.065.03-1.568.353-.444.292-.77.732-.888 1.2-.09-1.758-.237-3.4-.178-4.073.06-.996.12-1.436-.207-1.582-.327-.147-.682.41-1.156.41-.473 0-1.894-1.32-1.894-2.696 0-1.408 1.51-3.195 1.42-5.1-.03-.586.356-.908.593-.35.296.643.71 1.552 1.362 2.255-.385 2.403 2.22 4.747 4.38 2.99-1.065.175-1.805-.792-2.28-1.73.18.03.386.06.564.06h.324c.77.936 3.168.878 3.79-1.467-.415.5-1.303.85-1.895.792.917-.704 1.36-1.876 1.36-3.107 0-6.095-7.34-6.798-7.34-12.337 0-2.05 1.775-3.37 3.02-3.37.472 0 .828.147 1.124.352-.474.47-.74 1.23-.68 2.11.206 4.366 7.31 4.132 7.4 6.242.71-3.224-4.59-2.257-4.767-6.535zM73.562 16.293c.355-.645 0-1.67 1.184-1.67.592 0 1.124.586 1.835.82-1.154.117-2.19.38-3.018.85zM66.22 30.77c-.473-.03-.77-.675-.74-1.144.03-.35.148-.674.385-.88.562-.497 1.243.09 1.214.968-.03.586-.445 1.055-.86 1.055zm21.847 29.626c.207-1.055 1.776-1.554 2.25-.82.295.468 0 1.142-.563 1.494-.918.615-1.865.146-1.687-.674zm-2.605-20.63c.473.498.592 1.23.207 1.582-.652.615-2.044-.234-2.014-1.32 0-.878 1.066-1.054 1.806-.262zM71.49 26.286l.03-.06c.384-1.17.946-3.017 1.005-3.28l1.362.527-.177.058c-.237.09-.593.323-.948.675.237.06.592.06.83-.117l.206-.147-.592 1.496-.09-.147c-.087-.147-.354-.5-.62-.587-.03.118-.03.205-.03.293 0 .557.385.792.77.997.65.35 1.066.38 1.214.117.03-.06.03-.117.03-.176 0-.088-.03-.205-.12-.293-.118-.145-.354-.233-.65-.116l-.09.03v-.09c-.03-.41.09-.614.208-.76.148-.147.326-.235.533-.235.238 0 .445.145.563.35.09-.82.533-1.435 1.303-1.67l.06-.03.03.06c.295.82.147 1.435-.475 2.11.652-.118.978.322.86.82-.09.322-.326.498-.593.645l-.03-.088c-.177-.997-1.923-.205-.177.762.77.438 1.243.057 1.54-.353-.208-.03-.563.03-.89.234l-.235.148.976-1.846c.03.263.09.586.416.908.237-.79.06-1.113-.09-1.406l2.014 1.172-.237.03c-.355.028-.68.233-1.006.614.385.088.68 0 .77-.03l.207-.058-1.096 1.76v-.353c0-.353-.118-.646-.237-.82-.087.174-.147.38-.147.585 0 .322.148.674.622.937 1.658 1.026 1.54-.88.563-.556l-.09.03v-.09c-.03-.38.12-.614.238-.732.148-.146.355-.205.532-.205.296.03.474.263.592.556.326-1.026.86-1.29 1.658-1.465l.03.06c.03.146.06.292.06.44 0 .614-.297 1.142-.83 1.523.267 0 .474.117.592.322.06.117.09.235.09.352 0 .058 0 .146-.03.205-.06.176-.178.38-.533.557l-.09.028v-.088c-.03-.322-.236-.47-.414-.498-.177-.03-.355.03-.444.176-.15.264.088.586.71.996.414.264.888.498 1.48 0-.207-.176-.622-.234-.83-.234h-.147l1.006-1.26c-.03.263-.09.644.295 1.025.178-.79.12-1.084.06-1.348l1.154.938-.06.06c-.03 0-1.51 1.64-2.25 2.46l-.03.06-10.33-5.98zm10.064 25.2c-.385.587-1.095.763-1.54.47-.443-.322-.473-1.026-.088-1.612.385-.556 1.095-.79 1.54-.47.443.294.473 1.027.088 1.613zm2.9-4.6c-.413.557-1.094.762-1.538.44-.444-.322-.474-1.026-.09-1.612.415-.556 1.096-.762 1.54-.47.444.353.474 1.056.09 1.642zm-34.1 22.33c.266 0 .414.352.65.85 1.63-1.846.622-3.634-.858-3.634-.177 0-.355.03-.503.06V63.56c-1.303-.058-2.842-.293-4.38-.703v3.663c-.15-.058-.327-.088-.534-.088-1.48 0-2.488 1.788-.86 3.634.208-.47.385-.85.622-.85.533 0 .296 2.608 1.806 2.667-.06.117-.06.264-.06.41 0 .645.534 1.202 1.185 1.202.77 0 1.42-.762 1.125-1.612 1.54-.06 1.273-2.667 1.805-2.667zm-2.902 3.75c-.888 0-.888-1.347 0-1.347.888.028.86 1.347 0 1.347zm1.036-1.61c-.532 0-.8-.352-.8-.733 0-.38.268-.498.268-.79 0-.558-1.007-.558-1.007 0 0 .292.266.41.266.79 0 .38-.296.732-.83.732-1.213 0-.828-2.696-1.835-2.696-.235 0-.502.204-.68.527-.207-.38-.325-.762-.325-1.055 0-.498.385-1.172 1.184-1.172 1.36 0 1.035 1.875 1.686 1.875.296 0 .504-.176.504-.47 0-.526-.948-1.024-.948-1.786 0-.763.68-1.408 1.45-2.023 2.93 2.373.504 2.872.504 3.81 0 .292.207.468.503.468.65 0 .325-1.875 1.687-1.875.8 0 1.184.674 1.184 1.172 0 .293-.118.674-.325 1.055-.178-.352-.444-.528-.65-.528-1.008 0-.623 2.695-1.837 2.695zm-7.726-56.06c.06.675.77 1.173 1.096 1.847.296-.79.8-1.377.74-2.022-.06-.615-.918-1.435-1.066-1.904-.415.88-.83 1.407-.77 2.08zm11.486-.175c-.06.616.444 1.232.74 2.023.355-.674 1.036-1.172 1.095-1.846.06-.674-.325-1.202-.8-2.08-.147.468-.976 1.288-1.035 1.904zM34.812 12.72c1.066 0 1.036-1.582 0-1.582s-1.065 1.582 0 1.582zm.533 1.143c0-1.054-1.598-1.054-1.598 0 0 1.056 1.598 1.056 1.598 0zm-1.214 1.935c0 .44.357.79.8.79.445 0 .8-.35.8-.79 0-1.055-1.6-1.055-1.6 0zm5.063-6.887c.444 0 .8-.35.8-.79 0-1.056-1.6-1.056-1.6 0 0 .44.356.79.8.79zm-1.953.616c1.036 0 1.036-1.583 0-1.583-1.066 0-1.066 1.584 0 1.584zM35.67 10.9c.445 0 .8-.35.8-.79 0-1.055-1.6-1.055-1.6 0 0 .44.357.79.8.79zm5.595-1.786c.445 0 .8-.352.8-.792 0-1.055-1.6-1.055-1.6 0 0 .44.356.792.8.792zm1.984.556c1.035 0 1.065-1.582 0-1.582-1.067 0-1.067 1.582 0 1.582zm1.834.88c1.036 0 1.066-1.583 0-1.583-1.036 0-1.036 1.582 0 1.582zm14.15 1.377c0 1.055 1.6 1.055 1.6 0s-1.6-1.055-1.6 0zm1.066 2.725c.444 0 .8-.352.8-.79 0-.44-.356-.792-.8-.792-1.036 0-1.036 1.582 0 1.582zm-.385 1.934c.444 0 .8-.352.8-.79 0-.44-.356-.792-.8-.792-1.036 0-1.066 1.582 0 1.582zm-4.263-7.678c1.066 0 1.066-1.582 0-1.582-.444 0-.8.352-.8.79 0 .44.356.792.8.792zm1.954.616c.444 0 .8-.352.8-.79 0-.44-.356-.793-.8-.793-1.036 0-1.036 1.584 0 1.584zm1.57 1.377c1.035 0 1.035-1.58 0-1.58-1.067-.03-1.067 1.58 0 1.58zM53.58 9.115c.444 0 .8-.352.8-.792 0-1.055-1.6-1.055-1.6 0 0 .44.356.792.8.792zm-1.983.556c.444 0 .8-.35.8-.79 0-1.056-1.6-1.056-1.6 0 .03.44.385.79.8.79zm-2.635.088c0 1.055 1.6 1.055 1.6 0s-1.6-1.055-1.6 0zm-2.013 4.308v-3.4c-.327-.058-.623-.146-.89-.263v3.663h.89zm1.834 0v-3.692c-.266.117-.592.234-.888.263v3.43h.888zM46.92 4.6c-1.007.206-1.777.997-1.954 2.023h1.954V4.6zm1.006 0v2.023h1.954c-.178-1.026-.948-1.817-1.954-2.022z" fill="#4A4A4A"></path><path d="M49.85 7.59h-4.855c.563 2.578 4.263 2.608 4.855 0zm-2.723-5.1c-.09.675-.504 1.32-1.066 1.76h2.724c-.562-.44-1.006-1.085-1.095-1.76.65.118 1.36.587 1.805 1.144V.88c-.444.556-1.155 1.025-1.806 1.142.058-.674.473-1.26 1.035-1.963H46.09c.563.702.948 1.317 1.037 1.962-.652-.117-1.392-.586-1.806-1.143v2.754c.445-.557 1.155-1.026 1.807-1.143zm9.206 57.085c-1.243.176-3.108-.176-4.618-.557-2.487-.615-5.476-1.7-8.26-2.96.12-1.435-1.035-2.49-2.13-2.49-.267 0-.504.058-.77.146-.385-.35-.77-.762-1.154-1.172-1.716-1.993-2.752-4.513-3.167-7.12-.118.82-1.095 1.757-2.664 1.787.03-.177-.03-.41-.15-.47-.414.47-.946.908-2.367.41.83 4.19 2.9 8.06 6.098 10.9 0 .118-.03.206-.03.324 0 .586.564 1.523 1.392 1.904.652.323 1.392.235 2.043-.234 2.605 1.377 6.66 2.52 9.502 2.52 2.102 0 4.826-1.64 6.07-2.842.088-.03.147-.088.206-.147zM32.83 50.14c-.208-.528-.208-1.056 0-1.525.798-1.816 3.61-1.29 3.61.91 0 2.05-2.812 2.695-3.61.614zm2.99 5.274l-.623-.88c-40.2-58.637.977-.673 1.066-.76-.06-.09-.533-.763-.592-.85-.118.087-1.065.76-1.065.76l-.622-.878 2.99-2.11.622.88c-42.598-55.68-.947.673-1.066.76.058.09.532.763.59.85.12-.087 1.067-.76 1.067-.76l.622.878-2.99 2.11zm6.748-.176c-1.095-.82-1.332-.557-2.427.733 1.244.997.71 2.023-.8 1.114-.62.967-1.064 1.64-.147 2.17l.12.057c.236.148.56.353.798.47-.443.264-.917.293-1.36.06-.682-.324-1.126-1.115-1.126-1.525 0-.762.415-1.612.83-2.227-.178-.264-.326-.557-.415-.82.384.058.62.117.887.175.622-.644 1.51-1.494 2.427-1.494.444 0 .888.233 1.244.614.236.293.414.615.444.967-.178-.057-.326-.175-.474-.292zm1.6 4.777c-1.393 0-1.393-2.14 0-2.14 1.42 0 1.42 2.14 0 2.14zm4.676 1.465c-.533 0-.977-.44-.977-.967 0-.528.444-.967.977-.967.533 0 .977.44.977.967 0 .527-.414.967-.976.967z" fill="#4A4A4A"></path><path d="M35.404 49.524c0-.616-.533-1.114-1.154-.88-1.036.41-.415 1.993.62 1.612.327-.117.534-.38.534-.732zm.533-15.97c-.414-.206-.83-.06-1.066.35-.383.733.327 1.32.92 1.144.65-.206.77-1.173.147-1.495zm21.817-1.964l-.385.117.206.264.178-.38zm4.38 6.77c-.117.116-.206.292-.325.44.06.028.147.057.236.086.148.06.296.088.444.147l-.355-.674zm.03 5.362c.06 0 .15 0 .15-.176v-.205h-.297c0 .206-.03.382.148.382zm-18.412-17.23c-.444-.206-1.006.057-1.154.41-.267.527.148 1.464 1.095 1.113.77-.264.68-1.23.06-1.524z" fill="#4A4A4A"></path><path d="M37.032 18.52c-.118-.615-.088-1.67.474-2.55l-2.25.968c1.066 1.2 2.34 3.926 3.02 6.183-.444.382-.68.88-.68 1.466 0 1.055.68 1.67 1.33 2.11-1.242.82-2.367 1.788-3.403 2.93-1.54 1.73-2.753 3.75-3.582 6.008-.03.117-.088.234-.118.322.237.264.504.528.74.79.09-.35.474-.702.74-.907l1.125.438c-.473.323-1.036.792-.917.91.06.057.296-.148.414-.236.355-.263.83-.674 1.51-.41.296.117.503.322.622.586.325.704-.178 1.436-.83 1.817l-1.035-.41c.237-.147 1.125-.91.89-1.026-.09-.06-.297.116-.505.292-.207.176-.473.352-.77.44 1.57 2.227.15 2.11 1.6 3.956.8 1.025-.03.938.68 2.227-.03-.352-.06-.733-.06-1.084h11.19v12.25c-.443 0-.947.058-1.332.527 1.303.528 2.576.997 3.82 1.378.118-.792.325-1.202.74-1.7 0 0-1.688-.176-2.576-.205V43.34H58.79c-.03 1.7-.326 3.34-.888 4.894-1.095 3.077-3.138 5.656-6.07 7.15-.324.147-.56.675-.768 1.143-.148.352-.267.704-.355 1.202.502.145.62.263 1.094.38 3.848.967 4.825.762 5.062.615.858-.674 1.658-1.436 2.398-2.285 1.54-1.73 2.753-3.78 3.582-6.037.858-2.344 1.302-4.835 1.302-7.385 0-.47 0-.937-.03-1.406-.355-.264-.77-.645-1.036-1.23-.562-.177-2.16-.763-2.16-.763l-1.51.41-.267-1.026 1.51-.41c-65.658-42.697.65-.88.947-1.202-.385-.703-.74-1.32-.977-1.73-.236-.38-.355-.732-.355-1.054l-1.362.733c.06.118.592 1.23.592 1.23l-.917.44-1.066-2.197 3.256-1.612.148.265c.238-.322.386-.586.564-.79-.622-1.085-1.362-2.11-2.19-3.078-1.007-1.143-2.162-2.14-3.375-2.93.65-.44 1.33-1.055 1.33-2.11 0-.616-.236-1.114-.68-1.495.71-2.256 1.954-4.952 3.02-6.154l-2.25-.967c.592.91.62 1.935.503 2.55-.592-.41-1.096-.966-1.244-1.7-.12.675-.474 1.79-.83 2.463.652-.323 1.185-.44 1.836-.176-.385.498-1.332 1.29-2.812.938-2.368-.557-1.57-2.08-.77-1.993.503.06.503.79.355 1.114.62-.352 1.302-2.257.295-2.55-.8-.205-1.51.88-1.776 1.7-.15-.997-.563-1.964-1.363-1.905-1.036.06-.71 1.994-.325 2.462.06-.674.414-1.025.74-.996.266.03.65.205.592.82-.148 1.35-4.47 1.67-4.707-1.142.622.117 1.57.586 1.984 1.2-.118-1.112-.147-1.903 0-3.076-.503.733-1.36 1.114-1.983 1.202.178-.79.86-1.612 1.628-2.11H45.38c.77.498 1.45 1.32 1.628 2.11-.592-.088-1.42-.47-1.924-1.202.12 1.143.12 1.934 0 3.077.415-.615 1.362-1.084 1.954-1.2-.148 1.845-1.835 2.138-2.783 2.138-1.006 0-1.865-.38-1.924-.996-.117-1.055 1.185-1.23 1.304.175.355-.498.71-2.402-.326-2.46-.8-.06-1.214.907-1.362 1.904-.266-.85-.977-1.934-1.776-1.7-1.006.293-.325 2.17.296 2.55-.148-.323-.118-1.085.355-1.114.8-.088 1.6 1.436-.768 1.993-1.45.35-2.428-.44-2.812-.938.68-.293 1.184-.147 1.865.176-.326-.645-.71-1.758-.83-2.462-.147.734-.65 1.32-1.243 1.73zm1.747 9.172l.68.733-.74.674c.09.116 1.687 1.845 1.687 1.845l-.77.703-1.687-1.846-.71.674-.68-.732 2.22-2.052zM36.114 30.3l2.753 2.17-.652.82-2.753-2.17.652-.82zm-.06 5.744c-1.48.47-2.87-1.114-2.072-2.608.86-1.612 2.9-1.172 3.316.234.295.91-.268 2.08-1.244 2.374zm11.19 6.623h-11.19c.09-5.13 2.694-9.964 6.957-12.103 1.332-.674 2.753-1.026 4.204-1.055v13.157h.03zm-1.42-14.477l-.474.997c-.77.205-1.657-.03-1.835-.06-2.13.265-3.05-2.783-.77-3.632 1.333-.5 2.546.527 2.546 1.728 0 .352-.117.704-.295 1.026.178-.03.504.028.83-.06zm1.627.557c-.77.03-1.57-.44-1.598-1.465v-2.198l1.066-.03v2.11c0 .294.06.352.088.382.12.117.237.146.415.146.207 0 .385-.058.473-.176.148-.146.09-.498.09-2.52h1.065c0 2.227.12 2.696-.384 3.224-.266.35-.68.527-1.214.527zm9.62 28.69l-.74-.734.89-.908-.208-.176-.86.878-.74-.732.86-.88-.207-.205-.948.91-.74-.733 1.687-1.67 2.605 2.58-1.6 1.67zm2.96-3.312c-.176.263-.56.527-.857.615l-1.007-.703c1.066-.352 1.125-.645 1.066-.704-.03-.058-.207.06-.414.147-.385.205-.948.498-1.57.088-.858-.616-.62-1.876.74-2.315l1.007.703c-.592.117-1.006.38-1.154.557-.03.058-.09.146-.03.176.09.057.355-.06.563-.148.414-.176.917-.41 1.42-.088.267.176.415.41.474.704 0 .058.03.146.03.205-.03.234-.09.498-.267.762zm-.324-11.898l3.64.06c-.03 1.317.06 1.786-.384 2.226-.592.557-1.983.44-1.983-.997v-.175c-.118 0-1.302-.03-1.302-.03l.03-1.083zm-.09 2.755l3.583.644-.414 2.315-1.006-.174.237-1.26-.267-.06-.207 1.232-1.006-.176.236-1.202-.296-.058-.236 1.29-1.006-.177.385-2.373zm2.872 3.985l-.296.762-2.28.79 1.688.674-.385.967-3.374-1.376.325-.762 2.25-.762-1.658-.674.385-.967 3.345 1.347zm-4.558-11.223c.562 1.553.858 3.223.888 4.952H47.896V29.568c2.96.146 5.625 1.61 7.58 3.897 1.064 1.23 1.864 2.667 2.456 4.28zm-8.496-8.88l.74-3.692 1.036.205-.71 3.693-1.066-.206zm9.502 1.348l.444.557-1.924 3.75-.71-.967.355-.674-.71-.91-.622.206-.858-.82 4.026-1.144zm-2.516-2.402l.65.498-2.19 2.99-.888-.617 1.125-1.464-1.096.293-.178-1.144-1.036 1.495-.947-.497 2.13-3.077.712.38.237 1.554 1.48-.41zm-8.97-5.568c3.05 0 9.03.176 9.03 2.315 0 .586-.386 1.084-1.244 1.61-4.204-2.812-11.397-2.782-15.54 0-.86-.526-1.245-1.024-1.245-1.61-.03-2.14 5.95-2.315 9-2.315zM18.502 69.07c-23.505-73.173-.12.058-.208.117.09.117.83 1.377.918 1.553.65-.352 1.154-.79.74-1.436-.444-.674-.947-.47-1.45-.234zm49.85-5.187l-.296-.176c-73.06-67.81-.15.293-.237.41.265.147.354.264.532.205.148-.058.236-.263 0-.44zm-4.145-1.876c-.503 0 0-.586-.917 1.73l.236.058c.71.176 1.184.058 1.45-.645.208-.527.06-.938-.77-1.143zm6.81 4.044c-.505.118-.86.646-.74 1.173.058.235.235.44.472.587.858.498 1.687-.294 1.51-1.026-.12-.528-.71-.85-1.244-.733zm-20.13 10.873c0 1.32 2.1 1.23 2.1-.088 0-.264-.088-.498-.295-.674-.592-.556-1.806-.233-1.806.763z" fill="#4A4A4A"></path><path d="M63.082 60.132c-1.746 0-3.76.674-4.736 3.077-1.036 2.548-2.19 3.398-2.19 4.512 0 .996.887 1.758 2.397 2.55.977.527 1.984.79 1.924 1.728-6.394 2.93-19.626 2.93-26.02 0-.06-.938.947-1.2 1.924-1.73 4.382-2.314 1.66-3.486.18-7.06-.978-2.404-2.99-3.078-4.738-3.078-6.186 0-15.274 11.223-21.846 9.29 2.605 1.17 4.47 3.81 6.542 3.81 5.417 0 11.634-8.236 17.554-8.06-1.362 1.67-3.226 2.022-3.226 3.722 0 1.2 1.036 1.905 1.746 3.516.444.997.533 1.7.888 3.106.326 1.23 1.184 4.425 13.972 4.425 12.79 0 13.647-3.163 13.973-4.424.384-1.406.473-2.11.917-3.106.71-1.582 1.747-2.315 1.747-3.516 0-1.7-1.896-2.052-3.228-3.722h.237c5.8 0 11.958 8.06 17.316 8.06 2.072 0 3.937-2.64 6.542-3.81-6.6 1.904-15.69-9.29-21.876-9.29zm-43.1 11.428l-1.185.645-2.013-3.428c1.333-.733 1.806-1.026 2.398-1.026 1.776-.028 3.168 2.55.8 3.81zm3.078-1.846l-2.13-3.4.946-.614 2.13 3.428-.946.586zm2.22-1.494l-2.1-3.4 2.22-1.465.56.91-1.272.85c.06.086.12.204.207.32l1.244-.82.56.91-1.242.82c.06.117.148.234.207.35l1.332-.878.563.908-2.28 1.495zm4.59-2.58c-1.185.528-1.926 0-2.31-.85l-.948-2.167 1.007-.528c1.094 2.49 1.124 2.9 1.834 2.58.74-.353.503-.41-.68-3.166l1.124-.382c.948 2.286 1.924 3.634-.03 4.513zm1.627 3.37c0-1.58 2.486-2.49 3.463-3.72 1.45.263 3.404.937 3.404 2.226 0 1.524-4.884 2.14-4.44 4.22-1.54-.82-2.427-1.758-2.427-2.725zm4.973 8.646l-.207-4.132c.62.176 2.013.557 2.723.674l.03 1.113c-1.806-.35-1.51-.526-1.51.03.148.03 1.42.352 1.42.352l.03 1.143c-43.96-80.938-1.154-.293-1.39-.35 0 .028 0 .32.03.438.384.117.976.293 1.48.38l.058 1.144c-1.006-.176-2.013-.528-2.664-.79zm6.364-1.788c-.325-.03-.888-.088-1.184-.146v3.135l-1.154-.176v-3.134c-.326-.06-.83-.117-1.184-.176v-1.114c1.006.176 2.398.38 3.522.5v1.112zm6.513 3.253l-1.155.03v-2.227c-.296.322-.976 1.172-.976 1.172s-.68-.82-.977-1.172v2.227l-1.156-.03v-4.19l.977.03c-51.063-79.063 1.008 1.2 1.156 1.406.148-.205 1.124-1.406 1.124-1.406l.977-.03v4.19h.03zm4.203-.732c-.828.762-2.31.91-3.197.088-1.302-1.2-.562-3.663 1.6-3.72 2.16-.09 2.96 2.314 1.597 3.632zm4.826-.703l-.86.322c-62.52-82.11-1.42-1.436-1.716-1.758-.03.44-.118 2.226-.118 2.226l-1.155.235.267-4.307.83-.147 1.745 1.788c.03-.44.118-2.198.118-2.198l1.154-.322-.266 4.16zm5.002-8.674c0 .968-.888 1.906-2.427 2.726.445-2.05-4.44-2.696-4.44-4.22 0-1.318 1.954-1.992 3.405-2.227.977 1.23 3.463 2.14 3.463 3.72zm-.207-4.19l-1.36-.322 1.36-3.868 1.54.38c.977.265 1.865 1.144 1.333 2.463-.592 1.523-1.717 1.61-2.872 1.348zm4.382 2.022l-.09-1.172c-.028-.44-.058-.586-.176-.674-.09.176-.74 1.26-.74 1.26l-1.007-.527 2.012-3.518c.296.176 1.066.616 1.362.792 1.42.908.562 2.315-.355 2.285.028.117.236 2.373.236 2.373-.178-.147-1.155-.762-1.244-.82zm2.635 1.876c-1.747-.996-1.155-3.37.533-3.75 1.125-.265 2.338.44 2.634 1.523.504 1.7-1.36 3.254-3.167 2.228zm2.368 1.494l2.13-3.457.978.586-2.1 3.488-1.008-.616zm6.217.088c-.297-.117-.83-.38-1.214-.586-.355.557-1.332 2.11-1.51 2.403l-1.036-.47c0-.028 1.155-1.845 1.54-2.46-.326-.176-.8-.47-1.037-.616l.533-.936c.86.527 2.546 1.377 3.256 1.7l-.532.966z" fill="#4A4A4A"></path></g></svg>
