<svg id="Layer_1" xmlns="http://www.w3.org/2000/svg" viewBox="0 0 242.4 242.2"><style>.st0{opacity:0.145;fill:#010202;enable-background:new ;} .st1{opacity:0.61;} .st2{fill:url(#Shape_10_);} .st3{fill:url(#Shape_11_);} .st4{fill:url(#Shape_12_);} .st5{fill:url(#Shape_13_);} .st6{fill:url(#Shape_14_);} .st7{fill:#FFFFFF;} .st8{opacity:0.47;} .st9{fill:url(#Shape_15_);} .st10{fill:url(#Shape_16_);} .st11{fill:url(#Shape_17_);} .st12{fill:#6D2D86;}</style><title>Group 2</title><g id="Page-1"><g id="Group-2"><g id="census-corner"><path id="Shape" class="st0" d="M.3 0h242.1L0 242.2z"></path><g id="Group" transform="translate(32 15)" class="st1"><linearGradient id="Shape_10_" gradientUnits="userSpaceOnUse" x1="-498.594" y1="492.579" x2="-497.594" y2="492.579" gradientTransform="matrix(64 0 0 -86.6 31910.7 42701.1)"><stop offset="0" stop-color="#783D8F"></stop><stop offset="1" stop-color="#682782"></stop></linearGradient><path id="Shape_1_" class="st2" d="M43.1 56.5v8.8H22.3V22H43v8.8h21.6v-8.9L43 .4H22.2C20.6 2 1.5 21.2.7 22v43.5L22.3 87v-.1H43l21.6-21.6h.1v-8.8H43.1z"></path></g><linearGradient id="Shape_11_" gradientUnits="userSpaceOnUse" x1="-451.674" y1="474.689" x2="-451.542" y2="473.801" gradientTransform="matrix(21.6 0 0 -8.8 9839.6 4246)"><stop offset="0" stop-color="#FFF"></stop><stop offset="1" stop-color="#FFF" stop-opacity=".8"></stop></linearGradient><path id="Shape_2_" class="st3" d="M75.2 71.4h21.6v8.8H75.2z"></path><linearGradient id="Shape_12_" gradientUnits="userSpaceOnUse" x1="-451.714" y1="506.742" x2="-451.374" y2="506.178" gradientTransform="matrix(21.6 0 0 -65 9797.2 32979.8)"><stop offset="0" stop-color="#FFF"></stop><stop offset="1" stop-color="#FFF" stop-opacity=".8"></stop></linearGradient><path id="Shape_3_" class="st4" d="M32.8 80.3l21.6 21.6v-65H32.8z"></path><linearGradient id="Shape_13_" gradientUnits="userSpaceOnUse" x1="-462.159" y1="495.924" x2="-462.441" y2="496.316" gradientTransform="matrix(42.3 0 0 -21.6 19630.6 10807)"><stop offset="0" stop-color="#FFF"></stop><stop offset="1" stop-color="#FFF" stop-opacity=".8"></stop></linearGradient><path id="Shape_4_" class="st5" d="M96.7 80.2l-21.6 21.6H54.4V80.2z"></path><linearGradient id="Shape_14_" gradientUnits="userSpaceOnUse" x1="-451.227" y1="500.535" x2="-452.042" y2="500.535" gradientTransform="matrix(21.6 0 0 -30.4 9839.5 15246.8)"><stop offset="0" stop-color="#FFF"></stop><stop offset="1" stop-color="#FFF" stop-opacity=".5"></stop></linearGradient><path id="Shape_5_" class="st6" d="M75.1 45.7h21.6v-9L75.1 15.3z"></path><path id="Shape_6_" class="st7" d="M86.6 118.3l3.5.4c-.1 2.4-.9 4.2-2.5 5.8-3.3 3.3-7.5 3.4-11.4-.6-.1-.1-.8-.9-.9-.9-4.4-4.6-3.1-8.9-.5-11.5 1.6-1.6 3.8-2.4 6.7-1.8l-.6 3.7c-4.1-.7-6.7 2.4-1.9 7.1 4.2 4.3 7.4 2.1 7.6-2.2zm15-8.2c-8.5-8.5-6.6-6.8-9.3-8.8l2.5-2.5 1.1.8c-.2-1.3.2-2.6 1.3-3.8 1.7-1.7 3.8-1.9 6 .3l6.2 6.2-3 3c-6.4-6.4-6.8-7.3-7.8-6.3-.7.7-.6 1.7.2 2.5l5.7 5.7-2.9 2.9zm7.4-12.9c1.8-.4 5-1.9 3.7-3.2-1.3-1.3-4.5 3.4-7.7.2-3.4-3.4.9-8.6 5.4-8.8l.3 3c-2.9.4-4 1.8-3.2 2.6 1.4 1.4 4.7-3.3 7.8-.2 3.8 3.9-1.8 8.6-5.2 9.2l-1.1-2.8zm9.7-22.2c8.6 8.6 6.8 6.9 9.2 8.9l-2.5 2.5-1-.7-.1.1c.2 1.3-.3 2.5-1.3 3.4-2 2-4.1 1.9-6.2-.2l-6.1-6.1 3-3c6.5 6.5 6.8 7.3 7.9 6.2.6-.6.6-1.6-.1-2.3l-5.8-5.8 3-3zm8.7 3.9c1.8-.4 5-1.9 3.7-3.2-1.3-1.3-4.5 3.4-7.7.2-3.4-3.4.9-8.6 5.4-8.8l.3 3c-2.9.4-4 1.8-3.2 2.6 1.4 1.4 4.7-3.3 7.8-.2 3.8 3.9-1.8 8.7-5.2 9.2l-1.1-2.8zm-31.5 29.3l-4.7 4.7c2.5 2.3 4.9-.4 5.3-3l2.9 1.1c0 2-5.3 10.5-11.7 4.1-2.6-2.6-3.4-6.3-.4-9.4 3.2-3.1 6.8-1.4 8.6 2.5zm-6.3 3l2.4-2.4c-.8-1.1-1.7-1.8-2.7-.9-.9.9-.6 2.2.3 3.3z"></path><g id="Group_1_" transform="translate(32 36)" class="st8"><linearGradient id="Shape_15_" gradientUnits="userSpaceOnUse" x1="-494.321" y1="369.943" x2="-494.321" y2="368.99" gradientTransform="matrix(42.4 0 0 -3.1 20981.1 1153.5)"><stop offset="0" stop-color="#1E1E1C"></stop><stop offset="1" stop-color="#1E1E1C" stop-opacity="0"></stop></linearGradient><path id="Shape_7_" class="st9" d="M43.1.9H.7c10.5 3.9 30.8 4.4 42.4 0z"></path></g><linearGradient id="Shape_16_" gradientUnits="userSpaceOnUse" x1="-462.83" y1="496.112" x2="-461.824" y2="496.112" gradientTransform="matrix(42.4 0 0 -21.6 19656.4 10742.1)"><stop offset="0" stop-color="#FFF"></stop><stop offset="1" stop-color="#FFF" stop-opacity=".8"></stop></linearGradient><path id="Shape_8_" class="st10" d="M75.1 15.3H54.3L32.8 36.9h42.4z"></path><g id="Group_2_" transform="translate(54 44)" class="st8"><linearGradient id="Shape_17_" gradientUnits="userSpaceOnUse" x1="-328.623" y1="461.69" x2="-327.673" y2="461.69" gradientTransform="matrix(2.4 0 0 -57.9 781.9 26760.8)"><stop offset="0" stop-color="#1E1E1C"></stop><stop offset="1" stop-color="#1E1E1C" stop-opacity="0"></stop></linearGradient><path id="Shape_9_" class="st11" d="M2.7 26.6C2.3 17.2 1.6 7.5.4 0v57.9c1.5-11.3 2.7-22.7 2.3-31.3z"></path></g></g><path id="_x32_017" class="st12" d="M41.4 79.9c-.8-.9-1.4-1.8-1.4-2.6 0-.6.3-1.1 1.1-1.1.9 0 1.4.4 2.3 1.2l4.7 4.1h2v-9.3h-2.7v4.6l-2.8-2.5c-1.3-1.2-2.4-1.8-3.9-1.8-2.2 0-3.7 1.4-3.7 4.1 0 1.8.9 3.6 2.2 4.9l2.2-1.6zm-4.5-13.6c0 2.9 2 4.9 6.6 4.9s6.7-1.6 6.7-4.8c0-3.1-1.9-4.9-6.7-4.9-4.6 0-6.6 1.8-6.6 4.8zm10.7.1c0 .9-1 1.5-3.8 1.5-3.2 0-4.1-.6-4.1-1.5s.9-1.5 3.9-1.5c3.2-.1 4 .6 4 1.5zm0-7.2h2.5v-7.6h-2.5v2.1h-7.9l-2.5-.2v2.8l2.5 4.1 2.2-1.2-1-2.2h6.7v2.2zm-7.7-8.7v-4.8c3.1 2.9 6.4 3.2 8.7 3.2H50v-3.5h-1.3c-1.7 0-6.2-.1-9.4-4h-2.2v9.1h2.8z"></path></g></g></svg>
