<svg width="219" height="43" viewBox="0 0 250 49" xmlns="http://www.w3.org/2000/svg"><title>ons-logo</title><g fill="#000000" fill-rule="evenodd" opacity=".749"><path d="M.047 29.412c.758-1.538 1.516-2.983 2.32-4.428C1.422 22.7.664 20.324.048 17.9V29.41zM4.593.372S.047.373.047 5.92v2.936c.427 5.08 1.516 10.022 3.315 14.636 2.557-3.962 5.588-7.597 9.33-10.72 7.386-6.2 17.283-10.488 30.78-12.4H4.59z"></path><path d="M48.538 3.356c-15.39 1.445-25.95 5.78-33.48 12.12-4.072 3.402-7.245 7.41-9.85 11.932C11.13 38.688 22.4 47.03 41.2 48.196h1.847s5.777.187 5.777-6.152V3.31l-.284.046M8.903 35.518c-1.752-2.004-3.315-4.242-4.594-6.572-1.61 3.076-3.08 6.385-4.263 9.88v9.37l30.828.047c-9.613-2.284-16.81-6.76-21.972-12.725M67.433 21.72c-4.736 0-6.82-3.82-6.82-8.576 0-4.707 2.084-8.576 6.82-8.576 4.735 0 6.82 3.915 6.82 8.576-.05 4.755-2.132 8.577-6.82 8.577zm0-15.754c-3.457 0-4.736 3.73-4.736 7.178 0 3.356 1.137 7.132 4.736 7.132 3.6 0 4.688-3.73 4.688-7.132 0-3.45-1.23-7.178-4.687-7.178zm12.643 3.636v11.84h-1.894V9.648h-1.94V8.482h1.988v-1.91c0-2.33 1.42-4.103 4.167-4.103.19 0 .473.047.473.047V3.73h-.19c-1.325 0-2.51.885-2.51 2.656v2.097h2.748V9.65L80.076 9.6zm7.91 0v11.84H86.09V9.648h-1.988V8.482h1.988v-1.91c0-2.33 1.42-4.103 4.168-4.103.19 0 .473.047.473.047V3.73h-.188c-1.326 0-2.51.885-2.51 2.656v2.097h2.747V9.65L87.984 9.6zm5.87-3.59c-.662 0-1.23-.512-1.23-1.164 0-.653.52-1.212 1.23-1.212s1.232.512 1.232 1.212c-.048.652-.52 1.165-1.23 1.165zm-.994 2.47h1.942v12.96h-1.942V8.48zm10.18 13.24c-3.077 0-5.54-2.658-5.54-6.806 0-4.242 2.416-6.806 5.59-6.806 1.61 0 2.65.467 3.22.886l-.522 1.165c-.426-.325-1.23-.698-2.32-.698-2.7 0-4.073 2.284-4.073 5.36 0 3.17 1.563 5.454 3.978 5.454.994 0 1.8-.326 2.32-.7l.52 1.26c-.425.465-1.562.885-3.172.885zm6.394-6.014c.237 3.03 1.99 4.568 4.64 4.568 1.61 0 2.842-.42 3.553-.792l.52 1.305c-.853.465-2.368.884-4.262.884-3.694 0-6.3-2.19-6.3-6.852 0-4.428 2.416-6.758 5.73-6.758 3.363 0 5.4 2.004 5.4 6.34l-9.282 1.304zm3.836-6.292c-2.13 0-3.93 1.63-3.883 5.267l7.48-1.026c-.046-2.983-1.514-4.24-3.598-4.24zm17.663.186v11.84h-1.894V9.648h-1.988V8.482h1.99v-1.91c0-2.33 1.42-4.103 4.166-4.103.19 0 .474.047.474.047V3.73h-.19c-1.326 0-2.51.885-2.51 2.656v2.097h2.747V9.65l-2.795-.048zm9.708 12.12c-3.883 0-5.635-2.984-5.635-6.806s1.752-6.806 5.635-6.806 5.635 2.984 5.635 6.806c0 3.915-1.752 6.805-5.635 6.805zm0-12.26c-2.89 0-3.694 2.89-3.694 5.5 0 2.657.9 5.407 3.693 5.407 2.888 0 3.74-2.704 3.74-5.408 0-2.703-.852-5.5-3.74-5.5zm13.922.233c-1.23-.326-2.983-.233-3.788.233V21.44h-1.942V9.044c1.373-.56 2.747-.886 5.21-.886h.994c.046 0-.475 1.538-.475 1.538zM71.742 47.637L64.307 36.31c-.52-.885-.947-1.678-.947-1.678h-.047s.095.933.095 1.958v11.047h-2.415v-16.5h2.746l7.055 10.627c.616.932.994 1.678.994 1.678h.047s-.095-.932-.095-1.958V31.09h2.462v16.5l-2.462.047zm10.465.326c-3.835 0-5.682-1.538-5.682-4.008 0-3.496 3.693-4.428 8.097-4.8v-.747c0-1.77-1.23-2.284-3.03-2.284-1.28 0-2.747.373-3.552.746l-.663-1.585c.9-.373 2.652-.932 4.736-.932 2.936 0 5.16 1.212 5.16 4.474v8.204c-1.135.56-2.887.933-5.066.933zm2.415-7.504c-3.267.325-5.445.93-5.445 3.4 0 1.726 1.278 2.518 3.22 2.518.9 0 1.705-.186 2.225-.466V40.46zm10.276 7.457c-2.746 0-3.788-1.772-3.788-3.496v-8.016h-1.847v-1.678h1.847v-2.89l2.794-.793v3.683h2.557v1.678h-2.556v7.924c0 1.025.568 1.817 1.8 1.817.236 0 .52-.046.757-.14v1.68c-.283.092-.804.232-1.562.232zm5.162-15.475c-.9 0-1.61-.653-1.61-1.445 0-.793.758-1.445 1.61-1.445.852 0 1.61.652 1.61 1.445.047.84-.71 1.445-1.61 1.445zm-1.42 2.284h2.84v12.958h-2.84V34.726zm11.27 13.237c-4.025 0-6.014-2.936-6.014-6.805 0-3.87 1.99-6.852 6.014-6.852 4.025 0 5.966 2.983 5.966 6.852.048 3.915-1.94 6.805-5.966 6.805zm0-11.792c-2.415 0-3.126 2.518-3.126 5.035 0 2.517.758 4.894 3.126 4.894 2.415 0 3.125-2.378 3.125-4.895 0-2.564-.71-5.034-3.125-5.034zm16.432 11.467V38.36c0-1.63-1.42-2.283-3.078-2.283-.9 0-1.705.187-2.273.373v11.187h-2.793V35.285c1.23-.513 3.173-.932 5.21-.932 3.408 0 5.73 1.165 5.73 4.008v9.324l-2.795-.047zm10.797.326c-3.837 0-5.684-1.538-5.684-4.008 0-3.496 3.74-4.428 8.098-4.8v-.747c0-1.77-1.232-2.284-3.03-2.284-1.28 0-2.748.373-3.553.746l-.662-1.585c.9-.373 2.652-.932 4.736-.932 2.936 0 5.162 1.212 5.162 4.474v8.204c-1.137.56-2.936.933-5.067.933zm2.414-7.504c-3.268.325-5.446.93-5.446 3.4 0 1.726 1.278 2.518 3.22 2.518.9 0 1.705-.186 2.226-.466V40.46zm5.493 7.177V28.76h2.794v18.877h-2.793zm16.195.326c-1.99 0-3.646-.466-4.546-.932l.805-2.003c.664.373 1.943.792 3.22.792 1.99 0 3.363-1.12 3.363-2.75 0-3.637-7.008-2.238-7.008-7.366 0-2.656 2.178-4.894 5.588-4.894 1.8 0 3.267.513 4.072.932l-.71 1.818c-.616-.373-1.752-.792-2.936-.792-1.8 0-3.032 1.072-3.032 2.657 0 3.542 7.15 2.004 7.15 7.504-.094 2.842-2.556 5.033-5.966 5.033zm12.975-.046c-2.746 0-3.788-1.772-3.788-3.496v-8.016h-1.848v-1.678h1.847v-2.89l2.793-.793v3.683h2.557v1.678h-2.557v7.924c0 1.025.615 1.817 1.8 1.817.236 0 .52-.046.757-.14v1.68c-.237.092-.853.232-1.563.232zm8.76.046c-3.835 0-5.682-1.538-5.682-4.008 0-3.496 3.74-4.428 8.098-4.8v-.747c0-1.77-1.23-2.284-3.03-2.284-1.28 0-2.747.373-3.552.746l-.662-1.585c.9-.373 2.65-.932 4.735-.932 2.936 0 5.162 1.212 5.162 4.474v8.204c-1.09.56-2.89.933-5.067.933zm2.416-7.504c-3.268.325-5.446.93-5.446 3.4 0 1.726 1.28 2.518 3.22 2.518.9 0 1.705-.186 2.226-.466V40.46zm10.323 7.457c-2.746 0-3.788-1.772-3.788-3.496v-8.016h-1.847v-1.678h1.848v-2.89l2.794-.793v3.683h2.557v1.678h-2.558v7.924c0 1.025.615 1.817 1.8 1.817.236 0 .52-.046.757-.14v1.68c-.333.092-.854.232-1.564.232zm5.162-15.475c-.9 0-1.61-.653-1.61-1.445 0-.793.757-1.445 1.61-1.445.852 0 1.61.652 1.61 1.445 0 .84-.71 1.445-1.61 1.445zm-1.42 2.284h2.84v12.958h-2.84V34.726zm8.95 13.237c-1.61 0-3.174-.466-3.98-.932l.76-1.77c.52.373 1.656.792 2.888.792 1.42 0 2.604-.885 2.604-2.004 0-3.077-5.777-1.632-5.777-5.873 0-1.958 1.752-3.776 4.593-3.776 1.61 0 2.794.42 3.694.93l-.758 1.586c-.426-.28-1.278-.745-2.368-.745-1.467 0-2.32.886-2.32 1.865 0 2.89 5.872 1.585 5.872 5.92-.095 2.05-2.036 4.008-5.21 4.008zm12.31-.046c-2.745 0-3.787-1.772-3.787-3.496v-8.016h-1.846v-1.678h1.847v-2.89l2.795-.793v3.683h2.557v1.678h-2.557v7.924c0 1.025.568 1.817 1.8 1.817.236 0 .52-.046.757-.14v1.68c-.284.092-.852.232-1.563.232zm5.116-15.475c-.9 0-1.61-.653-1.61-1.445 0-.793.757-1.445 1.61-1.445.9 0 1.61.652 1.61 1.445.094.84-.663 1.445-1.61 1.445zm-1.374 2.284h2.842v12.958h-2.842V34.726zm10.987 13.237c-3.22 0-5.683-2.61-5.683-6.852 0-4.287 2.557-6.804 5.73-6.804 1.61 0 2.746.466 3.362.932l-.616 1.585c-.426-.28-1.136-.606-2.036-.606-2.32 0-3.457 1.958-3.457 4.848 0 2.983 1.374 4.894 3.41 4.894.9 0 1.61-.327 2.036-.654l.71 1.678c-.663.56-1.8.98-3.456.98zm8.618 0c-1.61 0-3.173-.466-3.978-.932l.758-1.77c.52.373 1.657.792 2.89.792 1.42 0 2.603-.885 2.603-2.004 0-3.077-5.777-1.632-5.777-5.873 0-1.958 1.753-3.776 4.594-3.776 1.61 0 2.794.42 3.74.93l-.756 1.586c-.427-.28-1.28-.745-2.368-.745-1.468 0-2.32.886-2.32 1.865 0 2.89 5.87 1.585 5.87 5.92-.14 2.05-2.13 4.008-5.255 4.008z"></path></g></svg>
